<svg xmlns="http://www.w3.org/2000/svg" xmlns:xlink="http://www.w3.org/1999/xlink" id="Capa_1" x="0px" y="0px" viewBox="0 0 400 400" style="enable-background:new 0 0 400 400;" xml:space="preserve">
<style type="text/css">
	.st0{fill:#001C53;}
	.st1{fill:#FFFFFF;}
	.st2{fill:#2A8B2B;}
</style>
<g>
	<g>
		<path class="st0" d="M51.4,383.8l286.7-14.1c11.9-0.5,21.2-10.3,21.1-22.2l-0.7-320c0-6.1-5.1-10.9-11.2-10.7L59.5,30.9    c-11.9,0.5-21.2,10.3-21.1,22.2l0.7,318.9C39.1,378.8,44.7,384.1,51.4,383.8z"></path>
	</g>
	<g>
		<g>
			<circle class="st1" cx="195.3" cy="200.3" r="167.3"></circle>
		</g>
		<g>
			<path id="XMLID_2_" class="st2" d="M202.4,369.9c-93.5,0-169.6-76.1-169.6-169.6S108.9,30.6,202.4,30.6     c93.5,0,169.6,76.1,169.6,169.6S296,369.9,202.4,369.9z M202.4,35.4c-90.9,0-164.9,74-164.9,164.9c0,90.9,74,164.9,164.9,164.9     c90.9,0,164.9-74,164.9-164.9C367.3,109.4,293.3,35.4,202.4,35.4z"></path>
		</g>
	</g>
	<g>
		<g>
			<g>
				<path class="st0" d="M186.1,179c0-7,5.7-12.7,12.8-12.7c7.1,0,12.8,5.7,12.8,12.7c0,7-5.7,12.8-12.8,12.8      C191.8,191.7,186.1,186,186.1,179"></path>
			</g>
			<g>
				<g>
					<path class="st0" d="M176.4,208.1c0-0.2,0-0.4,0-0.7l-26-44.3c-2-3.2-1.1-7.2,2-9c3.1-1.8,7.3-0.7,9.3,2.5l22.9,39.2       c2.6,3.9,7.7,6.9,12.6,7.7l0.1,0l-38.3-62c-0.3-0.6-0.9-1.1-1.7-1.6c-0.9-0.5-1.6-0.7-2.2-0.7h-35.6c-1.3,0-2.4,0.5-3.3,1.4       c-0.9,0.9-1.4,2-1.4,3.2v109.8c0,1.2,0.5,2.3,1.4,3.2c0.9,0.9,2,1.4,3.3,1.4H150c1.3,0,2.4-0.5,3.3-1.4c0.9-0.9,1.4-2,1.4-3.2       v-59.1l21.7,40.4V208.1z"></path>
				</g>
				<g>
					<path class="st0" d="M221.3,208.1c0-0.2,0-0.4,0-0.7l26-44.3c2-3.2,1.1-7.2-2-9c-3.1-1.8-7.3-0.7-9.3,2.5l-22.9,39.2       c-2.6,3.9-7.7,6.9-12.6,7.7l-0.1,0l38.3-62c0.3-0.6,0.9-1.1,1.7-1.6c0.9-0.5,1.6-0.7,2.2-0.7h35.6c1.3,0,2.4,0.5,3.3,1.4       c0.9,0.9,1.4,2,1.4,3.2v109.8c0,1.2-0.5,2.3-1.4,3.2c-0.9,0.9-2,1.4-3.3,1.4h-30.4c-1.3,0-2.4-0.5-3.3-1.4       c-0.9-0.9-1.4-2-1.4-3.2v-59.1l-21.7,40.4V208.1z"></path>
				</g>
			</g>
		</g>
		<g>
			<g>
				<path class="st2" d="M129.7,268.5c-0.2,0-0.3,0.1-0.5,0.2c-0.2,0.1-0.3,0.2-0.4,0.4l-8.9,14.6l-9-14.6c-0.1-0.1-0.2-0.3-0.4-0.4      c-0.2-0.1-0.4-0.2-0.5-0.2h-8.1c-0.3,0-0.6,0.1-0.8,0.3c-0.2,0.2-0.3,0.4-0.3,0.7v24.9c0,0.3,0.1,0.5,0.3,0.7      c0.2,0.2,0.5,0.3,0.8,0.3h6.9c0.3,0,0.6-0.1,0.8-0.3c0.2-0.2,0.3-0.5,0.3-0.7V281l7.4,13.8c0.1,0.2,0.2,0.3,0.4,0.4      c0.2,0.1,0.4,0.2,0.5,0.2h3.2c0.2,0,0.3-0.1,0.5-0.2c0.2-0.1,0.3-0.3,0.4-0.4l7.5-13.9v13.4c0,0.3,0.1,0.5,0.3,0.7      c0.2,0.2,0.5,0.3,0.8,0.3h6.9c0.3,0,0.6-0.1,0.8-0.3c0.2-0.2,0.3-0.5,0.3-0.7v-24.9c0-0.3-0.1-0.5-0.3-0.7      c-0.2-0.2-0.5-0.3-0.8-0.3H129.7z"></path>
			</g>
			<g>
				<path class="st0" d="M147.6,295.5c0.3,0,0.5-0.1,0.6-0.3c0.2-0.2,0.3-0.4,0.3-0.7v-24.9c0-0.3-0.1-0.5-0.3-0.7      c-0.2-0.2-0.4-0.3-0.6-0.3h-6.4c-0.3,0-0.5,0.1-0.6,0.3c-0.2,0.2-0.3,0.4-0.3,0.7v24.9c0,0.3,0.1,0.5,0.3,0.7      c0.2,0.2,0.4,0.3,0.6,0.3H147.6z"></path>
			</g>
			<g>
				<path class="st2" d="M159.6,282.2c0-2.4,0.7-4.3,2.2-5.6c1.4-1.3,3.4-2,6-2c0.8,0,1.6,0.1,2.3,0.2c0.8,0.1,1.5,0.3,2.3,0.5      c1.6,0.4,2.9,0.8,3.9,1.2c0.4,0.1,0.7,0.1,1-0.1c0.3-0.2,0.4-0.5,0.4-0.9l-0.4-5.1c0-0.2-0.1-0.4-0.2-0.5      c-0.1-0.2-0.3-0.3-0.5-0.3c-1.2-0.4-2.7-0.8-4.5-1c-1.7-0.3-3.7-0.4-6-0.4c-2.6,0-4.8,0.3-6.8,0.9c-2,0.6-3.7,1.6-5.1,2.8      c-1.4,1.2-2.4,2.7-3.1,4.5c-0.7,1.8-1.1,3.8-1.1,6.2c0,4.4,1.5,7.7,4.5,10c2.9,2.3,6.8,3.4,11.9,3.4c2.2,0,4.2-0.1,6.1-0.4      c1.9-0.3,3.6-0.7,5.2-1.3c0.2-0.1,0.3-0.2,0.5-0.4c0.1-0.2,0.2-0.4,0.2-0.6l0.1-5.2c0-0.4-0.2-0.7-0.4-0.9      c-0.3-0.2-0.6-0.2-1-0.1c-0.5,0.2-1.2,0.4-1.9,0.7c-0.7,0.2-1.5,0.4-2.4,0.7h0.1c-1.7,0.4-3.4,0.6-5.1,0.6      c-2.6,0-4.6-0.6-6.1-1.9c-0.7-0.6-1.2-1.3-1.6-2.1C159.7,284.2,159.5,283.3,159.6,282.2L159.6,282.2z"></path>
			</g>
			<g>
				<path class="st2" d="M202.9,282c0,2-0.6,3.5-1.7,4.5c-1.1,1-2.8,1.5-4.9,1.5c-2.2,0-3.8-0.5-4.9-1.5c-1.1-1-1.7-2.5-1.7-4.5      c0-2,0.6-3.5,1.7-4.5c1.1-1,2.8-1.5,4.9-1.5c2.2,0,3.8,0.5,4.9,1.5C202.3,278.5,202.9,280,202.9,282 M212.4,282      c0-4.7-1.4-8.2-4.1-10.5c-2.7-2.3-6.8-3.5-12.1-3.5c-5.3,0-9.4,1.2-12.1,3.5c-2.7,2.3-4.1,5.8-4.1,10.5c0,4.7,1.4,8.2,4.1,10.5      c2.7,2.3,6.8,3.4,12.1,3.4c5.3,0,9.4-1.1,12.1-3.4C211,290.2,212.4,286.7,212.4,282"></path>
			</g>
			<g>
				<path class="st2" d="M236.8,282c0,2-0.6,3.5-1.7,4.5c-1.1,1-2.8,1.5-4.9,1.5c-2.2,0-3.8-0.5-4.9-1.5c-1.1-1-1.7-2.5-1.7-4.5      c0-2,0.6-3.5,1.7-4.5c1.1-1,2.8-1.5,4.9-1.5c2.2,0,3.8,0.5,4.9,1.5C236.2,278.5,236.8,280,236.8,282 M246.3,282      c0-4.7-1.4-8.2-4.1-10.5c-2.7-2.3-6.8-3.5-12.1-3.5s-9.4,1.2-12.1,3.5c-2.7,2.3-4.1,5.8-4.1,10.5c0,4.7,1.4,8.2,4.1,10.5      c2.7,2.3,6.8,3.4,12.1,3.4s9.4-1.1,12.1-3.4C245,290.2,246.3,286.7,246.3,282"></path>
			</g>
			<g>
				<path class="st2" d="M259.3,274.7c1.2-0.1,2.2,0.1,2.9,0.6c0.7,0.5,1,1.1,1,2c0,1.8-1.4,2.6-4.2,2.5l-1.8-0.1v-4.9L259.3,274.7z       M260.9,285.9c3.8,0,6.6-0.6,8.5-2.1c1.9-1.4,2.9-3.7,2.9-6.7c0-1.5-0.3-2.8-0.8-3.9c-0.6-1.1-1.4-2-2.5-2.7      c-1.1-0.7-2.5-1.2-4.1-1.5c-1.7-0.3-3.6-0.5-5.8-0.5h-10.2c-0.3,0-0.5,0.1-0.7,0.3c-0.2,0.2-0.3,0.4-0.3,0.7v24.9      c0,0.3,0.1,0.5,0.3,0.7c0.2,0.2,0.5,0.3,0.7,0.3h7.3c0.3,0,0.6-0.1,0.8-0.3c0.2-0.2,0.3-0.5,0.3-0.7v-8.6L260.9,285.9z"></path>
			</g>
			<g>
				<path class="st2" d="M295.9,295.5c0.3,0,0.5-0.1,0.7-0.3c0.2-0.2,0.3-0.4,0.3-0.7v-5c0-0.3-0.1-0.6-0.3-0.8      c-0.2-0.2-0.4-0.3-0.7-0.3h-12.5v-2.9l9.9,0c0.3,0,0.5-0.1,0.7-0.3c0.2-0.2,0.3-0.5,0.3-0.8v-4.9c0-0.3-0.1-0.5-0.3-0.7      c-0.2-0.2-0.4-0.3-0.7-0.3h-9.9v-2.8h11.6c0.3,0,0.5-0.1,0.7-0.3c0.2-0.2,0.3-0.5,0.3-0.8v-5c0-0.3-0.1-0.5-0.3-0.7      c-0.2-0.2-0.4-0.3-0.7-0.3h-20.1c-0.3,0-0.5,0.1-0.7,0.3c-0.2,0.2-0.3,0.4-0.3,0.7v24.9c0,0.3,0.1,0.5,0.3,0.7      c0.2,0.2,0.4,0.3,0.7,0.3H295.9z"></path>
			</g>
		</g>
		<g>
			<rect x="100.3" y="301.7" class="st0" width="197" height="2.5"></rect>
		</g>
		<g>
			<g>
				<g>
					<path class="st0" d="M150.8,97.6l-2.2-1.3c-1.4-0.8-2.3-1.7-2.9-2.5c-0.6-0.8-0.9-1.7-0.9-2.8c0-1.6,0.5-2.9,1.6-3.8       c1.1-1,2.5-1.5,4.3-1.5c1.7,0,3.2,0.5,4.6,1.4v3.3c-1.4-1.4-3-2.1-4.7-2.1c-0.9,0-1.7,0.2-2.3,0.6c-0.6,0.4-0.9,1-0.9,1.7       c0,0.6,0.2,1.2,0.7,1.7c0.4,0.5,1.2,1.1,2.1,1.7l2.2,1.3c2.4,1.5,3.7,3.3,3.7,5.6c0,1.6-0.5,2.9-1.6,3.9       c-1.1,1-2.5,1.5-4.2,1.5c-2,0-3.8-0.6-5.4-1.8v-3.6c1.5,2,3.3,2.9,5.4,2.9c0.9,0,1.6-0.2,2.2-0.7c0.6-0.5,0.9-1.1,0.9-1.9       C153.5,99.8,152.6,98.7,150.8,97.6z"></path>
				</g>
				<g>
					<path class="st0" d="M159.4,85.9h2.9v20h-2.9V85.9z"></path>
				</g>
				<g>
					<path class="st0" d="M171.6,97.6l-2.2-1.3c-1.4-0.8-2.3-1.7-2.9-2.5c-0.6-0.8-0.9-1.7-0.9-2.8c0-1.6,0.5-2.9,1.6-3.8       c1.1-1,2.5-1.5,4.3-1.5c1.7,0,3.2,0.5,4.6,1.4v3.3c-1.4-1.4-3-2.1-4.7-2.1c-0.9,0-1.7,0.2-2.3,0.6c-0.6,0.4-0.9,1-0.9,1.7       c0,0.6,0.2,1.2,0.7,1.7c0.4,0.5,1.2,1.1,2.1,1.7l2.2,1.3c2.4,1.5,3.7,3.3,3.7,5.6c0,1.6-0.5,2.9-1.6,3.9       c-1.1,1-2.5,1.5-4.2,1.5c-2,0-3.8-0.6-5.4-1.8v-3.6c1.5,2,3.3,2.9,5.4,2.9c0.9,0,1.6-0.2,2.2-0.7c0.6-0.5,0.9-1.1,0.9-1.9       C174.3,99.8,173.4,98.7,171.6,97.6z"></path>
				</g>
				<g>
					<path class="st0" d="M178.4,85.9h16.7v2.6h-7V106h-2.9V88.5h-6.9V85.9z"></path>
				</g>
				<g>
					<path class="st0" d="M197.8,85.9h11.4v2.6h-8.5v6.1h8.2v2.6h-8.2v6.2h8.8v2.6h-11.6V85.9z"></path>
				</g>
				<g>
					<path class="st0" d="M228.4,85.9h2.7v20h-2.9V90.4l-6.2,7.7h-0.5l-6.2-7.7V106h-2.9v-20h2.7l6.7,8.2L228.4,85.9z"></path>
				</g>
				<g>
					<path class="st0" d="M241.8,85.8h2l9,20.1h-2.9l-2.7-5.9h-8.5l-2.5,5.9h-2.9L241.8,85.8z M246,97.5l-3.2-7.3l-3,7.3H246z"></path>
				</g>
			</g>
			<g>
				<g>
					<path class="st0" d="M118.8,125.4v3.2c-2.1,1.1-4.5,1.7-7.3,1.7c-2.2,0-4.1-0.4-5.7-1.3c-1.6-0.9-2.8-2.1-3.7-3.7       c-0.9-1.6-1.4-3.3-1.4-5.1c0-2.9,1-5.4,3.1-7.4c2.1-2,4.6-3,7.7-3c2.1,0,4.4,0.5,7,1.6v3.1c-2.3-1.3-4.6-2-6.9-2       c-2.3,0-4.2,0.7-5.7,2.2c-1.5,1.4-2.3,3.3-2.3,5.4c0,2.2,0.7,4,2.2,5.4c1.5,1.4,3.4,2.1,5.7,2.1       C114.1,127.7,116.5,126.9,118.8,125.4z"></path>
				</g>
				<g>
					<path class="st0" d="M132.2,109.8c3.1,0,5.7,1,7.7,2.9c2.1,2,3.1,4.4,3.1,7.4c0,2.9-1,5.4-3.1,7.3c-2.1,1.9-4.7,2.9-7.9,2.9       c-3,0-5.5-1-7.5-2.9c-2-1.9-3-4.4-3-7.3c0-3,1-5.5,3-7.4C126.5,110.8,129.1,109.8,132.2,109.8z M132.3,112.5       c-2.3,0-4.2,0.7-5.6,2.1c-1.5,1.4-2.2,3.3-2.2,5.5c0,2.2,0.7,4,2.2,5.4c1.5,1.4,3.3,2.2,5.6,2.2c2.2,0,4.1-0.7,5.6-2.2       c1.5-1.5,2.2-3.3,2.2-5.5c0-2.1-0.7-3.9-2.2-5.4C136.3,113.2,134.4,112.5,132.3,112.5z"></path>
				</g>
				<g>
					<path class="st0" d="M156.3,109.8c3.1,0,5.7,1,7.7,2.9c2.1,2,3.1,4.4,3.1,7.4c0,2.9-1,5.4-3.1,7.3c-2.1,1.9-4.7,2.9-7.9,2.9       c-3,0-5.5-1-7.5-2.9c-2-1.9-3-4.4-3-7.3c0-3,1-5.5,3-7.4C150.7,110.8,153.2,109.8,156.3,109.8z M156.4,112.5       c-2.3,0-4.2,0.7-5.6,2.1c-1.5,1.4-2.2,3.3-2.2,5.5c0,2.2,0.7,4,2.2,5.4c1.5,1.4,3.3,2.2,5.6,2.2c2.2,0,4.1-0.7,5.6-2.2       c1.5-1.5,2.2-3.3,2.2-5.5c0-2.1-0.7-3.9-2.2-5.4C160.4,113.2,158.6,112.5,156.4,112.5z"></path>
				</g>
				<g>
					<path class="st0" d="M170.5,130.1v-20h6.3c1.9,0,3.4,0.5,4.6,1.5c1.1,1,1.7,2.4,1.7,4.2c0,1.2-0.3,2.2-0.9,3.1       c-0.6,0.9-1.4,1.6-2.4,2c-1,0.4-2.5,0.6-4.4,0.6h-2.1v8.7H170.5z M176.3,112.6h-3v6.3h3.1c1.2,0,2.1-0.3,2.7-0.8       c0.6-0.5,0.9-1.3,0.9-2.4C180.2,113.6,178.9,112.6,176.3,112.6z"></path>
				</g>
				<g>
					<path class="st0" d="M185.6,110.1H197v2.6h-8.5v6.1h8.2v2.6h-8.2v6.2h8.8v2.6h-11.6V110.1z"></path>
				</g>
				<g>
					<path class="st0" d="M200.4,130.1v-20h5c2,0,3.6,0.5,4.8,1.5c1.2,1,1.8,2.4,1.8,4.1c0,1.2-0.3,2.2-0.9,3       c-0.6,0.9-1.4,1.5-2.5,1.9c0.6,0.4,1.3,1,1.9,1.7c0.6,0.7,1.5,2,2.6,3.8c0.7,1.1,1.3,2,1.7,2.6l1.1,1.4h-3.4l-0.9-1.3       c0,0-0.1-0.1-0.2-0.2l-0.6-0.8l-0.9-1.5l-1-1.6c-0.6-0.8-1.1-1.5-1.6-2c-0.5-0.5-0.9-0.8-1.3-1.1c-0.4-0.2-1.1-0.3-2-0.3h-0.7       v8.7H200.4z M204.1,112.5h-0.9v6.3h1.1c1.5,0,2.4-0.1,3-0.4c0.5-0.2,1-0.6,1.3-1.1c0.3-0.5,0.5-1.1,0.5-1.7       c0-0.6-0.2-1.2-0.5-1.7c-0.3-0.5-0.8-0.9-1.4-1.1C206.5,112.6,205.5,112.5,204.1,112.5z"></path>
				</g>
				<g>
					<path class="st0" d="M224.4,109.9h2l9,20.1h-2.9l-2.7-5.9h-8.5l-2.5,5.9h-2.9L224.4,109.9z M228.6,121.6l-3.2-7.3l-3,7.3H228.6       z"></path>
				</g>
				<g>
					<path class="st0" d="M232.9,110h16.7v2.6h-7v17.5h-2.9v-17.5h-6.9V110z"></path>
				</g>
				<g>
					<path class="st0" d="M252.4,110.1h2.9v20h-2.9V110.1z"></path>
				</g>
				<g>
					<path class="st0" d="M272.4,110.1h2.9l-8.5,20.1h-0.7l-8.6-20.1h2.9l6,14.1L272.4,110.1z"></path>
				</g>
				<g>
					<path class="st0" d="M286.1,109.8c3.1,0,5.7,1,7.7,2.9c2.1,2,3.1,4.4,3.1,7.4c0,2.9-1,5.4-3.1,7.3c-2.1,1.9-4.7,2.9-7.9,2.9       c-3,0-5.5-1-7.5-2.9c-2-1.9-3-4.4-3-7.3c0-3,1-5.5,3-7.4C280.4,110.8,283,109.8,286.1,109.8z M286.2,112.5       c-2.3,0-4.2,0.7-5.6,2.1c-1.5,1.4-2.2,3.3-2.2,5.5c0,2.2,0.7,4,2.2,5.4c1.5,1.4,3.3,2.2,5.6,2.2c2.2,0,4.1-0.7,5.6-2.2       c1.5-1.5,2.2-3.3,2.2-5.5c0-2.1-0.7-3.9-2.2-5.4C290.2,113.2,288.4,112.5,286.2,112.5z"></path>
				</g>
			</g>
		</g>
	</g>
</g>
</svg>