<svg xmlns="http://www.w3.org/2000/svg" xmlns:xlink="http://www.w3.org/1999/xlink" id="Capa_1" x="0px" y="0px" viewBox="0 0 500 200" style="enable-background:new 0 0 500 200;" xml:space="preserve">
<style type="text/css">
	.st0{fill:#003055;}
	.st1{fill:#F6A716;}
	.st2{fill-rule:evenodd;clip-rule:evenodd;fill:#003055;}
</style>
<g id="XMLID_2_">
	<g id="XMLID_22_">
		<g id="XMLID_58_">
			<path id="XMLID_85_" class="st0" d="M234.8,55l-6,46.9h-12.2l-3.7-25.9l-3.5,25.9h-10.5L193,55h9.3l2.6,21.6l3.6-21.6H220     l2.8,21.6l3.5-21.6H234.8z"></path>
			<path id="XMLID_82_" class="st0" d="M235.9,94.4V71.7c0-5.3,3.7-8,11.1-8c2.9,0,5.4,0.6,7.5,1.9c2.2,1.2,3.3,3.2,3.3,5.8v23.4     c0,5.1-3.6,7.7-10.8,7.7C239.6,102.5,235.9,99.8,235.9,94.4z M248.4,94.7V71.5c0-1.2-0.5-1.9-1.6-1.9c-1.1,0-1.6,0.6-1.6,1.9     v23.2c0,1.3,0.5,1.9,1.6,1.9C247.9,96.6,248.4,96,248.4,94.7z"></path>
			<path id="XMLID_80_" class="st0" d="M283.2,79.7h-9.3v-8.2c0-1.2-0.5-1.7-1.6-1.7s-1.6,0.6-1.6,1.7v30.5h-9.3V64h9.3v1.3     c1.2-1,3.2-1.5,5.8-1.5c1.9,0,3.4,0.5,4.8,1.5c1.3,1,2,2.3,2,3.9V79.7z"></path>
			<path id="XMLID_78_" class="st0" d="M295.8,101.9h-9.3V55h9.3V101.9z"></path>
			<path id="XMLID_75_" class="st0" d="M321.2,101.9h-7.1l-0.8-1.3c-1.6,1.2-3.4,1.8-5.4,1.8c-2.4,0-4.4-0.6-6.1-1.7     c-1.7-1.1-2.5-2.6-2.5-4.5V69c0-1.6,0.7-2.9,2-3.8c1.3-0.9,2.9-1.4,4.8-1.4c2.6,0,4.5,0.5,5.8,1.4V55h9.3V101.9z M311.9,94.8     V71.3c0-1.1-0.5-1.7-1.6-1.7c-1.1,0-1.6,0.6-1.6,1.7v23.5c0,1.2,0.5,1.7,1.6,1.7C311.4,96.6,311.9,96,311.9,94.8z"></path>
			<path id="XMLID_73_" class="st0" d="M360.7,71.4h-9.4v-9.3c0-0.8-0.5-1.1-1.4-1.1c-1,0-1.5,0.4-1.5,1.1v32.5     c0,0.8,0.5,1.1,1.5,1.1c0.9,0,1.4-0.4,1.4-1.1V83.1h9.4V95c0,2.2-1.1,4-3.3,5.3c-2.2,1.3-4.6,2-7.4,2c-7.9,0-11.9-2.8-11.9-8.4     V63.7c0-6.1,4-9.1,11.9-9.1c7.1,0,10.7,2.8,10.7,8.3V71.4z"></path>
			<path id="XMLID_70_" class="st0" d="M364.2,94.4V71.7c0-5.3,3.7-8,11.1-8c2.9,0,5.4,0.6,7.5,1.9c2.2,1.2,3.3,3.2,3.3,5.8v23.4     c0,5.1-3.6,7.7-10.8,7.7C367.9,102.5,364.2,99.8,364.2,94.4z M376.7,94.7V71.5c0-1.2-0.5-1.9-1.6-1.9c-1.1,0-1.6,0.6-1.6,1.9     v23.2c0,1.3,0.5,1.9,1.6,1.9C376.2,96.6,376.7,96,376.7,94.7z"></path>
			<path id="XMLID_68_" class="st0" d="M411.2,101.9h-9.3v-1.3c-1.2,1.2-3.1,1.8-5.8,1.8c-1.8,0-3.4-0.5-4.8-1.5c-1.3-1-2-2.2-2-3.8     V64h9.3v30.9c0,1.2,0.5,1.7,1.6,1.7c1.1,0,1.6-0.6,1.6-1.7V64h9.3V101.9z"></path>
			<path id="XMLID_66_" class="st0" d="M436.5,101.9h-9.3V71.5c0-1.2-0.5-1.7-1.6-1.7c-1.1,0-1.6,0.6-1.6,1.7v30.5h-9.3V64h9.3v1.3     c1.2-1,3.2-1.5,5.8-1.5c1.7,0,3.2,0.5,4.7,1.4c1.4,0.9,2.1,2.3,2.1,4V101.9z"></path>
			<path id="XMLID_64_" class="st0" d="M461.5,80.8h-9.3v-9.3c0-1.2-0.5-1.9-1.6-1.9c-1.1,0-1.6,0.6-1.6,1.9v23.2     c0,1.3,0.5,1.9,1.6,1.9c1,0,1.6-0.6,1.6-1.9v-9.2h9.3v9.3c0,5.1-3.6,7.7-10.8,7.7c-7.4,0-11.1-2.7-11.1-8V71.7     c0-5.3,3.7-8,11.1-8c7.2,0,10.8,2.6,10.8,7.7V80.8z"></path>
			<path id="XMLID_61_" class="st0" d="M474.2,61.9h-9.3V55h9.3V61.9z M474.2,101.9h-9.3V64h9.3V101.9z"></path>
			<path id="XMLID_59_" class="st0" d="M487,101.9h-9.3V55h9.3V101.9z"></path>
		</g>
		<g id="XMLID_23_">
			<path id="XMLID_55_" class="st0" d="M193.4,143.3v-16.8c0-3.9,2.7-5.9,8.2-5.9c2.1,0,4,0.5,5.6,1.4c1.6,0.9,2.4,2.3,2.4,4.3v17.2     c0,3.8-2.7,5.7-8,5.7C196.1,149.3,193.4,147.3,193.4,143.3z M202.7,143.5v-17.2c0-0.9-0.4-1.4-1.2-1.4c-0.8,0-1.2,0.5-1.2,1.4     v17.2c0,0.9,0.4,1.4,1.2,1.4C202.3,145,202.7,144.5,202.7,143.5z"></path>
			<path id="XMLID_53_" class="st0" d="M224.9,125H221v23.9h-6.9V125h-2.3v-4.1h2.3c0-2.5,0.3-4.2,0.9-5.1c0.6-1,2.5-1.4,5.5-1.4     h4.3v3.8h-1.3c-1.2,0-1.9,0.2-2.2,0.7c-0.3,0.4-0.4,1.2-0.4,2.2h3.9V125z"></path>
			<path id="XMLID_51_" class="st0" d="M251.4,126.4h-6.9v-6.9c0-0.6-0.3-0.8-1-0.8c-0.7,0-1.1,0.3-1.1,0.8v24     c0,0.6,0.4,0.8,1.1,0.8c0.7,0,1-0.3,1-0.8V135h6.9v8.8c0,1.6-0.8,3-2.4,3.9c-1.6,1-3.4,1.5-5.5,1.5c-5.9,0-8.8-2.1-8.8-6.2v-22.3     c0-4.5,2.9-6.7,8.8-6.7c5.2,0,7.9,2,7.9,6.1V126.4z"></path>
			<path id="XMLID_49_" class="st0" d="M269.9,132.5H263v-6.1c0-0.9-0.4-1.3-1.2-1.3c-0.8,0-1.2,0.4-1.2,1.2v22.5h-6.9v-28h6.9v0.9     c0.9-0.8,2.3-1.1,4.2-1.1c1.4,0,2.5,0.4,3.5,1.1c1,0.7,1.5,1.7,1.5,2.9V132.5z"></path>
			<path id="XMLID_46_" class="st0" d="M288.4,137h-9.2v6.5c0,0.9,0.4,1.4,1.2,1.4c0.8,0,1.2-0.5,1.2-1.4v-5.6h6.9v5.7     c0,3.8-2.7,5.7-8.1,5.7c-5.3,0-8-2-8-5.9v-16.8c0-3.9,2.7-5.9,8-5.9c5.4,0,8.1,1.9,8.1,5.7V137z M281.5,132.8v-6.4     c0-0.9-0.4-1.4-1.2-1.4c-0.8,0-1.2,0.5-1.2,1.4v6.4H281.5z"></path>
			<path id="XMLID_43_" class="st0" d="M306.9,148.9h-5.2l-0.6-0.9c-1.2,0.9-2.5,1.3-4,1.3c-1.8,0-3.3-0.4-4.5-1.2     c-1.2-0.8-1.8-1.9-1.8-3.4v-20.1c0-1.2,0.5-2.1,1.5-2.8c1-0.7,2.2-1,3.5-1c1.9,0,3.3,0.3,4.3,1v-7.4h6.9V148.9z M300,143.6v-17.4     c0-0.8-0.4-1.2-1.2-1.2c-0.8,0-1.2,0.4-1.2,1.3v17.3c0,0.9,0.4,1.3,1.2,1.3C299.6,144.9,300,144.5,300,143.6z"></path>
			<path id="XMLID_40_" class="st0" d="M316.2,119.3h-6.9v-5h6.9V119.3z M316.2,148.9h-6.9v-28h6.9V148.9z"></path>
			<path id="XMLID_38_" class="st0" d="M332.3,148.9H328c-3.1,0-5-0.5-5.6-1.4c-0.6-0.9-0.9-2.7-0.9-5.4V125h-3.1v-4.1h3.1v-5.6h6.9     v5.6h3.7v4.1h-3.7v17c0,0.8,0.2,1.4,0.7,1.7c0.5,0.3,1.6,0.4,3.2,0.4V148.9z"></path>
			<path id="XMLID_36_" class="st0" d="M342.7,114.3h7.6v29c0,0.7,0.4,1,1.3,1c0.8,0,1.3-0.3,1.3-1v-29h7.6v28.6     c0,2-0.8,3.5-2.5,4.6c-1.7,1.1-3.8,1.6-6.4,1.6c-2.4,0-4.5-0.5-6.2-1.5s-2.6-2.6-2.6-4.8V114.3z"></path>
			<path id="XMLID_34_" class="st0" d="M379.1,148.9h-6.9v-22.5c0-0.9-0.4-1.3-1.2-1.3c-0.8,0-1.2,0.4-1.2,1.2v22.5H363v-28h6.9v0.9     c0.9-0.8,2.3-1.1,4.3-1.1c1.2,0,2.4,0.3,3.4,1c1,0.7,1.6,1.7,1.6,3V148.9z"></path>
			<path id="XMLID_31_" class="st0" d="M388.5,119.3h-6.9v-5h6.9V119.3z M388.5,148.9h-6.9v-28h6.9V148.9z"></path>
			<path id="XMLID_28_" class="st0" d="M390.9,143.3v-16.8c0-3.9,2.7-5.9,8.2-5.9c2.1,0,4,0.5,5.6,1.4c1.6,0.9,2.4,2.3,2.4,4.3v17.2     c0,3.8-2.7,5.7-8,5.7C393.6,149.3,390.9,147.3,390.9,143.3z M400.1,143.5v-17.2c0-0.9-0.4-1.4-1.2-1.4c-0.8,0-1.2,0.5-1.2,1.4     v17.2c0,0.9,0.4,1.4,1.2,1.4C399.7,145,400.1,144.5,400.1,143.5z"></path>
			<path id="XMLID_26_" class="st0" d="M425.6,148.9h-6.9v-22.5c0-0.9-0.4-1.3-1.2-1.3c-0.8,0-1.2,0.4-1.2,1.2v22.5h-6.9v-28h6.9     v0.9c0.9-0.8,2.3-1.1,4.3-1.1c1.2,0,2.4,0.3,3.4,1c1,0.7,1.6,1.7,1.6,3V148.9z"></path>
			<path id="XMLID_24_" class="st0" d="M428.1,137.6h6.9v5.9c0,0.9,0.4,1.4,1.2,1.4c0.8,0,1.2-0.9,1.2-2.7c0-2.4-0.5-3.9-1.4-4.6     c-3.6-1.9-5.7-3.2-6.5-3.9s-1.1-1.9-1.1-3.4v-3.8c0-3.9,2.7-5.9,8-5.9c5.2,0,7.8,1.9,7.8,5.7v5.5h-6.7l0.1-3.4     c0-2.3-0.4-3.5-1.3-3.5c-0.9,0-1.3,0.7-1.3,2.2c0,1.5,0.2,2.7,0.6,3.4c0.4,0.8,2.5,2.1,6.3,4c1.6,1.1,2.4,2.7,2.4,4.5v4.2     c0,3.9-2.7,5.9-8.1,5.9c-5.3,0-8-1.9-8-5.7V137.6z"></path>
		</g>
	</g>
	<path id="XMLID_21_" class="st1" d="M174.9,73.8c-0.1,23.3-21.1,39.4-41,46.9c-13.1,4.9-27.3,7-41.3,6.6   c-13.7-0.3-27.5-3.1-40.1-8.6c-19.3-8.5-38.2-25.9-35.3-48.9c1.3-10.4,7.2-19.5,14.7-26.5c8.9-8.4,20.3-14.1,32-17.6   c13.6-4.1,28.1-5.4,42.3-4.2c13.3,1.1,26.6,4.6,38.5,10.8C160.4,40.4,174.8,55,174.9,73.8c0,1.1,1.9,2.4,1.9,0.9   c-0.1-22.9-19.3-39.4-38.8-47.7c-12.6-5.3-26.4-7.9-40-8.2c-13.9-0.3-27.8,1.8-40.9,6.6c-19.9,7.4-40.4,23.1-42,45.9   c-1.5,22.7,17,40.1,36,48.9c12.3,5.7,25.8,8.6,39.3,9.3c14,0.7,28.1-1,41.4-5.5c20.3-6.8,41.7-21.8,44.7-44.6   c0.2-1.6,0.3-3.2,0.3-4.8C176.8,73.6,174.9,72.3,174.9,73.8"></path>
	<path id="XMLID_20_" class="st1" d="M139.3,74.3c0,12.8-3.8,25.6-11.5,35.9c-6.8,9.1-17,15.9-28.4,17.2   c-11.4,1.3-22.5-3.3-30.6-11.2c-9-8.7-14.2-20.9-15.7-33.2c-3-23.8,8.2-52.3,32.8-59.9c10.9-3.4,22.7-1.1,32,5.4   c9.9,7,16.4,18.1,19.5,29.7C138.7,63.5,139.3,68.9,139.3,74.3c0,1,2.3,1.8,2.3,0.7c0-12.7-3.6-25.3-11-35.7   c-6.5-9.2-16.2-16.2-27.3-18.5c-11-2.3-22.3,0.5-31.4,7.1c-9.7,7-16.2,17.9-19.4,29.3c-6.6,23.6,1,52.5,22.5,65.9   c9.5,5.9,21.1,7.8,31.9,4.8c11-3.1,20-11.1,25.9-20.7c5.9-9.6,8.7-20.9,8.8-32.2C141.6,74.1,139.3,73.2,139.3,74.3"></path>
	<path id="XMLID_19_" class="st1" d="M94.7,19.7c0,9.1,0,18.3,0,27.4c0,17.2,0,34.3,0,51.5c0,9.8,0,19.6,0,29.5v0.1   c0,1.2,2.4,1.6,2.4,0.2c0-9.1,0-18.3,0-27.4c0-17.2,0-34.3,0-51.5c0-9.8,0-19.6,0-29.5v-0.1C97.1,18.6,94.7,18.2,94.7,19.7"></path>
	<path id="XMLID_18_" class="st1" d="M25.8,49.1c7.6,0,15.1,0,22.7,0c16.5,0,33,0,49.5,0c16.2,0,32.4,0,48.6,0c6.6,0,13.3,0,19.9,0   c1.7,0,0.8-1.3-0.4-1.3c-7.6,0-15.1,0-22.7,0c-16.5,0-33,0-49.5,0c-16.2,0-32.4,0-48.6,0c-6.6,0-13.3,0-19.9,0   C23.7,47.7,24.6,49.1,25.8,49.1"></path>
	<path id="XMLID_17_" class="st1" d="M31.7,107.4c8.1,0,16.2,0,24.4,0c17,0,33.9,0,50.9,0c14.7,0,29.3,0,44,0h9.3   c1.5,0,1.1-2.4-0.2-2.4c-8.1,0-16.2,0-24.4,0c-17,0-33.9,0-50.9,0c-14.7,0-29.3,0-44,0c-3.1,0-6.2,0-9.3,0   C30.1,105.1,30.5,107.4,31.7,107.4"></path>
	<path id="XMLID_16_" class="st1" d="M18,78.4c6.9,0,13.9,0,20.8,0c15.8,0,31.7,0,47.5,0c17.2,0,34.5,0,51.7,0c11.2,0,22.3,0,33.5,0   h3.3c1,0,0-2.2-1-2.2c-6.9,0-13.9,0-20.8,0c-15.8,0-31.7,0-47.5,0c-17.2,0-34.5,0-51.7,0c-11.2,0-22.3,0-33.5,0H17   C16,76.2,17,78.4,18,78.4"></path>
	<path id="XMLID_15_" class="st2" d="M56.4,181.5c0.7-1.6,1.4-3.1,2.1-4.7c1.4-3.2,2.7-6.4,3.9-9.7c0.3-0.9,0.7-1.9,1-2.8   c0.3-1,0.8-2.1,1-3.2c0.1-1.1-1.4-2.4-2.1-3.1c-0.8-0.8-1.7-1.6-2.5-2.4c-1-1-2.1-1.9-3.2-2.9c-1.2-1-2.3-2-3.5-3.1   c-1.2-1.1-2.4-2.1-3.7-3.2c-1.2-1-2.4-2-3.5-3c-1.1-0.9-2.1-1.8-3.2-2.8c-0.8-0.7-1.7-1.4-2.5-2.1c-0.7-0.6-1.2-1.2-1.8-1.9   c-0.4-0.5-0.5-1.4-0.6-2c-0.1-0.9-0.2-1.8-0.3-2.8c-0.2-1.3-0.4-2.6-0.6-3.9c-0.2-1.5-0.5-3-0.7-4.6c-0.2-1.6-0.5-3.3-0.8-4.9   c-0.3-1.6-0.5-3.3-0.8-4.9c-0.2-1.5-0.5-3-0.7-4.6c-0.2-1.3-0.4-2.6-0.6-3.8c-0.1-0.9-0.3-1.9-0.4-2.8c-0.1-0.9-0.3-1.6,0.1-2.4   c0.7-1.7,2.3-3.1,4.2-2.5c0.9,0.3,1.7,0.9,2.4,1.6c4.1,3.8,8,24.5,9.4,26.2c0.9,1.1,20.3,14.2,21.1,14.2c1.1,0.1,2-0.5-0.3-2.3   c-0.7-0.5-1.3-1-1.9-1.6c-0.9-0.8-1.8-1.6-2.7-2.5c-1-0.9-1.9-1.9-2.8-2.8c-0.8-0.8-1.6-1.7-2.4-2.6c-0.3-0.3-0.5-0.7-0.7-1   c-0.2-0.3-0.4-0.7-0.4-1.1c0-0.9,0.6-1.8,1.2-2.4c1-1.1,2.2-1.7,3.7-1.6c1.2,0.1,2.6,0.4,3.8,0.9c3,1.2,22.6,18.5,22.6,18.5   s3.2,2.1,3.4,8c0.2,5.9-3.7,32.3-3.7,32.3L56.4,181.5z"></path>
	<path id="XMLID_14_" class="st2" d="M102.9,181.5c0,0-3.9-26.4-3.7-32.3c0.2-5.9,3.4-8,3.4-8s19.6-17.3,22.6-18.5   c1.1-0.5,2.5-0.8,3.8-0.9c1.5-0.1,2.7,0.5,3.7,1.6c0.6,0.6,1.2,1.5,1.2,2.4c0,0.4-0.2,0.8-0.4,1.1c-0.2,0.3-0.5,0.7-0.7,1   c-0.7,0.9-1.5,1.8-2.4,2.6c-0.9,1-1.9,1.9-2.8,2.8c-0.9,0.8-1.8,1.7-2.7,2.5c-0.6,0.5-1.2,1.1-1.9,1.6c-2.3,1.8-1.4,2.4-0.3,2.3   c0.8-0.1,20.1-13.1,21.1-14.2c1.5-1.7,5.3-22.3,9.4-26.2c0.7-0.6,1.5-1.3,2.4-1.6c1.9-0.6,3.5,0.8,4.2,2.5c0.3,0.8,0.2,1.5,0.1,2.4   c-0.1,0.9-0.3,1.9-0.4,2.8c-0.2,1.3-0.4,2.6-0.6,3.8c-0.2,1.5-0.5,3-0.7,4.6c-0.3,1.6-0.5,3.3-0.8,4.9c-0.3,1.6-0.5,3.3-0.8,4.9   c-0.2,1.5-0.4,3-0.7,4.6c-0.2,1.3-0.4,2.6-0.6,3.9c-0.1,0.9-0.2,1.8-0.3,2.8c-0.1,0.6-0.2,1.5-0.6,2c-0.5,0.7-1.1,1.3-1.8,1.9   c-0.8,0.7-1.7,1.4-2.5,2.1c-1.1,0.9-2.1,1.9-3.2,2.8c-1.2,1-2.3,2-3.5,3c-1.2,1-2.4,2.1-3.7,3.2c-1.2,1-2.4,2-3.5,3.1   c-1.1,0.9-2.1,1.9-3.2,2.9c-0.8,0.8-1.7,1.6-2.5,2.4c-0.7,0.7-2.2,2-2.1,3.1c0.1,1,0.6,2.2,1,3.2c0.3,0.9,0.6,1.9,1,2.8   c1.2,3.3,2.5,6.5,3.9,9.7c0.7,1.6,1.4,3.1,2.1,4.7L102.9,181.5z"></path>
	<g id="XMLID_8_">
		<path id="XMLID_13_" class="st0" d="M139.9,96.8v1.8h-5.3c-1.3,4.2,0.3,10.2-2.9,12.9c0-0.1-0.1,0-0.2,0c-0.8,0-1.2,0.3-1.3-0.5    c-0.5-2.7-0.1-7.8-0.5-10.7c-1.3,2.2-0.9,7.5-2.2,9.7c-0.4,0.7-1.2,1-2.1,0.8c-0.2-2.7-0.2-9.5,0.1-11.8c-0.9-1-3.3-0.2-4.9-0.4    c1.7-6.6,2.7-13.4,4.5-19.9c-1.1-0.8-3.1,0.4-4.7-0.5c-2-2.5-3.5-5.6-4.6-8.9c0.1,8.6,3.2,20.5,2.9,29.4h-5.1    c-1.7,4.1-0.3,12.6-1.9,16.8c-0.4,1-2,1.2-2.2,1.4c-0.3,0-0.7-11.1-1.1-16.4c-2.2,5.7-0.9,18.3-3.9,18.4c-0.3,0.2-0.6,0.2-0.7-0.4    c-1-5.3,0.2-13.8-0.6-19.3c-1-1-3.9-0.2-5.7-0.4c2-10.6,3.9-19.9,5.3-30.3c-1.2,1.9-2,4.2-3.5,5.7c-1.9,0.1-1.4-2.1-3.1-2.2    c-1.1,15,0,33.9-0.4,48.2h-0.4c-8.9-5.5-2-26.7-8.3-34.6c-1.3,4.5-1.4,11.1-1.8,17.1c-0.2,3.2-0.1,9.2-1.2,12.4    c-0.8,2.3-2.8,2.4-3.5,2.4c-1.7-0.1-1.6-28.7-1.9-41c-1.7,0.1-3.7,3.6-6.1,4.4c-1.8,0.7-3-2.7-3.5-0.4c1.6,9.7-2.1,20.1-0.8,29.5    c0.1,0.3,0.8,2.4,0.1,3.3c-0.8,0.9-2.3,0.6-4.3-1.4c-3.4-3.4,0.1-13.2-1.5-18.1c-3.9,3.8-1.5,19-4.1,18.8    c-2.6-0.2-2.6-2.2-3.1-4.7c-0.5-2.9-0.8-12.9,0.6-21.3c-1.9-2-3.2-5.4-3.6-8.7c-0.5-5,0.8-10.6,2.3-14.7c2.8-2.2,10.6-3.4,14-0.9    c1.5,3.3,0.5,9.2,2.6,11.8c5.7-4.8,5-16.1,7.5-24.1c4.2-1.9,11.2-2.7,16.2-1.3c3.1,4.1,2,10.8,3.5,17.1c4.8-3.5,0.9-13.1,5.9-15.9    c2.3-1.3,9.6-1.1,10.7-0.2c1.2,0.9,2.4,7.7,3.8,12.6c0.7,2.5,2,10.1,4.6,10.7c2.7,0.5,3.4-3.2,6.6-2.8c3.9,0.4,6.8,0.9,7.9,2.6    c2.2,3.3-0.1,5.4-0.2,9.8C137.3,85.7,139.4,91,139.9,96.8"></path>
		<path id="XMLID_12_" class="st0" d="M131.4,58.1c8.1-3.2,9.2,10,2.4,10.2C128.6,68.5,125.8,60.3,131.4,58.1"></path>
		<path id="XMLID_11_" class="st0" d="M111.8,36.3c4.1,2.2,3.1,9.7-0.9,10.5C103.5,48.4,101,34.3,111.8,36.3"></path>
		<path id="XMLID_10_" class="st0" d="M84.6,34.6c6-2,9.4,6.9,4.4,9.6C82.4,47.9,78.4,36.6,84.6,34.6"></path>
		<path id="XMLID_9_" class="st0" d="M60.1,48.2c8.1-2.9,8.8,10.7,1.3,10.1C56.4,57.9,55.3,49.9,60.1,48.2"></path>
	</g>
	<path id="XMLID_3_" class="st0" d="M139.4,175.2c0.2-0.5,0.5-0.9,0.8-1.2c0.3-0.3,0.7-0.6,1.2-0.8c0.5-0.2,1-0.3,1.5-0.3   c0.5,0,1,0.1,1.5,0.3c0.5,0.2,0.9,0.5,1.2,0.8c0.3,0.3,0.6,0.7,0.8,1.2c0.2,0.5,0.3,1,0.3,1.5c0,0.5-0.1,1-0.3,1.5   c-0.2,0.5-0.5,0.9-0.8,1.2c-0.3,0.3-0.7,0.6-1.2,0.8c-0.5,0.2-0.9,0.3-1.5,0.3c-0.5,0-1-0.1-1.5-0.3c-0.5-0.2-0.9-0.5-1.2-0.8   c-0.3-0.3-0.6-0.7-0.8-1.2c-0.2-0.5-0.3-1-0.3-1.5C139.1,176.1,139.2,175.6,139.4,175.2 M140.1,177.9c0.2,0.4,0.4,0.7,0.7,1   c0.3,0.3,0.6,0.5,1,0.7c0.4,0.2,0.8,0.2,1.2,0.2c0.4,0,0.8-0.1,1.2-0.2c0.4-0.2,0.7-0.4,1-0.7c0.3-0.3,0.5-0.6,0.7-1   c0.2-0.4,0.2-0.8,0.2-1.3c0-0.4-0.1-0.9-0.2-1.3c-0.2-0.4-0.4-0.7-0.7-1c-0.3-0.3-0.6-0.5-1-0.7c-0.4-0.2-0.8-0.2-1.2-0.2   c-0.4,0-0.9,0.1-1.2,0.2c-0.4,0.2-0.7,0.4-1,0.7c-0.3,0.3-0.5,0.6-0.7,1c-0.2,0.4-0.2,0.8-0.2,1.3   C139.8,177.1,139.9,177.5,140.1,177.9 M143.2,174.5c0.5,0,0.9,0.1,1.2,0.3c0.3,0.2,0.4,0.5,0.4,0.9c0,0.4-0.1,0.7-0.3,0.9   c-0.2,0.2-0.5,0.3-0.8,0.3l1.3,1.9h-0.7l-1.2-1.9h-0.7v1.9h-0.7v-4.4H143.2z M142.9,176.4c0.2,0,0.3,0,0.4,0c0.1,0,0.3,0,0.4-0.1   c0.1,0,0.2-0.1,0.3-0.2c0.1-0.1,0.1-0.2,0.1-0.4c0-0.1,0-0.3-0.1-0.4c-0.1-0.1-0.1-0.2-0.2-0.2c-0.1,0-0.2-0.1-0.3-0.1   c-0.1,0-0.2,0-0.3,0h-0.9v1.4H142.9z"></path>
</g>
</svg>