<svg xmlns="http://www.w3.org/2000/svg" xmlns:xlink="http://www.w3.org/1999/xlink" id="Capa_1" x="0px" y="0px" viewBox="0 0 200 200" style="enable-background:new 0 0 200 200;" xml:space="preserve">
<style type="text/css">
	.st0{fill:#FFFFFF;}
	.st1{fill:none;stroke:#2A8B2B;stroke-width:2.1586;stroke-miterlimit:10;}
	.st2{fill:#001C53;}
	.st3{fill:#2A8B2B;}
</style>
<g>
	<circle class="st0" cx="97.9" cy="99.9" r="75.6"></circle>
	<circle class="st1" cx="101.2" cy="99.9" r="75.6"></circle>
</g>
<g>
	<g>
		<path class="st2" d="M33.7,94.5c-0.1,0-0.2,0-0.3-0.1c-0.1-0.1-0.1-0.2-0.1-0.3V83.6c0-0.1,0-0.2,0.1-0.3c0.1-0.1,0.2-0.1,0.3-0.1    h8.9c0.1,0,0.2,0,0.3,0.1c0.1,0.1,0.1,0.2,0.1,0.3v2.1c0,0.1,0,0.2-0.1,0.3c-0.1,0.1-0.2,0.1-0.3,0.1h-5.3v1.4h3.9    c0.1,0,0.2,0,0.3,0.1c0.1,0.1,0.1,0.2,0.1,0.3l0,2.1c0,0.1,0,0.2-0.1,0.3c-0.1,0.1-0.2,0.1-0.3,0.1h-3.9v3.6c0,0.1,0,0.2-0.1,0.3    c-0.1,0.1-0.2,0.1-0.3,0.1H33.7z"></path>
		<path class="st2" d="M44.1,94.5c-0.1,0-0.2,0-0.3-0.1c-0.1-0.1-0.1-0.2-0.1-0.3V83.6c0-0.1,0-0.2,0.1-0.3c0.1-0.1,0.2-0.1,0.3-0.1    h8.4c0.1,0,0.2,0,0.3,0.1c0.1,0.1,0.1,0.2,0.1,0.3v2.1c0,0.1,0,0.2-0.1,0.3c-0.1,0.1-0.2,0.1-0.3,0.1h-4.8v1.2h4.1    c0.1,0,0.2,0,0.3,0.1c0.1,0.1,0.1,0.2,0.1,0.3v2.1c0,0.1,0,0.2-0.1,0.3c-0.1,0.1-0.2,0.1-0.3,0.1l-4.1,0v1.2h5.2    c0.1,0,0.2,0,0.3,0.1c0.1,0.1,0.1,0.2,0.1,0.3v2.1c0,0.1,0,0.2-0.1,0.3c-0.1,0.1-0.2,0.1-0.3,0.1H44.1z"></path>
		<path class="st2" d="M61.3,87.8c0.3,0.4,0.5,0.7,0.8,1.1v-5.3c0-0.1,0-0.2,0.1-0.3c0.1-0.1,0.2-0.1,0.3-0.1h2.8    c0.1,0,0.2,0,0.3,0.1c0.1,0.1,0.1,0.2,0.1,0.3v10.5c0,0.1,0,0.2-0.1,0.3c-0.1,0.1-0.2,0.1-0.3,0.1h-3.2c0,0-0.1,0-0.2-0.1    c-0.1,0-0.1-0.1-0.2-0.1l-4.1-5.5v5.2c0,0.1,0,0.2-0.1,0.3c-0.1,0.1-0.2,0.1-0.3,0.1h-2.8c-0.1,0-0.2,0-0.3-0.1    C54,94.3,54,94.2,54,94.1V83.6c0-0.1,0-0.2,0.1-0.3c0.1-0.1,0.2-0.1,0.3-0.1h3.2c0.1,0,0.1,0,0.2,0.1c0.1,0,0.1,0.1,0.2,0.1    c0.4,0.6,0.8,1.1,1.2,1.7c0.4,0.5,0.8,1.1,1.2,1.6C60.7,87,61,87.4,61.3,87.8z"></path>
		<path class="st2" d="M77.6,94.5c-0.1,0-0.1,0-0.2-0.1c-0.1,0-0.1-0.1-0.2-0.2l-0.7-1.4H71l-0.7,1.4c0,0.1-0.1,0.1-0.2,0.2    c-0.1,0-0.2,0.1-0.2,0.1h-3c-0.2,0-0.3-0.1-0.4-0.2c-0.1-0.1-0.1-0.3,0-0.4l5.9-10.4c0-0.1,0.1-0.1,0.2-0.2c0.1,0,0.2-0.1,0.2-0.1    h2.6c0.1,0,0.1,0,0.2,0.1c0.1,0,0.1,0.1,0.2,0.2l5.6,10.4c0.1,0.2,0.1,0.3,0,0.4c-0.1,0.1-0.2,0.2-0.4,0.2H77.6z M72.4,90.3h2.7    l-1.3-2.5L72.4,90.3z"></path>
		<path class="st2" d="M84.2,88.9c0,0.4,0.1,0.8,0.2,1.2c0.2,0.4,0.4,0.7,0.7,0.9c0.6,0.5,1.5,0.8,2.5,0.8c0.7,0,1.5-0.1,2.2-0.3h0    c0.4-0.1,0.7-0.2,1-0.3c0.3-0.1,0.6-0.2,0.8-0.3c0.2-0.1,0.3,0,0.4,0c0.1,0.1,0.2,0.2,0.2,0.4l0,2.2c0,0.1,0,0.2-0.1,0.2    c-0.1,0.1-0.1,0.1-0.2,0.2c-0.7,0.2-1.4,0.4-2.2,0.5c-0.8,0.1-1.6,0.2-2.5,0.2c-2.1,0-3.8-0.5-5-1.4c-1.3-1-1.9-2.4-1.9-4.2    c0-1,0.1-1.8,0.4-2.6c0.3-0.8,0.7-1.4,1.3-1.9c0.6-0.5,1.3-0.9,2.1-1.2C85,83.1,85.9,83,87,83c0.9,0,1.8,0.1,2.5,0.2    c0.7,0.1,1.4,0.3,1.9,0.4c0.1,0,0.1,0.1,0.2,0.1c0.1,0.1,0.1,0.2,0.1,0.2l0.2,2.1c0,0.2,0,0.3-0.2,0.4c-0.1,0.1-0.3,0.1-0.4,0.1    c-0.4-0.2-1-0.3-1.6-0.5c-0.3-0.1-0.7-0.2-1-0.2c-0.3,0-0.6-0.1-1-0.1c-1.1,0-1.9,0.3-2.5,0.8C84.6,87.1,84.3,87.9,84.2,88.9    L84.2,88.9z"></path>
		<path class="st2" d="M104.7,93.2c-1.1,1-2.8,1.4-5.1,1.4c-2.2,0-3.9-0.5-5.1-1.4c-1.1-1-1.7-2.4-1.7-4.4c0-2,0.6-3.4,1.7-4.4    c1.1-1,2.8-1.5,5.1-1.5c2.2,0,3.9,0.5,5.1,1.5c1.1,1,1.7,2.4,1.7,4.4C106.4,90.8,105.8,92.3,104.7,93.2z M101.7,86.9    c-0.5-0.4-1.2-0.6-2.1-0.6c-0.9,0-1.6,0.2-2.1,0.6c-0.5,0.4-0.7,1-0.7,1.9s0.2,1.5,0.7,1.9c0.5,0.4,1.2,0.6,2.1,0.6    c0.9,0,1.6-0.2,2.1-0.6c0.5-0.4,0.7-1,0.7-1.9S102.2,87.4,101.7,86.9z"></path>
		<path class="st2" d="M116.8,94.5c-0.1,0-0.1,0-0.2-0.1c-0.1,0-0.1-0.1-0.2-0.2l-0.7-1.4h-5.4l-0.7,1.4c0,0.1-0.1,0.1-0.2,0.2    c-0.1,0-0.2,0.1-0.2,0.1h-3c-0.2,0-0.3-0.1-0.4-0.2c-0.1-0.1-0.1-0.3,0-0.4l5.9-10.4c0-0.1,0.1-0.1,0.2-0.2c0.1,0,0.2-0.1,0.2-0.1    h2.6c0.1,0,0.1,0,0.2,0.1c0.1,0,0.1,0.1,0.2,0.2l5.6,10.4c0.1,0.2,0.1,0.3,0,0.4c-0.1,0.1-0.2,0.2-0.4,0.2H116.8z M111.7,90.3h2.7    l-1.3-2.5L111.7,90.3z"></path>
		<path class="st2" d="M123.5,88.9c0,0.4,0.1,0.8,0.2,1.2c0.2,0.4,0.4,0.7,0.7,0.9c0.6,0.5,1.5,0.8,2.5,0.8c0.7,0,1.5-0.1,2.2-0.3h0    c0.4-0.1,0.7-0.2,1-0.3c0.3-0.1,0.6-0.2,0.8-0.3c0.2-0.1,0.3,0,0.4,0c0.1,0.1,0.2,0.2,0.2,0.4l0,2.2c0,0.1,0,0.2-0.1,0.2    c-0.1,0.1-0.1,0.1-0.2,0.2c-0.7,0.2-1.4,0.4-2.2,0.5c-0.8,0.1-1.6,0.2-2.5,0.2c-2.1,0-3.8-0.5-5-1.4c-1.3-1-1.9-2.4-1.9-4.2    c0-1,0.1-1.8,0.4-2.6c0.3-0.8,0.7-1.4,1.3-1.9c0.6-0.5,1.3-0.9,2.1-1.2c0.8-0.3,1.8-0.4,2.9-0.4c0.9,0,1.8,0.1,2.5,0.2    c0.7,0.1,1.4,0.3,1.9,0.4c0.1,0,0.1,0.1,0.2,0.1c0.1,0.1,0.1,0.2,0.1,0.2l0.2,2.1c0,0.2,0,0.3-0.2,0.4c-0.1,0.1-0.3,0.1-0.4,0.1    c-0.4-0.2-1-0.3-1.6-0.5c-0.3-0.1-0.7-0.2-1-0.2c-0.3,0-0.6-0.1-1-0.1c-1.1,0-1.9,0.3-2.5,0.8C123.8,87.1,123.5,87.9,123.5,88.9    L123.5,88.9z"></path>
		<path class="st2" d="M140,90.5v3.6c0,0.1,0,0.2-0.1,0.3c-0.1,0.1-0.2,0.1-0.3,0.1h-3.2c-0.1,0-0.2,0-0.3-0.1    c-0.1-0.1-0.1-0.2-0.1-0.3V83.6c0-0.1,0-0.2,0.1-0.3c0.1-0.1,0.2-0.1,0.3-0.1h7.2c1.2,0,2.2,0.3,3,0.8c0.8,0.6,1.2,1.4,1.2,2.4    c0,1.1-0.3,1.9-1,2.4c-0.2,0.1-0.4,0.2-0.6,0.4c-0.2,0.1-0.5,0.2-0.7,0.3c0.3,0.2,0.6,0.3,0.8,0.5c0.2,0.2,0.4,0.4,0.5,0.6l2,3.3    c0.1,0.2,0.1,0.3,0,0.5c-0.1,0.1-0.2,0.2-0.4,0.2h-3.7c-0.1,0-0.2,0-0.2-0.1c-0.1,0-0.1-0.1-0.2-0.2l-1.8-3.4l0,0    c0,0-0.1-0.1-0.1-0.1c0,0-0.1-0.1-0.1-0.1c-0.1-0.1-0.4-0.1-0.9-0.1H140z M139.9,85.8v2.2h1.7c0.7,0,1.2-0.1,1.6-0.2    c0.4-0.2,0.5-0.5,0.5-0.9c0-0.4-0.1-0.6-0.4-0.8c-0.3-0.2-0.7-0.2-1.2-0.2H139.9z"></path>
		<path class="st2" d="M151.6,91.7c0.1,0,0.2,0,0.2,0.1c0.1,0.1,0.1,0.2,0.1,0.3v2.1c0,0.1,0,0.2-0.1,0.3c-0.1,0.1-0.1,0.1-0.2,0.1    h-1.8c-0.1,0-0.2,0-0.2-0.1c-0.1-0.1-0.1-0.2-0.1-0.3V92c0-0.1,0-0.2,0.1-0.3c0.1-0.1,0.1-0.1,0.2-0.1H151.6z"></path>
		<path class="st2" d="M161,91.1h5.5c0.1,0,0.2,0,0.3,0.1c0.1,0.1,0.1,0.2,0.1,0.3v2.5c0,0.1,0,0.2-0.1,0.3    c-0.1,0.1-0.2,0.1-0.3,0.1h-9c-0.1,0-0.2,0-0.3-0.1c-0.1-0.1-0.1-0.2-0.1-0.3V83.6c0-0.1,0-0.2,0.1-0.3c0.1-0.1,0.2-0.1,0.3-0.1    h3.1c0.1,0,0.2,0,0.3,0.1c0.1,0.1,0.1,0.2,0.1,0.3L161,91.1z"></path>
		<path class="st2" d="M169.6,91.7c0.1,0,0.2,0,0.2,0.1c0.1,0.1,0.1,0.2,0.1,0.3v2.1c0,0.1,0,0.2-0.1,0.3c-0.1,0.1-0.1,0.1-0.2,0.1    h-1.8c-0.1,0-0.2,0-0.2-0.1c-0.1-0.1-0.1-0.2-0.1-0.3V92c0-0.1,0-0.2,0.1-0.3c0.1-0.1,0.1-0.1,0.2-0.1H169.6z"></path>
	</g>
	<g>
		<path class="st2" d="M40,101.3h3v0.7h-2.2v1.6H43v0.7h-2.2v2.6H40V101.3z"></path>
		<path class="st2" d="M46.8,105.1h-2.6c0,0.4,0.1,0.6,0.4,0.8c0.2,0.2,0.5,0.3,0.8,0.3c0.5,0,0.9-0.1,1.3-0.4v0.7    c-0.2,0.1-0.4,0.3-0.7,0.3c-0.2,0.1-0.5,0.1-0.8,0.1c-0.4,0-0.7-0.1-1-0.3c-0.3-0.2-0.5-0.4-0.6-0.7c-0.2-0.3-0.2-0.6-0.2-1    c0-0.6,0.2-1,0.5-1.4c0.3-0.4,0.7-0.5,1.2-0.5c0.5,0,0.9,0.2,1.2,0.5C46.6,104,46.8,104.5,46.8,105.1L46.8,105.1z M44.2,104.7H46    c0-0.3-0.1-0.5-0.3-0.7c-0.2-0.2-0.4-0.2-0.6-0.2s-0.5,0.1-0.6,0.2C44.3,104.2,44.2,104.4,44.2,104.7z"></path>
		<path class="st2" d="M50,101.3h0.7v5.6h-1.6c-0.5,0-1-0.2-1.3-0.5c-0.3-0.3-0.5-0.8-0.5-1.4c0-0.5,0.2-1,0.5-1.3    c0.3-0.3,0.8-0.5,1.3-0.5c0.2,0,0.5,0.1,0.8,0.2V101.3z M50,106.3v-2.3c-0.2-0.1-0.5-0.2-0.7-0.2c-0.4,0-0.7,0.1-0.9,0.4    c-0.2,0.2-0.3,0.6-0.3,1c0,0.4,0.1,0.7,0.3,0.9c0.1,0.1,0.2,0.2,0.4,0.2c0.1,0,0.4,0.1,0.7,0.1H50z"></path>
		<path class="st2" d="M54.9,105.1h-2.6c0,0.4,0.1,0.6,0.4,0.8c0.2,0.2,0.5,0.3,0.8,0.3c0.5,0,0.9-0.1,1.3-0.4v0.7    c-0.2,0.1-0.4,0.3-0.7,0.3c-0.2,0.1-0.5,0.1-0.8,0.1c-0.4,0-0.7-0.1-1-0.3c-0.3-0.2-0.5-0.4-0.6-0.7c-0.2-0.3-0.2-0.6-0.2-1    c0-0.6,0.2-1,0.5-1.4c0.3-0.4,0.7-0.5,1.2-0.5c0.5,0,0.9,0.2,1.2,0.5C54.7,104,54.9,104.5,54.9,105.1L54.9,105.1z M52.3,104.7h1.9    c0-0.3-0.1-0.5-0.3-0.7c-0.2-0.2-0.4-0.2-0.6-0.2c-0.3,0-0.5,0.1-0.6,0.2C52.4,104.2,52.3,104.4,52.3,104.7z"></path>
		<path class="st2" d="M56.4,103.2v0.8l0-0.1c0.4-0.6,0.7-0.9,1.1-0.9c0.3,0,0.6,0.1,0.9,0.4l-0.4,0.6c-0.3-0.2-0.5-0.4-0.7-0.4    c-0.2,0-0.4,0.1-0.6,0.3c-0.2,0.2-0.3,0.5-0.3,0.8v1.9h-0.7v-3.7H56.4z"></path>
		<path class="st2" d="M61.2,104.7v1.6c0,0.1,0,0.2,0.1,0.2c0.1,0,0.2-0.1,0.4-0.2v0.4c-0.2,0.1-0.3,0.2-0.4,0.2    c-0.1,0-0.2,0.1-0.3,0.1c-0.3,0-0.5-0.1-0.6-0.4c-0.3,0.2-0.6,0.4-1,0.4c-0.3,0-0.5-0.1-0.6-0.3c-0.2-0.2-0.3-0.4-0.3-0.6    c0-0.2,0.1-0.4,0.3-0.6c0.2-0.2,0.4-0.3,0.7-0.4l0.9-0.3v-0.2c0-0.4-0.2-0.7-0.7-0.7c-0.4,0-0.8,0.2-1.2,0.6v-0.8    c0.3-0.3,0.7-0.5,1.2-0.5c0.4,0,0.7,0.1,1,0.3c0.1,0.1,0.2,0.2,0.2,0.3c0.1,0.1,0.1,0.2,0.1,0.3C61.2,104.2,61.2,104.4,61.2,104.7    z M60.5,106.2v-1.1l-0.5,0.2c-0.2,0.1-0.4,0.2-0.5,0.3c-0.1,0.1-0.2,0.2-0.2,0.4c0,0.2,0,0.3,0.1,0.4c0.1,0.1,0.2,0.1,0.4,0.1    C60.1,106.5,60.3,106.4,60.5,106.2z"></path>
		<path class="st2" d="M65.2,106v0.7c-0.4,0.1-0.7,0.2-1.1,0.2c-0.6,0-1-0.2-1.4-0.5c-0.3-0.3-0.5-0.8-0.5-1.4c0-0.6,0.2-1,0.5-1.4    c0.3-0.4,0.8-0.5,1.3-0.5c0.2,0,0.4,0,0.5,0.1c0.2,0,0.3,0.1,0.6,0.2v0.8c-0.4-0.2-0.7-0.4-1-0.4c-0.3,0-0.6,0.1-0.8,0.3    c-0.2,0.2-0.3,0.5-0.3,0.9c0,0.4,0.1,0.7,0.3,0.9c0.2,0.2,0.5,0.3,0.9,0.3C64.5,106.3,64.8,106.2,65.2,106z"></path>
		<path class="st2" d="M66.4,101.7c0.1,0,0.2,0,0.3,0.1c0.1,0.1,0.1,0.2,0.1,0.3c0,0.1,0,0.2-0.1,0.3c-0.1,0.1-0.2,0.1-0.3,0.1    c-0.1,0-0.2,0-0.3-0.1c-0.1-0.1-0.1-0.2-0.1-0.3c0-0.1,0-0.2,0.1-0.3C66.1,101.7,66.2,101.7,66.4,101.7z M66,103.2h0.7v3.7H66    V103.2z"></path>
		<path class="st2" d="M69.5,103.2c0.6,0,1,0.2,1.4,0.5c0.4,0.4,0.6,0.8,0.6,1.4c0,0.5-0.2,1-0.6,1.3c-0.4,0.4-0.8,0.5-1.4,0.5    c-0.6,0-1-0.2-1.4-0.5c-0.4-0.4-0.6-0.8-0.6-1.3c0-0.5,0.2-1,0.6-1.3C68.5,103.4,69,103.2,69.5,103.2z M69.5,103.9    c-0.3,0-0.6,0.1-0.9,0.3c-0.2,0.2-0.3,0.5-0.3,0.9c0,0.4,0.1,0.6,0.3,0.9c0.2,0.2,0.5,0.3,0.9,0.3c0.4,0,0.7-0.1,0.9-0.3    c0.2-0.2,0.3-0.5,0.3-0.9c0-0.3-0.1-0.6-0.4-0.9C70.2,104,69.9,103.9,69.5,103.9z M70.4,101.2l-0.9,1.2H69l0.5-1.2H70.4z"></path>
		<path class="st2" d="M73,103.2v0.5c0.3-0.4,0.7-0.5,1.1-0.5c0.2,0,0.4,0.1,0.6,0.2c0.2,0.1,0.3,0.3,0.5,0.5c0.1,0.2,0.2,0.5,0.2,1    v2.1h-0.7v-2.1c0-0.4-0.1-0.6-0.2-0.8c-0.1-0.2-0.3-0.2-0.6-0.2c-0.3,0-0.6,0.2-0.9,0.5v2.6h-0.7v-3.7H73z"></path>
		<path class="st2" d="M83.2,101.3H84v5.6h-0.7l-3.7-4.3v4.3h-0.8v-5.6h0.6l3.8,4.3V101.3z"></path>
		<path class="st2" d="M87.4,104.7v1.6c0,0.1,0,0.2,0.1,0.2c0.1,0,0.2-0.1,0.4-0.2v0.4c-0.2,0.1-0.3,0.2-0.4,0.2    c-0.1,0-0.2,0.1-0.3,0.1c-0.3,0-0.5-0.1-0.6-0.4c-0.3,0.2-0.6,0.4-1,0.4c-0.3,0-0.5-0.1-0.6-0.3c-0.2-0.2-0.3-0.4-0.3-0.6    c0-0.2,0.1-0.4,0.3-0.6c0.2-0.2,0.4-0.3,0.7-0.4l0.9-0.3v-0.2c0-0.4-0.2-0.7-0.7-0.7c-0.4,0-0.8,0.2-1.2,0.6v-0.8    c0.3-0.3,0.7-0.5,1.2-0.5c0.4,0,0.7,0.1,1,0.3c0.1,0.1,0.2,0.2,0.2,0.3c0.1,0.1,0.1,0.2,0.1,0.3C87.4,104.2,87.4,104.4,87.4,104.7    z M86.7,106.2v-1.1l-0.5,0.2c-0.2,0.1-0.4,0.2-0.5,0.3c-0.1,0.1-0.2,0.2-0.2,0.4c0,0.2,0,0.3,0.1,0.4c0.1,0.1,0.2,0.1,0.4,0.1    C86.3,106.5,86.5,106.4,86.7,106.2z"></path>
		<path class="st2" d="M91.3,106v0.7c-0.4,0.1-0.7,0.2-1.1,0.2c-0.6,0-1-0.2-1.4-0.5c-0.3-0.3-0.5-0.8-0.5-1.4c0-0.6,0.2-1,0.5-1.4    c0.3-0.4,0.8-0.5,1.3-0.5c0.2,0,0.4,0,0.5,0.1c0.2,0,0.3,0.1,0.6,0.2v0.8c-0.4-0.2-0.7-0.4-1-0.4c-0.3,0-0.6,0.1-0.8,0.3    c-0.2,0.2-0.3,0.5-0.3,0.9c0,0.4,0.1,0.7,0.3,0.9c0.2,0.2,0.5,0.3,0.9,0.3C90.7,106.3,91,106.2,91.3,106z"></path>
		<path class="st2" d="M92.5,101.7c0.1,0,0.2,0,0.3,0.1c0.1,0.1,0.1,0.2,0.1,0.3c0,0.1,0,0.2-0.1,0.3s-0.2,0.1-0.3,0.1    c-0.1,0-0.2,0-0.3-0.1c-0.1-0.1-0.1-0.2-0.1-0.3c0-0.1,0-0.2,0.1-0.3C92.3,101.7,92.4,101.7,92.5,101.7z M92.2,103.2h0.7v3.7h-0.7    V103.2z"></path>
		<path class="st2" d="M95.7,103.2c0.6,0,1,0.2,1.4,0.5c0.4,0.4,0.6,0.8,0.6,1.4c0,0.5-0.2,1-0.6,1.3c-0.4,0.4-0.8,0.5-1.4,0.5    c-0.6,0-1-0.2-1.4-0.5c-0.4-0.4-0.6-0.8-0.6-1.3c0-0.5,0.2-1,0.6-1.3C94.7,103.4,95.2,103.2,95.7,103.2z M95.7,103.9    c-0.3,0-0.6,0.1-0.9,0.3c-0.2,0.2-0.3,0.5-0.3,0.9c0,0.4,0.1,0.6,0.3,0.9c0.2,0.2,0.5,0.3,0.9,0.3c0.4,0,0.7-0.1,0.9-0.3    c0.2-0.2,0.3-0.5,0.3-0.9c0-0.3-0.1-0.6-0.4-0.9S96,103.9,95.7,103.9z"></path>
		<path class="st2" d="M99.2,103.2v0.5c0.3-0.4,0.7-0.5,1.1-0.5c0.2,0,0.4,0.1,0.6,0.2c0.2,0.1,0.3,0.3,0.5,0.5    c0.1,0.2,0.2,0.5,0.2,1v2.1h-0.7v-2.1c0-0.4-0.1-0.6-0.2-0.8c-0.1-0.2-0.3-0.2-0.6-0.2c-0.3,0-0.6,0.2-0.9,0.5v2.6h-0.7v-3.7H99.2    z"></path>
		<path class="st2" d="M104.9,104.7v1.6c0,0.1,0,0.2,0.1,0.2c0.1,0,0.2-0.1,0.4-0.2v0.4c-0.2,0.1-0.3,0.2-0.4,0.2    c-0.1,0-0.2,0.1-0.3,0.1c-0.3,0-0.5-0.1-0.6-0.4c-0.3,0.2-0.6,0.4-1,0.4c-0.3,0-0.5-0.1-0.6-0.3c-0.2-0.2-0.3-0.4-0.3-0.6    c0-0.2,0.1-0.4,0.2-0.6c0.2-0.2,0.4-0.3,0.7-0.4l0.9-0.3v-0.2c0-0.4-0.2-0.7-0.7-0.7c-0.4,0-0.8,0.2-1.2,0.6v-0.8    c0.3-0.3,0.7-0.5,1.2-0.5c0.4,0,0.7,0.1,1,0.3c0.1,0.1,0.2,0.2,0.2,0.3c0.1,0.1,0.1,0.2,0.1,0.3    C104.9,104.2,104.9,104.4,104.9,104.7z M104.2,106.2v-1.1l-0.5,0.2c-0.2,0.1-0.4,0.2-0.5,0.3c-0.1,0.1-0.2,0.2-0.2,0.4    c0,0.2,0,0.3,0.1,0.4c0.1,0.1,0.2,0.1,0.4,0.1C103.8,106.5,104,106.4,104.2,106.2z"></path>
		<path class="st2" d="M106.1,101.3h0.7v5.6h-0.7V101.3z"></path>
		<path class="st2" d="M112.6,101.3h0.7v5.6h-1.6c-0.5,0-1-0.2-1.3-0.5c-0.3-0.3-0.5-0.8-0.5-1.4c0-0.5,0.2-1,0.5-1.3    c0.3-0.3,0.8-0.5,1.3-0.5c0.2,0,0.5,0.1,0.8,0.2V101.3z M112.6,106.3v-2.3c-0.2-0.1-0.5-0.2-0.7-0.2c-0.4,0-0.7,0.1-0.9,0.4    c-0.2,0.2-0.3,0.6-0.3,1c0,0.4,0.1,0.7,0.3,0.9c0.1,0.1,0.2,0.2,0.4,0.2c0.1,0,0.4,0.1,0.7,0.1H112.6z"></path>
		<path class="st2" d="M117.5,105.1h-2.6c0,0.4,0.1,0.6,0.4,0.8c0.2,0.2,0.5,0.3,0.8,0.3c0.5,0,0.9-0.1,1.3-0.4v0.7    c-0.2,0.1-0.4,0.3-0.7,0.3c-0.2,0.1-0.5,0.1-0.8,0.1c-0.4,0-0.7-0.1-1-0.3c-0.3-0.2-0.5-0.4-0.6-0.7c-0.2-0.3-0.2-0.6-0.2-1    c0-0.6,0.2-1,0.5-1.4c0.3-0.4,0.7-0.5,1.2-0.5c0.5,0,0.9,0.2,1.2,0.5C117.3,104,117.5,104.5,117.5,105.1L117.5,105.1z     M114.9,104.7h1.9c0-0.3-0.1-0.5-0.3-0.7c-0.2-0.2-0.4-0.2-0.6-0.2c-0.3,0-0.5,0.1-0.6,0.2C115.1,104.2,114.9,104.4,114.9,104.7z"></path>
		<path class="st2" d="M125.5,105.6v0.9c-0.6,0.3-1.3,0.5-2,0.5c-0.6,0-1.2-0.1-1.6-0.4c-0.4-0.3-0.8-0.6-1-1    c-0.3-0.4-0.4-0.9-0.4-1.4c0-0.8,0.3-1.5,0.9-2.1c0.6-0.6,1.3-0.8,2.1-0.8c0.6,0,1.2,0.2,2,0.5v0.9c-0.7-0.4-1.3-0.6-1.9-0.6    c-0.6,0-1.2,0.2-1.6,0.6c-0.4,0.4-0.6,0.9-0.6,1.5c0,0.6,0.2,1.1,0.6,1.5c0.4,0.4,0.9,0.6,1.6,0.6    C124.1,106.2,124.8,106,125.5,105.6z"></path>
		<path class="st2" d="M128.1,103.2c0.6,0,1,0.2,1.4,0.5c0.4,0.4,0.6,0.8,0.6,1.4c0,0.5-0.2,1-0.6,1.3c-0.4,0.4-0.8,0.5-1.4,0.5    c-0.6,0-1-0.2-1.4-0.5c-0.4-0.4-0.6-0.8-0.6-1.3c0-0.5,0.2-1,0.6-1.3C127.1,103.4,127.5,103.2,128.1,103.2z M128.1,103.9    c-0.3,0-0.6,0.1-0.9,0.3c-0.2,0.2-0.3,0.5-0.3,0.9c0,0.4,0.1,0.6,0.3,0.9c0.2,0.2,0.5,0.3,0.9,0.3c0.4,0,0.7-0.1,0.9-0.3    c0.2-0.2,0.3-0.5,0.3-0.9c0-0.3-0.1-0.6-0.4-0.9C128.7,104,128.4,103.9,128.1,103.9z"></path>
		<path class="st2" d="M132.6,103.2c0.6,0,1,0.2,1.4,0.5c0.4,0.4,0.6,0.8,0.6,1.4c0,0.5-0.2,1-0.6,1.3c-0.4,0.4-0.8,0.5-1.4,0.5    c-0.6,0-1-0.2-1.4-0.5c-0.4-0.4-0.6-0.8-0.6-1.3c0-0.5,0.2-1,0.6-1.3C131.6,103.4,132.1,103.2,132.6,103.2z M132.6,103.9    c-0.3,0-0.6,0.1-0.9,0.3c-0.2,0.2-0.3,0.5-0.3,0.9c0,0.4,0.1,0.6,0.3,0.9c0.2,0.2,0.5,0.3,0.9,0.3c0.4,0,0.7-0.1,0.9-0.3    c0.2-0.2,0.3-0.5,0.3-0.9c0-0.3-0.1-0.6-0.4-0.9C133.2,104,132.9,103.9,132.6,103.9z"></path>
		<path class="st2" d="M135.3,108.8v-5.6h1.3c0.7,0,1.2,0.2,1.5,0.5c0.4,0.3,0.5,0.8,0.5,1.4c0,0.6-0.2,1-0.5,1.4    c-0.3,0.4-0.8,0.5-1.3,0.5c-0.2,0-0.5-0.1-0.8-0.2v2H135.3z M136.6,103.9h-0.5v2.3c0.2,0.1,0.5,0.2,0.7,0.2c0.3,0,0.6-0.1,0.8-0.4    c0.2-0.2,0.3-0.5,0.3-0.9c0-0.2-0.1-0.5-0.2-0.6c-0.1-0.2-0.2-0.3-0.4-0.4C137.2,103.9,136.9,103.9,136.6,103.9z"></path>
		<path class="st2" d="M142.6,105.1H140c0,0.4,0.1,0.6,0.4,0.8c0.2,0.2,0.5,0.3,0.8,0.3c0.5,0,0.9-0.1,1.3-0.4v0.7    c-0.2,0.1-0.4,0.3-0.7,0.3c-0.2,0.1-0.5,0.1-0.8,0.1c-0.4,0-0.7-0.1-1-0.3c-0.3-0.2-0.5-0.4-0.6-0.7c-0.2-0.3-0.2-0.6-0.2-1    c0-0.6,0.2-1,0.5-1.4c0.3-0.4,0.7-0.5,1.2-0.5c0.5,0,0.9,0.2,1.2,0.5S142.6,104.5,142.6,105.1L142.6,105.1z M140,104.7h1.9    c0-0.3-0.1-0.5-0.3-0.7c-0.2-0.2-0.4-0.2-0.6-0.2c-0.3,0-0.5,0.1-0.6,0.2C140.2,104.2,140.1,104.4,140,104.7z"></path>
		<path class="st2" d="M144.2,103.2v0.8l0-0.1c0.4-0.6,0.7-0.9,1.1-0.9c0.3,0,0.6,0.1,0.9,0.4l-0.4,0.6c-0.3-0.2-0.5-0.4-0.7-0.4    c-0.2,0-0.4,0.1-0.6,0.3c-0.2,0.2-0.3,0.5-0.3,0.8v1.9h-0.7v-3.7H144.2z"></path>
		<path class="st2" d="M149,104.7v1.6c0,0.1,0,0.2,0.1,0.2c0.1,0,0.2-0.1,0.4-0.2v0.4c-0.2,0.1-0.3,0.2-0.4,0.2    c-0.1,0-0.2,0.1-0.3,0.1c-0.3,0-0.5-0.1-0.6-0.4c-0.3,0.2-0.6,0.4-1,0.4c-0.3,0-0.5-0.1-0.6-0.3c-0.2-0.2-0.3-0.4-0.3-0.6    c0-0.2,0.1-0.4,0.2-0.6c0.2-0.2,0.4-0.3,0.7-0.4l0.9-0.3v-0.2c0-0.4-0.2-0.7-0.7-0.7c-0.4,0-0.8,0.2-1.2,0.6v-0.8    c0.3-0.3,0.7-0.5,1.2-0.5c0.4,0,0.7,0.1,1,0.3c0.1,0.1,0.2,0.2,0.2,0.3c0.1,0.1,0.1,0.2,0.1,0.3C149,104.2,149,104.4,149,104.7z     M148.2,106.2v-1.1l-0.5,0.2c-0.2,0.1-0.4,0.2-0.5,0.3c-0.1,0.1-0.2,0.2-0.2,0.4c0,0.2,0,0.3,0.1,0.4c0.1,0.1,0.2,0.1,0.4,0.1    C147.8,106.5,148,106.4,148.2,106.2z"></path>
		<path class="st2" d="M149.6,103.8l1.4-1.3v0.8h1.2v0.7H151v1.8c0,0.4,0.2,0.6,0.5,0.6c0.3,0,0.5-0.1,0.8-0.3v0.7    c-0.3,0.2-0.6,0.2-0.9,0.2c-0.3,0-0.6-0.1-0.8-0.3c-0.1-0.1-0.1-0.1-0.2-0.2c0-0.1-0.1-0.2-0.1-0.3c0-0.1,0-0.3,0-0.7v-1.6    L149.6,103.8L149.6,103.8z"></path>
		<path class="st2" d="M153.3,101.7c0.1,0,0.2,0,0.3,0.1c0.1,0.1,0.1,0.2,0.1,0.3c0,0.1,0,0.2-0.1,0.3c-0.1,0.1-0.2,0.1-0.3,0.1    c-0.1,0-0.2,0-0.3-0.1c-0.1-0.1-0.1-0.2-0.1-0.3c0-0.1,0-0.2,0.1-0.3C153,101.7,153.1,101.7,153.3,101.7z M152.9,103.2h0.7v3.7    h-0.7V103.2z"></path>
		<path class="st2" d="M156.9,103.2h0.8l-1.6,3.7h-0.2l-1.7-3.7h0.8l1,2.3L156.9,103.2z"></path>
		<path class="st2" d="M160.6,104.7v1.6c0,0.1,0,0.2,0.1,0.2c0.1,0,0.2-0.1,0.4-0.2v0.4c-0.2,0.1-0.3,0.2-0.4,0.2    c-0.1,0-0.2,0.1-0.3,0.1c-0.3,0-0.5-0.1-0.6-0.4c-0.3,0.2-0.6,0.4-1,0.4c-0.3,0-0.5-0.1-0.6-0.3c-0.2-0.2-0.3-0.4-0.3-0.6    c0-0.2,0.1-0.4,0.2-0.6c0.2-0.2,0.4-0.3,0.7-0.4l0.9-0.3v-0.2c0-0.4-0.2-0.7-0.7-0.7c-0.4,0-0.8,0.2-1.2,0.6v-0.8    c0.3-0.3,0.7-0.5,1.2-0.5c0.4,0,0.7,0.1,1,0.3c0.1,0.1,0.2,0.2,0.2,0.3c0.1,0.1,0.1,0.2,0.1,0.3    C160.6,104.2,160.6,104.4,160.6,104.7z M159.9,106.2v-1.1l-0.5,0.2c-0.2,0.1-0.4,0.2-0.5,0.3c-0.1,0.1-0.2,0.2-0.2,0.4    c0,0.2,0,0.3,0.1,0.4c0.1,0.1,0.2,0.1,0.4,0.1C159.4,106.5,159.7,106.4,159.9,106.2z"></path>
		<path class="st2" d="M161.6,106.6v-0.8c0.2,0.1,0.4,0.3,0.6,0.4c0.2,0.1,0.4,0.1,0.5,0.1c0.2,0,0.3,0,0.4-0.1    c0.1-0.1,0.2-0.2,0.2-0.3c0-0.1,0-0.2-0.1-0.3c-0.1-0.1-0.2-0.2-0.5-0.3c-0.5-0.3-0.8-0.5-0.9-0.7c-0.1-0.2-0.2-0.4-0.2-0.6    c0-0.3,0.1-0.5,0.3-0.7c0.2-0.2,0.5-0.3,0.9-0.3c0.4,0,0.7,0.1,1.1,0.3v0.7c-0.4-0.3-0.8-0.4-1.1-0.4c-0.1,0-0.3,0-0.3,0.1    c-0.1,0.1-0.1,0.1-0.1,0.2c0,0.1,0,0.2,0.1,0.2c0.1,0.1,0.2,0.2,0.4,0.3l0.3,0.1c0.6,0.3,0.9,0.7,0.9,1.2c0,0.3-0.1,0.5-0.4,0.7    c-0.2,0.2-0.5,0.3-0.9,0.3c-0.2,0-0.4,0-0.6-0.1C162.1,106.9,161.8,106.8,161.6,106.6z"></path>
		<path class="st2" d="M62.8,108.9h0.7v5.6h-1.6c-0.5,0-1-0.2-1.3-0.5c-0.3-0.3-0.5-0.8-0.5-1.4c0-0.5,0.2-1,0.5-1.3    c0.3-0.3,0.8-0.5,1.3-0.5c0.2,0,0.5,0.1,0.8,0.2V108.9z M62.8,113.8v-2.3c-0.2-0.1-0.5-0.2-0.7-0.2c-0.4,0-0.7,0.1-0.9,0.4    c-0.2,0.2-0.3,0.6-0.3,1c0,0.4,0.1,0.7,0.3,0.9c0.1,0.1,0.2,0.2,0.4,0.2c0.1,0,0.4,0.1,0.7,0.1H62.8z"></path>
		<path class="st2" d="M67.6,112.7H65c0,0.4,0.1,0.6,0.4,0.8c0.2,0.2,0.5,0.3,0.8,0.3c0.5,0,0.9-0.1,1.3-0.4v0.7    c-0.2,0.1-0.4,0.3-0.7,0.3c-0.2,0.1-0.5,0.1-0.8,0.1c-0.4,0-0.7-0.1-1-0.3c-0.3-0.2-0.5-0.4-0.6-0.7c-0.2-0.3-0.2-0.6-0.2-1    c0-0.6,0.2-1,0.5-1.4c0.3-0.4,0.7-0.5,1.2-0.5c0.5,0,0.9,0.2,1.2,0.5C67.5,111.6,67.6,112,67.6,112.7L67.6,112.7z M65.1,112.3h1.9    c0-0.3-0.1-0.5-0.3-0.7c-0.2-0.2-0.4-0.2-0.6-0.2c-0.3,0-0.5,0.1-0.6,0.2C65.2,111.7,65.1,112,65.1,112.3z"></path>
		<path class="st2" d="M71.8,108.8h0.6l2.5,5.6H74l-0.7-1.7h-2.4l-0.7,1.7h-0.8L71.8,108.8z M72.9,112.1l-0.9-2l-0.8,2H72.9z"></path>
		<path class="st2" d="M75.3,108.9H76v2.4c0.3-0.4,0.7-0.6,1.1-0.6c0.2,0,0.5,0.1,0.7,0.2c0.2,0.1,0.3,0.3,0.4,0.5    c0.1,0.2,0.1,0.5,0.1,1v2.1h-0.7v-2.3c0-0.3-0.1-0.5-0.2-0.7c-0.1-0.2-0.3-0.2-0.5-0.2c-0.2,0-0.3,0-0.5,0.1    c-0.1,0.1-0.3,0.2-0.5,0.4v2.6h-0.7V108.9z"></path>
		<path class="st2" d="M81.2,110.8c0.6,0,1,0.2,1.4,0.5c0.4,0.4,0.6,0.8,0.6,1.4c0,0.5-0.2,1-0.6,1.3c-0.4,0.4-0.8,0.5-1.4,0.5    c-0.6,0-1-0.2-1.4-0.5c-0.4-0.4-0.6-0.8-0.6-1.3c0-0.5,0.2-1,0.6-1.3C80.2,111,80.6,110.8,81.2,110.8z M81.2,111.4    c-0.3,0-0.6,0.1-0.9,0.3c-0.2,0.2-0.3,0.5-0.3,0.9c0,0.4,0.1,0.6,0.3,0.9c0.2,0.2,0.5,0.3,0.9,0.3c0.4,0,0.7-0.1,0.9-0.3    c0.2-0.2,0.3-0.5,0.3-0.9c0-0.3-0.1-0.6-0.4-0.9C81.8,111.5,81.5,111.4,81.2,111.4z"></path>
		<path class="st2" d="M84.7,110.8v0.8l0-0.1c0.4-0.6,0.7-0.9,1.1-0.9c0.3,0,0.6,0.1,0.9,0.4l-0.4,0.6c-0.3-0.2-0.5-0.4-0.7-0.4    c-0.2,0-0.4,0.1-0.6,0.3c-0.2,0.2-0.3,0.5-0.3,0.8v1.9H84v-3.7H84.7z"></path>
		<path class="st2" d="M87.9,110.8v0.8l0-0.1c0.4-0.6,0.7-0.9,1.1-0.9c0.3,0,0.6,0.1,0.9,0.4l-0.4,0.6c-0.3-0.2-0.5-0.4-0.7-0.4    c-0.2,0-0.4,0.1-0.6,0.3c-0.2,0.2-0.3,0.5-0.3,0.8v1.9h-0.7v-3.7H87.9z"></path>
		<path class="st2" d="M91.9,110.8c0.6,0,1,0.2,1.4,0.5c0.4,0.4,0.6,0.8,0.6,1.4c0,0.5-0.2,1-0.6,1.3c-0.4,0.4-0.8,0.5-1.4,0.5    c-0.6,0-1-0.2-1.4-0.5c-0.4-0.4-0.6-0.8-0.6-1.3c0-0.5,0.2-1,0.6-1.3C90.9,111,91.4,110.8,91.9,110.8z M91.9,111.4    c-0.3,0-0.6,0.1-0.9,0.3c-0.2,0.2-0.3,0.5-0.3,0.9c0,0.4,0.1,0.6,0.3,0.9c0.2,0.2,0.5,0.3,0.9,0.3c0.4,0,0.7-0.1,0.9-0.3    c0.2-0.2,0.3-0.5,0.3-0.9c0-0.3-0.1-0.6-0.4-0.9C92.5,111.5,92.2,111.4,91.9,111.4z"></path>
		<path class="st2" d="M99.2,110.8h0.8l-2.6,5.6h-0.8l1.2-2.7l-1.4-2.9h0.8l1,2.1L99.2,110.8z"></path>
		<path class="st2" d="M107.7,113.2v0.9c-0.6,0.3-1.3,0.5-2,0.5c-0.6,0-1.2-0.1-1.6-0.4c-0.4-0.3-0.8-0.6-1-1    c-0.3-0.4-0.4-0.9-0.4-1.4c0-0.8,0.3-1.5,0.9-2.1c0.6-0.6,1.3-0.8,2.1-0.8c0.6,0,1.2,0.2,2,0.5v0.9c-0.7-0.4-1.3-0.6-1.9-0.6    c-0.6,0-1.2,0.2-1.6,0.6c-0.4,0.4-0.6,0.9-0.6,1.5c0,0.6,0.2,1.1,0.6,1.5c0.4,0.4,0.9,0.6,1.6,0.6    C106.4,113.8,107.1,113.6,107.7,113.2z"></path>
		<path class="st2" d="M109.4,110.8v0.8l0-0.1c0.4-0.6,0.7-0.9,1.1-0.9c0.3,0,0.6,0.1,0.9,0.4l-0.4,0.6c-0.3-0.2-0.5-0.4-0.7-0.4    c-0.2,0-0.4,0.1-0.6,0.3c-0.2,0.2-0.3,0.5-0.3,0.8v1.9h-0.7v-3.7H109.4z"></path>
		<path class="st2" d="M115,112.7h-2.6c0,0.4,0.1,0.6,0.4,0.8c0.2,0.2,0.5,0.3,0.8,0.3c0.5,0,0.9-0.1,1.3-0.4v0.7    c-0.2,0.1-0.4,0.3-0.7,0.3c-0.2,0.1-0.5,0.1-0.8,0.1c-0.4,0-0.7-0.1-1-0.3c-0.3-0.2-0.5-0.4-0.6-0.7c-0.2-0.3-0.2-0.6-0.2-1    c0-0.6,0.2-1,0.5-1.4c0.3-0.4,0.7-0.5,1.2-0.5c0.5,0,0.9,0.2,1.2,0.5C114.9,111.6,115,112,115,112.7L115,112.7z M112.4,112.3h1.9    c0-0.3-0.1-0.5-0.3-0.7c-0.2-0.2-0.4-0.2-0.6-0.2c-0.3,0-0.5,0.1-0.6,0.2C112.6,111.7,112.5,112,112.4,112.3z M114.2,108.8    l-0.9,1.2h-0.4l0.5-1.2H114.2z"></path>
		<path class="st2" d="M118.3,108.9h0.7v5.6h-1.6c-0.5,0-1-0.2-1.3-0.5c-0.3-0.3-0.5-0.8-0.5-1.4c0-0.5,0.2-1,0.5-1.3    c0.3-0.3,0.8-0.5,1.3-0.5c0.2,0,0.5,0.1,0.8,0.2V108.9z M118.3,113.8v-2.3c-0.2-0.1-0.5-0.2-0.7-0.2c-0.4,0-0.7,0.1-0.9,0.4    c-0.2,0.2-0.3,0.6-0.3,1c0,0.4,0.1,0.7,0.3,0.9c0.1,0.1,0.2,0.2,0.4,0.2c0.1,0,0.4,0.1,0.7,0.1H118.3z"></path>
		<path class="st2" d="M120.4,109.2c0.1,0,0.2,0,0.3,0.1c0.1,0.1,0.1,0.2,0.1,0.3c0,0.1,0,0.2-0.1,0.3c-0.1,0.1-0.2,0.1-0.3,0.1    c-0.1,0-0.2,0-0.3-0.1c-0.1-0.1-0.1-0.2-0.1-0.3c0-0.1,0-0.2,0.1-0.3C120.1,109.3,120.2,109.2,120.4,109.2z M120,110.8h0.7v3.7    H120V110.8z"></path>
		<path class="st2" d="M121.3,111.4l1.4-1.3v0.8h1.2v0.7h-1.2v1.8c0,0.4,0.2,0.6,0.5,0.6c0.3,0,0.5-0.1,0.8-0.3v0.7    c-0.3,0.2-0.6,0.2-0.9,0.2c-0.3,0-0.6-0.1-0.8-0.3c-0.1-0.1-0.1-0.1-0.2-0.2c0-0.1-0.1-0.2-0.1-0.3c0-0.1,0-0.3,0-0.7v-1.6    L121.3,111.4L121.3,111.4z"></path>
		<path class="st2" d="M126.3,110.8c0.6,0,1,0.2,1.4,0.5c0.4,0.4,0.6,0.8,0.6,1.4c0,0.5-0.2,1-0.6,1.3c-0.4,0.4-0.8,0.5-1.4,0.5    c-0.6,0-1-0.2-1.4-0.5c-0.4-0.4-0.6-0.8-0.6-1.3c0-0.5,0.2-1,0.6-1.3C125.2,111,125.7,110.8,126.3,110.8z M126.2,111.4    c-0.3,0-0.6,0.1-0.9,0.3c-0.2,0.2-0.3,0.5-0.3,0.9c0,0.4,0.1,0.6,0.3,0.9c0.2,0.2,0.5,0.3,0.9,0.3c0.4,0,0.7-0.1,0.9-0.3    c0.2-0.2,0.3-0.5,0.3-0.9c0-0.3-0.1-0.6-0.4-0.9C126.9,111.5,126.6,111.4,126.2,111.4z"></path>
		<path class="st2" d="M131.4,114.5v-5.6h1.4c0.6,0,1,0.1,1.3,0.4c0.3,0.3,0.5,0.7,0.5,1.1c0,0.3-0.1,0.6-0.2,0.8    c-0.2,0.2-0.4,0.4-0.7,0.5c0.2,0.1,0.4,0.3,0.5,0.5c0.2,0.2,0.4,0.6,0.7,1.1c0.2,0.3,0.4,0.6,0.5,0.7l0.3,0.4h-1l-0.2-0.4    c0,0,0,0,0-0.1l-0.2-0.2l-0.2-0.4l-0.3-0.4c-0.2-0.2-0.3-0.4-0.5-0.5s-0.3-0.2-0.4-0.3c-0.1-0.1-0.3-0.1-0.6-0.1h-0.2v2.4H131.4z     M132.5,109.6h-0.2v1.8h0.3c0.4,0,0.7,0,0.8-0.1c0.2-0.1,0.3-0.2,0.4-0.3c0.1-0.1,0.1-0.3,0.1-0.5c0-0.2,0-0.3-0.1-0.5    c-0.1-0.1-0.2-0.2-0.4-0.3C133.1,109.6,132.9,109.6,132.5,109.6z"></path>
		<path class="st2" d="M136.6,113.6c0.1,0,0.3,0,0.3,0.1c0.1,0.1,0.1,0.2,0.1,0.3c0,0.1,0,0.2-0.1,0.3c-0.1,0.1-0.2,0.1-0.4,0.1    c-0.1,0-0.3,0-0.3-0.1c-0.1-0.1-0.1-0.2-0.1-0.3c0-0.1,0-0.3,0.1-0.3C136.4,113.6,136.5,113.6,136.6,113.6z"></path>
		<path class="st2" d="M139.6,108.9h0.8v4.9h2.5v0.7h-3.3V108.9z"></path>
		<path class="st2" d="M143.9,113.6c0.1,0,0.3,0,0.3,0.1c0.1,0.1,0.1,0.2,0.1,0.3c0,0.1,0,0.2-0.1,0.3c-0.1,0.1-0.2,0.1-0.4,0.1    c-0.1,0-0.3,0-0.3-0.1c-0.1-0.1-0.1-0.2-0.1-0.3c0-0.1,0-0.3,0.1-0.3C143.7,113.6,143.8,113.6,143.9,113.6z"></path>
	</g>
	<rect x="33" y="95.4" class="st3" width="136.9" height="1"></rect>
	<rect x="33" y="97.1" class="st2" width="136.9" height="1"></rect>
</g>
</svg>