<svg xmlns="http://www.w3.org/2000/svg" xmlns:xlink="http://www.w3.org/1999/xlink" id="Capa_1" x="0px" y="0px" viewBox="0 0 200 200" style="enable-background:new 0 0 200 200;" xml:space="preserve">
<style type="text/css">
	.st0{fill:#FFFFFF;}
	.st1{fill:none;stroke:#2A8B2B;stroke-width:2.1586;stroke-miterlimit:10;}
	.st2{fill:#001C53;}
	.st3{fill:#2A8B2B;}
</style>
<g>
	<circle class="st0" cx="668.3" cy="1464.9" r="75.6"></circle>
	<circle class="st1" cx="671.6" cy="1464.9" r="75.6"></circle>
</g>
<g>
	<g>
		<path class="st2" d="M665.6,1461.2c0-3.1,2.5-5.6,5.6-5.6c3.1,0,5.6,2.5,5.6,5.6c0,3.1-2.5,5.6-5.6,5.6    C668.1,1466.7,665.6,1464.2,665.6,1461.2"></path>
		<g>
			<path class="st2" d="M661.3,1473.9c0-0.1,0-0.2,0-0.3l-11.4-19.4c-0.9-1.4-0.5-3.2,0.9-3.9c1.4-0.8,3.2-0.3,4.1,1.1l10,17.2     c1.1,1.7,3.4,3,5.5,3.4l0.1,0l-16.8-27.1c-0.1-0.3-0.4-0.5-0.8-0.7c-0.4-0.2-0.7-0.3-1-0.3h-15.6c-0.6,0-1.1,0.2-1.5,0.6     c-0.4,0.4-0.6,0.9-0.6,1.4v48c0,0.5,0.2,1,0.6,1.4c0.4,0.4,0.9,0.6,1.5,0.6h13.3c0.6,0,1.1-0.2,1.5-0.6c0.4-0.4,0.6-0.9,0.6-1.4     V1468l9.5,17.7V1473.9z"></path>
			<path class="st2" d="M681,1473.9c0-0.1,0-0.2,0-0.3l11.4-19.4c0.9-1.4,0.5-3.2-0.9-3.9c-1.4-0.8-3.2-0.3-4.1,1.1l-10,17.2     c-1.1,1.7-3.4,3-5.5,3.4l-0.1,0l16.8-27.1c0.1-0.3,0.4-0.5,0.8-0.7c0.4-0.2,0.7-0.3,1-0.3h15.6c0.6,0,1.1,0.2,1.5,0.6     c0.4,0.4,0.6,0.9,0.6,1.4v48c0,0.5-0.2,1-0.6,1.4c-0.4,0.4-0.9,0.6-1.5,0.6h-13.3c-0.6,0-1.1-0.2-1.5-0.6     c-0.4-0.4-0.6-0.9-0.6-1.4V1468l-9.5,17.7V1473.9z"></path>
		</g>
	</g>
	<g>
		<path class="st3" d="M640.9,1500.4c-0.1,0-0.1,0-0.2,0.1c-0.1,0-0.1,0.1-0.2,0.2l-3.9,6.4l-4-6.4c0-0.1-0.1-0.1-0.2-0.2    c-0.1,0-0.2-0.1-0.2-0.1h-3.5c-0.1,0-0.2,0-0.3,0.1c-0.1,0.1-0.1,0.2-0.1,0.3v10.9c0,0.1,0,0.2,0.1,0.3c0.1,0.1,0.2,0.1,0.3,0.1h3    c0.1,0,0.2,0,0.3-0.1c0.1-0.1,0.1-0.2,0.1-0.3v-5.9l3.3,6.1c0,0.1,0.1,0.1,0.2,0.2c0.1,0.1,0.2,0.1,0.2,0.1h1.4    c0.1,0,0.1,0,0.2-0.1c0.1-0.1,0.1-0.1,0.2-0.2l3.3-6.1v5.9c0,0.1,0,0.2,0.1,0.3c0.1,0.1,0.2,0.1,0.3,0.1h3c0.1,0,0.2,0,0.3-0.1    c0.1-0.1,0.1-0.2,0.1-0.3v-10.9c0-0.1,0-0.2-0.1-0.3c-0.1-0.1-0.2-0.1-0.3-0.1H640.9z"></path>
		<path class="st2" d="M648.8,1512.2c0.1,0,0.2,0,0.3-0.1c0.1-0.1,0.1-0.2,0.1-0.3v-10.9c0-0.1,0-0.2-0.1-0.3    c-0.1-0.1-0.2-0.1-0.3-0.1H646c-0.1,0-0.2,0-0.3,0.1c-0.1,0.1-0.1,0.2-0.1,0.3v10.9c0,0.1,0,0.2,0.1,0.3c0.1,0.1,0.2,0.1,0.3,0.1    H648.8z"></path>
		<path class="st3" d="M654,1506.3c0-1.1,0.3-1.9,0.9-2.4c0.6-0.6,1.5-0.9,2.6-0.9c0.3,0,0.7,0,1,0.1c0.3,0.1,0.7,0.1,1,0.2    c0.7,0.2,1.3,0.4,1.7,0.5c0.2,0.1,0.3,0,0.4-0.1c0.1-0.1,0.2-0.2,0.2-0.4l-0.2-2.2c0-0.1,0-0.2-0.1-0.2c-0.1-0.1-0.1-0.1-0.2-0.1    c-0.5-0.2-1.2-0.3-2-0.5c-0.8-0.1-1.6-0.2-2.6-0.2c-1.1,0-2.1,0.1-3,0.4c-0.9,0.3-1.6,0.7-2.2,1.2c-0.6,0.5-1.1,1.2-1.4,2    c-0.3,0.8-0.5,1.7-0.5,2.7c0,1.9,0.7,3.4,2,4.4c1.3,1,3,1.5,5.2,1.5c1,0,1.8-0.1,2.7-0.2c0.8-0.1,1.6-0.3,2.3-0.6    c0.1,0,0.2-0.1,0.2-0.2c0.1-0.1,0.1-0.2,0.1-0.2l0-2.3c0-0.2-0.1-0.3-0.2-0.4c-0.1-0.1-0.3-0.1-0.4,0c-0.2,0.1-0.5,0.2-0.8,0.3    c-0.3,0.1-0.7,0.2-1,0.3h0c-0.7,0.2-1.5,0.3-2.2,0.3c-1.1,0-2-0.3-2.7-0.8c-0.3-0.3-0.5-0.6-0.7-0.9    C654.1,1507.2,654,1506.8,654,1506.3L654,1506.3z"></path>
		<path class="st3" d="M672.9,1506.2c0,0.9-0.2,1.5-0.7,1.9c-0.5,0.4-1.2,0.7-2.2,0.7c-0.9,0-1.7-0.2-2.2-0.7    c-0.5-0.4-0.7-1.1-0.7-1.9c0-0.9,0.2-1.5,0.7-1.9c0.5-0.4,1.2-0.7,2.2-0.7c0.9,0,1.7,0.2,2.2,0.7    C672.7,1504.7,672.9,1505.4,672.9,1506.2 M677.1,1506.2c0-2.1-0.6-3.6-1.8-4.6c-1.2-1-3-1.5-5.3-1.5c-2.3,0-4.1,0.5-5.3,1.5    c-1.2,1-1.8,2.5-1.8,4.6s0.6,3.6,1.8,4.6c1.2,1,3,1.5,5.3,1.5c2.3,0,4.1-0.5,5.3-1.5C676.5,1509.8,677.1,1508.3,677.1,1506.2"></path>
		<path class="st3" d="M687.8,1506.2c0,0.9-0.2,1.5-0.7,1.9c-0.5,0.4-1.2,0.7-2.2,0.7c-0.9,0-1.7-0.2-2.2-0.7    c-0.5-0.4-0.7-1.1-0.7-1.9c0-0.9,0.2-1.5,0.7-1.9c0.5-0.4,1.2-0.7,2.2-0.7c0.9,0,1.7,0.2,2.2,0.7    C687.5,1504.7,687.8,1505.4,687.8,1506.2 M692,1506.2c0-2.1-0.6-3.6-1.8-4.6c-1.2-1-3-1.5-5.3-1.5c-2.3,0-4.1,0.5-5.3,1.5    c-1.2,1-1.8,2.5-1.8,4.6s0.6,3.6,1.8,4.6c1.2,1,3,1.5,5.3,1.5c2.3,0,4.1-0.5,5.3-1.5C691.4,1509.8,692,1508.3,692,1506.2"></path>
		<path class="st3" d="M697.6,1503.1c0.5,0,1,0,1.3,0.2c0.3,0.2,0.5,0.5,0.5,0.9c0,0.8-0.6,1.1-1.8,1.1l-0.8,0v-2.1L697.6,1503.1z     M698.3,1508c1.7,0,2.9-0.3,3.7-0.9c0.8-0.6,1.3-1.6,1.3-2.9c0-0.7-0.1-1.2-0.4-1.7c-0.2-0.5-0.6-0.9-1.1-1.2    c-0.5-0.3-1.1-0.5-1.8-0.7c-0.7-0.1-1.6-0.2-2.5-0.2h-4.4c-0.1,0-0.2,0-0.3,0.1c-0.1,0.1-0.1,0.2-0.1,0.3v10.9    c0,0.1,0,0.2,0.1,0.3c0.1,0.1,0.2,0.1,0.3,0.1h3.2c0.1,0,0.2,0,0.3-0.1c0.1-0.1,0.1-0.2,0.1-0.3v-3.8L698.3,1508z"></path>
		<path class="st3" d="M713.6,1512.2c0.1,0,0.2,0,0.3-0.1c0.1-0.1,0.1-0.2,0.1-0.3v-2.2c0-0.1,0-0.2-0.1-0.3    c-0.1-0.1-0.2-0.1-0.3-0.1h-5.5v-1.3l4.3,0c0.1,0,0.2,0,0.3-0.1c0.1-0.1,0.1-0.2,0.1-0.3v-2.2c0-0.1,0-0.2-0.1-0.3    c-0.1-0.1-0.2-0.1-0.3-0.1h-4.3v-1.2h5.1c0.1,0,0.2,0,0.3-0.1c0.1-0.1,0.1-0.2,0.1-0.3v-2.2c0-0.1,0-0.2-0.1-0.3    c-0.1-0.1-0.2-0.1-0.3-0.1h-8.8c-0.1,0-0.2,0-0.3,0.1c-0.1,0.1-0.1,0.2-0.1,0.3v10.9c0,0.1,0,0.2,0.1,0.3c0.1,0.1,0.2,0.1,0.3,0.1    H713.6z"></path>
	</g>
	<rect x="628.1" y="1514.9" class="st2" width="86.2" height="1.1"></rect>
	<g>
		<path class="st2" d="M633.2,1437.1v1.4c-1,0.5-2,0.8-3.3,0.8c-1,0-1.9-0.2-2.6-0.6c-0.7-0.4-1.3-1-1.7-1.7    c-0.4-0.7-0.6-1.5-0.6-2.3c0-1.3,0.5-2.4,1.4-3.3c0.9-0.9,2.1-1.3,3.5-1.3c1,0,2,0.2,3.2,0.7v1.4c-1.1-0.6-2.1-0.9-3.1-0.9    c-1,0-1.9,0.3-2.6,1c-0.7,0.7-1,1.5-1,2.5c0,1,0.3,1.8,1,2.4c0.7,0.6,1.5,1,2.6,1C631,1438.1,632.1,1437.7,633.2,1437.1"></path>
		<path class="st2" d="M639.2,1431.2c-1,0-1.9,0.3-2.6,1c-0.7,0.6-1,1.5-1,2.5c0,1,0.3,1.8,1,2.4c0.7,0.6,1.5,1,2.5,1    c1,0,1.9-0.3,2.5-1c0.7-0.7,1-1.5,1-2.5c0-1-0.3-1.8-1-2.4C641.1,1431.5,640.2,1431.2,639.2,1431.2 M639.2,1430    c1.4,0,2.6,0.4,3.5,1.3c0.9,0.9,1.4,2,1.4,3.3c0,1.3-0.5,2.4-1.4,3.3c-0.9,0.9-2.1,1.3-3.6,1.3c-1.4,0-2.5-0.4-3.4-1.3    c-0.9-0.9-1.4-2-1.4-3.3c0-1.3,0.5-2.5,1.4-3.3C636.6,1430.4,637.8,1430,639.2,1430"></path>
		<path class="st2" d="M650.2,1431.2c-1,0-1.9,0.3-2.6,1c-0.7,0.6-1,1.5-1,2.5c0,1,0.3,1.8,1,2.4c0.7,0.6,1.5,1,2.5,1    c1,0,1.9-0.3,2.5-1c0.7-0.7,1-1.5,1-2.5c0-1-0.3-1.8-1-2.4C652,1431.5,651.2,1431.2,650.2,1431.2 M650.1,1430    c1.4,0,2.6,0.4,3.5,1.3c0.9,0.9,1.4,2,1.4,3.3c0,1.3-0.5,2.4-1.4,3.3c-0.9,0.9-2.1,1.3-3.6,1.3c-1.4,0-2.5-0.4-3.4-1.3    c-0.9-0.9-1.4-2-1.4-3.3c0-1.3,0.5-2.5,1.4-3.3C647.6,1430.4,648.7,1430,650.1,1430"></path>
		<path class="st2" d="M659.2,1431.3h-1.3v2.8h1.4c0.5,0,0.9-0.1,1.2-0.4c0.3-0.2,0.4-0.6,0.4-1.1    C660.9,1431.7,660.3,1431.3,659.2,1431.3 M656.5,1439.2v-9h2.9c0.9,0,1.6,0.2,2.1,0.7c0.5,0.5,0.8,1.1,0.8,1.9    c0,0.5-0.1,1-0.4,1.4c-0.3,0.4-0.6,0.7-1.1,0.9c-0.5,0.2-1.1,0.3-2,0.3h-1v3.9H656.5z"></path>
		<polygon class="st2" points="663.4,1430.1 668.5,1430.1 668.5,1431.3 664.7,1431.3 664.7,1434 668.4,1434 668.4,1435.2     664.7,1435.2 664.7,1438 668.6,1438 668.6,1439.1 663.4,1439.1   "></polygon>
		<path class="st2" d="M671.7,1431.2h-0.4v2.8h0.5c0.7,0,1.1-0.1,1.4-0.2c0.2-0.1,0.4-0.3,0.6-0.5c0.1-0.2,0.2-0.5,0.2-0.8    c0-0.3-0.1-0.5-0.2-0.8c-0.2-0.2-0.4-0.4-0.6-0.5C672.8,1431.3,672.4,1431.2,671.7,1431.2 M670,1439.2v-9h2.3    c0.9,0,1.6,0.2,2.2,0.7c0.5,0.5,0.8,1.1,0.8,1.8c0,0.5-0.1,1-0.4,1.4c-0.3,0.4-0.6,0.7-1.1,0.9c0.3,0.2,0.6,0.4,0.8,0.8    c0.3,0.3,0.7,0.9,1.2,1.7c0.3,0.5,0.6,0.9,0.8,1.2l0.5,0.6h-1.5l-0.4-0.6c0,0,0-0.1-0.1-0.1l-0.3-0.4l-0.4-0.7l-0.4-0.7    c-0.3-0.4-0.5-0.7-0.7-0.9c-0.2-0.2-0.4-0.4-0.6-0.5c-0.2-0.1-0.5-0.1-0.9-0.1h-0.3v3.9H670z"></path>
		<path class="st2" d="M681.4,1432.1l1.5,3.3H680L681.4,1432.1z M680.9,1430.1l-3.9,9.1h1.3l1.1-2.7h3.9l1.2,2.7h1.3l-4.1-9.1H680.9    z"></path>
		<polygon class="st2" points="684.8,1430.1 684.8,1431.3 687.9,1431.3 687.9,1439.2 689.2,1439.2 689.2,1431.3 692.3,1431.3     692.3,1430.1   "></polygon>
		<rect x="693.6" y="1430.1" class="st2" width="1.3" height="9"></rect>
		<polygon class="st2" points="702.6,1430.1 703.9,1430.1 700.1,1439.2 699.8,1439.2 695.9,1430.1 697.2,1430.1 699.9,1436.5   "></polygon>
		<path class="st2" d="M707.2,1432.1l1.5,3.3h-2.8L707.2,1432.1z M706.7,1430.1l-3.9,9.1h1.3l1.1-2.7h3.9l1.2,2.7h1.3l-4.1-9.1    H706.7z"></path>
		<path class="st2" d="M714.9,1435.4l-1-0.6c-0.6-0.4-1.1-0.7-1.3-1.1c-0.3-0.4-0.4-0.8-0.4-1.3c0-0.7,0.2-1.3,0.7-1.7    c0.5-0.4,1.1-0.7,1.9-0.7c0.8,0,1.4,0.2,2.1,0.6v1.5c-0.7-0.6-1.4-0.9-2.1-0.9c-0.4,0-0.8,0.1-1,0.3c-0.3,0.2-0.4,0.4-0.4,0.7    c0,0.3,0.1,0.5,0.3,0.8c0.2,0.2,0.5,0.5,1,0.7l1,0.6c1.1,0.7,1.7,1.5,1.7,2.5c0,0.7-0.2,1.3-0.7,1.8c-0.5,0.5-1.1,0.7-1.9,0.7    c-0.9,0-1.7-0.3-2.4-0.8v-1.6c0.7,0.9,1.5,1.3,2.4,1.3c0.4,0,0.7-0.1,1-0.3c0.3-0.2,0.4-0.5,0.4-0.8    C716.1,1436.4,715.7,1435.9,714.9,1435.4"></path>
	</g>
	<g>
		<path class="st2" d="M665.3,1411.7c1.3,0,2.4,0.4,3.2,1.2c0.8,0.8,1.2,1.8,1.2,3.1c0,1-0.3,2-0.9,3.2c-0.6,1.1-1.6,2.6-3.1,4.5    h4.9v2.5h-9.2v-0.3c1.1-1.3,2-2.5,2.8-3.6c0.8-1.1,1.4-1.9,1.8-2.6c0.4-0.7,0.7-1.3,0.9-1.8c0.2-0.5,0.3-1,0.3-1.5    c0-0.6-0.2-1.2-0.6-1.6c-0.4-0.4-0.9-0.7-1.5-0.7c-1.1,0-2.2,0.6-3.3,1.8v-2.8C662.8,1412.1,664,1411.7,665.3,1411.7z"></path>
		<path class="st2" d="M680.4,1411.9v2.4h-4.5v3.1l0.3,0h0.2c0.9,0,1.6,0.2,2.4,0.6c0.7,0.4,1.3,0.9,1.6,1.6    c0.4,0.7,0.6,1.4,0.6,2.3c0,1.3-0.4,2.4-1.3,3.2c-0.9,0.8-2.1,1.3-3.5,1.3c-1.3,0-2.4-0.3-3.4-0.8v-2.4c1.1,0.6,2.1,1,3,1    c0.8,0,1.4-0.2,1.9-0.6c0.5-0.4,0.8-1,0.8-1.6c0-0.7-0.3-1.3-0.9-1.7c-0.6-0.4-1.4-0.6-2.4-0.6c-0.5,0-1,0.1-1.6,0.2v-7.8H680.4z"></path>
	</g>
</g>
<g id="XMLID_53_">
	<circle id="XMLID_55_" class="st0" cx="100.1" cy="100.8" r="75.6"></circle>
	<circle id="XMLID_54_" class="st1" cx="103.3" cy="100.8" r="75.6"></circle>
</g>
<g id="XMLID_2_">
	<g id="XMLID_48_">
		<path id="XMLID_52_" class="st2" d="M97.3,97.1c0-3.1,2.5-5.6,5.6-5.6c3.1,0,5.6,2.5,5.6,5.6c0,3.1-2.5,5.6-5.6,5.6    C99.8,102.7,97.3,100.2,97.3,97.1"></path>
		<g id="XMLID_49_">
			<path id="XMLID_51_" class="st2" d="M93.1,109.8c0-0.1,0-0.2,0-0.3L81.7,90.2c-0.9-1.4-0.5-3.2,0.9-3.9c1.4-0.8,3.2-0.3,4.1,1.1     l10,17.2c1.1,1.7,3.4,3,5.5,3.4l0.1,0L85.5,80.7c-0.1-0.3-0.4-0.5-0.8-0.7c-0.4-0.2-0.7-0.3-1-0.3H68.2c-0.6,0-1.1,0.2-1.5,0.6     c-0.4,0.4-0.6,0.9-0.6,1.4v48c0,0.5,0.2,1,0.6,1.4c0.4,0.4,0.9,0.6,1.5,0.6h13.3c0.6,0,1.1-0.2,1.5-0.6c0.4-0.4,0.6-0.9,0.6-1.4     v-25.9l9.5,17.7V109.8z"></path>
			<path id="XMLID_50_" class="st2" d="M112.7,109.8c0-0.1,0-0.2,0-0.3l11.4-19.4c0.9-1.4,0.5-3.2-0.9-3.9c-1.4-0.8-3.2-0.3-4.1,1.1     l-10,17.2c-1.1,1.7-3.4,3-5.5,3.4l-0.1,0l16.8-27.1c0.1-0.3,0.4-0.5,0.8-0.7c0.4-0.2,0.7-0.3,1-0.3h15.6c0.6,0,1.1,0.2,1.5,0.6     c0.4,0.4,0.6,0.9,0.6,1.4v48c0,0.5-0.2,1-0.6,1.4c-0.4,0.4-0.9,0.6-1.5,0.6h-13.3c-0.6,0-1.1-0.2-1.5-0.6     c-0.4-0.4-0.6-0.9-0.6-1.4v-25.9l-9.5,17.7V109.8z"></path>
		</g>
	</g>
	<g id="XMLID_34_">
		<path id="XMLID_47_" class="st3" d="M72.6,136.3c-0.1,0-0.1,0-0.2,0.1c-0.1,0-0.1,0.1-0.2,0.2l-3.9,6.4l-4-6.4    c0-0.1-0.1-0.1-0.2-0.2c-0.1,0-0.2-0.1-0.2-0.1h-3.5c-0.1,0-0.2,0-0.3,0.1c-0.1,0.1-0.1,0.2-0.1,0.3v10.9c0,0.1,0,0.2,0.1,0.3    c0.1,0.1,0.2,0.1,0.3,0.1h3c0.1,0,0.2,0,0.3-0.1c0.1-0.1,0.1-0.2,0.1-0.3v-5.9l3.3,6.1c0,0.1,0.1,0.1,0.2,0.2    c0.1,0.1,0.2,0.1,0.2,0.1H69c0.1,0,0.1,0,0.2-0.1c0.1-0.1,0.1-0.1,0.2-0.2l3.3-6.1v5.9c0,0.1,0,0.2,0.1,0.3    c0.1,0.1,0.2,0.1,0.3,0.1h3c0.1,0,0.2,0,0.3-0.1c0.1-0.1,0.1-0.2,0.1-0.3v-10.9c0-0.1,0-0.2-0.1-0.3c-0.1-0.1-0.2-0.1-0.3-0.1    H72.6z"></path>
		<path id="XMLID_46_" class="st2" d="M80.5,148.1c0.1,0,0.2,0,0.3-0.1c0.1-0.1,0.1-0.2,0.1-0.3v-10.9c0-0.1,0-0.2-0.1-0.3    c-0.1-0.1-0.2-0.1-0.3-0.1h-2.8c-0.1,0-0.2,0-0.3,0.1c-0.1,0.1-0.1,0.2-0.1,0.3v10.9c0,0.1,0,0.2,0.1,0.3c0.1,0.1,0.2,0.1,0.3,0.1    H80.5z"></path>
		<path id="XMLID_45_" class="st3" d="M85.7,142.3c0-1.1,0.3-1.9,0.9-2.4c0.6-0.6,1.5-0.9,2.6-0.9c0.3,0,0.7,0,1,0.1    c0.3,0.1,0.7,0.1,1,0.2c0.7,0.2,1.3,0.4,1.7,0.5c0.2,0.1,0.3,0,0.4-0.1c0.1-0.1,0.2-0.2,0.2-0.4l-0.2-2.2c0-0.1,0-0.2-0.1-0.2    c-0.1-0.1-0.1-0.1-0.2-0.1c-0.5-0.2-1.2-0.3-2-0.5c-0.8-0.1-1.6-0.2-2.6-0.2c-1.1,0-2.1,0.1-3,0.4c-0.9,0.3-1.6,0.7-2.2,1.2    c-0.6,0.5-1.1,1.2-1.4,2c-0.3,0.8-0.5,1.7-0.5,2.7c0,1.9,0.7,3.4,2,4.4c1.3,1,3,1.5,5.2,1.5c1,0,1.8-0.1,2.7-0.2    c0.8-0.1,1.6-0.3,2.3-0.6c0.1,0,0.2-0.1,0.2-0.2c0.1-0.1,0.1-0.2,0.1-0.2l0-2.3c0-0.2-0.1-0.3-0.2-0.4c-0.1-0.1-0.3-0.1-0.4,0    c-0.2,0.1-0.5,0.2-0.8,0.3c-0.3,0.1-0.7,0.2-1,0.3h0c-0.7,0.2-1.5,0.3-2.2,0.3c-1.1,0-2-0.3-2.7-0.8c-0.3-0.3-0.5-0.6-0.7-0.9    C85.8,143.2,85.7,142.7,85.7,142.3L85.7,142.3z"></path>
		<path id="XMLID_42_" class="st3" d="M104.7,142.2c0,0.9-0.2,1.5-0.7,1.9c-0.5,0.4-1.2,0.7-2.2,0.7c-0.9,0-1.7-0.2-2.2-0.7    c-0.5-0.4-0.7-1.1-0.7-1.9c0-0.9,0.2-1.5,0.7-1.9c0.5-0.4,1.2-0.7,2.2-0.7c0.9,0,1.7,0.2,2.2,0.7    C104.4,140.7,104.7,141.3,104.7,142.2 M108.8,142.2c0-2.1-0.6-3.6-1.8-4.6c-1.2-1-3-1.5-5.3-1.5c-2.3,0-4.1,0.5-5.3,1.5    c-1.2,1-1.8,2.5-1.8,4.6c0,2.1,0.6,3.6,1.8,4.6c1.2,1,3,1.5,5.3,1.5c2.3,0,4.1-0.5,5.3-1.5C108.2,145.8,108.8,144.2,108.8,142.2"></path>
		<path id="XMLID_39_" class="st3" d="M119.5,142.2c0,0.9-0.2,1.5-0.7,1.9c-0.5,0.4-1.2,0.7-2.2,0.7c-0.9,0-1.7-0.2-2.2-0.7    c-0.5-0.4-0.7-1.1-0.7-1.9c0-0.9,0.2-1.5,0.7-1.9c0.5-0.4,1.2-0.7,2.2-0.7c0.9,0,1.7,0.2,2.2,0.7    C119.3,140.7,119.5,141.3,119.5,142.2 M123.7,142.2c0-2.1-0.6-3.6-1.8-4.6c-1.2-1-3-1.5-5.3-1.5s-4.1,0.5-5.3,1.5    c-1.2,1-1.8,2.5-1.8,4.6c0,2.1,0.6,3.6,1.8,4.6c1.2,1,3,1.5,5.3,1.5s4.1-0.5,5.3-1.5C123.1,145.8,123.7,144.2,123.7,142.2"></path>
		<path id="XMLID_36_" class="st3" d="M129.3,139c0.5,0,1,0,1.3,0.2c0.3,0.2,0.5,0.5,0.5,0.9c0,0.8-0.6,1.1-1.8,1.1l-0.8,0v-2.1    L129.3,139z M130,143.9c1.7,0,2.9-0.3,3.7-0.9c0.8-0.6,1.3-1.6,1.3-2.9c0-0.7-0.1-1.2-0.4-1.7c-0.2-0.5-0.6-0.9-1.1-1.2    c-0.5-0.3-1.1-0.5-1.8-0.7c-0.7-0.1-1.6-0.2-2.5-0.2h-4.4c-0.1,0-0.2,0-0.3,0.1c-0.1,0.1-0.1,0.2-0.1,0.3v10.9    c0,0.1,0,0.2,0.1,0.3c0.1,0.1,0.2,0.1,0.3,0.1h3.2c0.1,0,0.2,0,0.3-0.1c0.1-0.1,0.1-0.2,0.1-0.3v-3.8L130,143.9z"></path>
		<path id="XMLID_35_" class="st3" d="M145.4,148.1c0.1,0,0.2,0,0.3-0.1c0.1-0.1,0.1-0.2,0.1-0.3v-2.2c0-0.1,0-0.2-0.1-0.3    c-0.1-0.1-0.2-0.1-0.3-0.1h-5.5v-1.3l4.3,0c0.1,0,0.2,0,0.3-0.1c0.1-0.1,0.1-0.2,0.1-0.3v-2.2c0-0.1,0-0.2-0.1-0.3    c-0.1-0.1-0.2-0.1-0.3-0.1h-4.3v-1.2h5.1c0.1,0,0.2,0,0.3-0.1c0.1-0.1,0.1-0.2,0.1-0.3v-2.2c0-0.1,0-0.2-0.1-0.3    c-0.1-0.1-0.2-0.1-0.3-0.1h-8.8c-0.1,0-0.2,0-0.3,0.1c-0.1,0.1-0.1,0.2-0.1,0.3v10.9c0,0.1,0,0.2,0.1,0.3c0.1,0.1,0.2,0.1,0.3,0.1    H145.4z"></path>
	</g>
	<rect id="XMLID_33_" x="59.8" y="150.8" class="st2" width="86.2" height="1.1"></rect>
	<g id="XMLID_8_">
		<path id="XMLID_32_" class="st2" d="M64.9,73v1.4c-1,0.5-2,0.8-3.3,0.8c-1,0-1.9-0.2-2.6-0.6c-0.7-0.4-1.3-1-1.7-1.7    c-0.4-0.7-0.6-1.5-0.6-2.3c0-1.3,0.5-2.4,1.4-3.3c0.9-0.9,2.1-1.3,3.5-1.3c1,0,2,0.2,3.2,0.7v1.4c-1.1-0.6-2.1-0.9-3.1-0.9    c-1,0-1.9,0.3-2.6,1c-0.7,0.7-1,1.5-1,2.5c0,1,0.3,1.8,1,2.4c0.7,0.6,1.5,1,2.6,1C62.8,74,63.8,73.7,64.9,73"></path>
		<path id="XMLID_29_" class="st2" d="M71,67.2c-1,0-1.9,0.3-2.6,1c-0.7,0.6-1,1.5-1,2.5c0,1,0.3,1.8,1,2.4c0.7,0.6,1.5,1,2.5,1    c1,0,1.9-0.3,2.5-1c0.7-0.7,1-1.5,1-2.5c0-1-0.3-1.8-1-2.4C72.8,67.5,72,67.2,71,67.2 M70.9,65.9c1.4,0,2.6,0.4,3.5,1.3    c0.9,0.9,1.4,2,1.4,3.3c0,1.3-0.5,2.4-1.4,3.3c-0.9,0.9-2.1,1.3-3.6,1.3c-1.4,0-2.5-0.4-3.4-1.3c-0.9-0.9-1.4-2-1.4-3.3    c0-1.3,0.5-2.5,1.4-3.3C68.4,66.4,69.5,65.9,70.9,65.9"></path>
		<path id="XMLID_26_" class="st2" d="M81.9,67.2c-1,0-1.9,0.3-2.6,1c-0.7,0.6-1,1.5-1,2.5c0,1,0.3,1.8,1,2.4c0.7,0.6,1.5,1,2.5,1    c1,0,1.9-0.3,2.5-1c0.7-0.7,1-1.5,1-2.5c0-1-0.3-1.8-1-2.4C83.7,67.5,82.9,67.2,81.9,67.2 M81.8,65.9c1.4,0,2.6,0.4,3.5,1.3    c0.9,0.9,1.4,2,1.4,3.3c0,1.3-0.5,2.4-1.4,3.3c-0.9,0.9-2.1,1.3-3.6,1.3c-1.4,0-2.5-0.4-3.4-1.3c-0.9-0.9-1.4-2-1.4-3.3    c0-1.3,0.5-2.5,1.4-3.3C79.3,66.4,80.4,65.9,81.8,65.9"></path>
		<path id="XMLID_23_" class="st2" d="M90.9,67.2h-1.3V70H91c0.5,0,0.9-0.1,1.2-0.4c0.3-0.2,0.4-0.6,0.4-1.1    C92.6,67.7,92.1,67.2,90.9,67.2 M88.3,75.1v-9h2.9c0.9,0,1.6,0.2,2.1,0.7c0.5,0.5,0.8,1.1,0.8,1.9c0,0.5-0.1,1-0.4,1.4    c-0.3,0.4-0.6,0.7-1.1,0.9c-0.5,0.2-1.1,0.3-2,0.3h-1v3.9H88.3z"></path>
		<polygon id="XMLID_22_" class="st2" points="95.1,66.1 100.2,66.1 100.2,67.2 96.4,67.2 96.4,70 100.1,70 100.1,71.1 96.4,71.1     96.4,73.9 100.4,73.9 100.4,75.1 95.1,75.1   "></polygon>
		<path id="XMLID_19_" class="st2" d="M103.5,67.2h-0.4V70h0.5c0.7,0,1.1-0.1,1.4-0.2c0.2-0.1,0.4-0.3,0.6-0.5    c0.1-0.2,0.2-0.5,0.2-0.8c0-0.3-0.1-0.5-0.2-0.8c-0.2-0.2-0.4-0.4-0.6-0.5C104.5,67.2,104.1,67.2,103.5,67.2 M101.8,75.1v-9h2.3    c0.9,0,1.6,0.2,2.2,0.7c0.5,0.5,0.8,1.1,0.8,1.8c0,0.5-0.1,1-0.4,1.4c-0.3,0.4-0.6,0.7-1.1,0.9c0.3,0.2,0.6,0.4,0.8,0.8    c0.3,0.3,0.7,0.9,1.2,1.7c0.3,0.5,0.6,0.9,0.8,1.2l0.5,0.6h-1.5l-0.4-0.6c0,0,0-0.1-0.1-0.1l-0.3-0.4l-0.4-0.7l-0.4-0.7    c-0.3-0.4-0.5-0.7-0.7-0.9c-0.2-0.2-0.4-0.4-0.6-0.5c-0.2-0.1-0.5-0.1-0.9-0.1h-0.3v3.9H101.8z"></path>
		<path id="XMLID_16_" class="st2" d="M113.1,68l1.5,3.3h-2.8L113.1,68z M112.6,66l-3.9,9.1h1.3l1.1-2.7h3.9l1.2,2.7h1.3l-4.1-9.1    H112.6z"></path>
		<polygon id="XMLID_15_" class="st2" points="116.5,66 116.5,67.2 119.6,67.2 119.6,75.1 120.9,75.1 120.9,67.2 124.1,67.2     124.1,66   "></polygon>
		<rect id="XMLID_14_" x="125.3" y="66.1" class="st2" width="1.3" height="9"></rect>
		<polygon id="XMLID_13_" class="st2" points="134.3,66.1 135.6,66.1 131.8,75.1 131.5,75.1 127.6,66.1 128.9,66.1 131.6,72.4   "></polygon>
		<path id="XMLID_10_" class="st2" d="M138.9,68l1.5,3.3h-2.8L138.9,68z M138.5,66l-3.9,9.1h1.3l1.1-2.7h3.9l1.2,2.7h1.3l-4.1-9.1    H138.5z"></path>
		<path id="XMLID_9_" class="st2" d="M146.7,71.3l-1-0.6c-0.6-0.4-1.1-0.7-1.3-1.1c-0.3-0.4-0.4-0.8-0.4-1.3c0-0.7,0.2-1.3,0.7-1.7    c0.5-0.4,1.1-0.7,1.9-0.7c0.8,0,1.4,0.2,2.1,0.6V68c-0.7-0.6-1.4-0.9-2.1-0.9c-0.4,0-0.8,0.1-1,0.3c-0.3,0.2-0.4,0.4-0.4,0.7    c0,0.3,0.1,0.5,0.3,0.8c0.2,0.2,0.5,0.5,1,0.7l1,0.6c1.1,0.7,1.7,1.5,1.7,2.5c0,0.7-0.2,1.3-0.7,1.8c-0.5,0.5-1.1,0.7-1.9,0.7    c-0.9,0-1.7-0.3-2.4-0.8v-1.6c0.7,0.9,1.5,1.3,2.4,1.3c0.4,0,0.7-0.1,1-0.3c0.3-0.2,0.4-0.5,0.4-0.8    C147.9,72.3,147.5,71.8,146.7,71.3"></path>
	</g>
	<g id="XMLID_3_">
		<path id="XMLID_6_" class="st2" d="M97,47.6c1.3,0,2.4,0.4,3.2,1.2c0.8,0.8,1.2,1.8,1.2,3.1c0,1-0.3,2-0.9,3.2    c-0.6,1.1-1.6,2.6-3.1,4.5h4.9V62h-9.2v-0.3c1.1-1.3,2-2.5,2.8-3.6c0.8-1.1,1.4-1.9,1.8-2.6c0.4-0.7,0.7-1.3,0.9-1.8    c0.2-0.5,0.3-1,0.3-1.5c0-0.6-0.2-1.2-0.6-1.6c-0.4-0.4-0.9-0.7-1.5-0.7c-1.1,0-2.2,0.6-3.3,1.8V49C94.5,48.1,95.8,47.6,97,47.6z"></path>
		<path id="XMLID_4_" class="st2" d="M112.1,47.8v2.4h-4.5v3.1l0.3,0h0.2c0.9,0,1.6,0.2,2.4,0.6c0.7,0.4,1.3,0.9,1.6,1.6    s0.6,1.4,0.6,2.3c0,1.3-0.4,2.4-1.3,3.2c-0.9,0.8-2.1,1.3-3.5,1.3c-1.3,0-2.4-0.3-3.4-0.8V59c1.1,0.6,2.1,1,3,1    c0.8,0,1.4-0.2,1.9-0.6c0.5-0.4,0.8-1,0.8-1.6c0-0.7-0.3-1.3-0.9-1.7c-0.6-0.4-1.4-0.6-2.4-0.6c-0.5,0-1,0.1-1.6,0.2v-7.8H112.1z"></path>
	</g>
</g>
</svg>