<svg xmlns="http://www.w3.org/2000/svg" xmlns:xlink="http://www.w3.org/1999/xlink" id="Capa_1" x="0px" y="0px" viewBox="0 0 200 200" style="enable-background:new 0 0 200 200;" xml:space="preserve">
<style type="text/css">
	.st0{fill:#FFFFFF;}
	.st1{fill:none;stroke:#2A8B2B;stroke-width:2.1586;stroke-miterlimit:10;}
	.st2{fill:#001C53;}
	.st3{fill:#2A8B2B;}
	.st4{fill-rule:evenodd;clip-rule:evenodd;fill:#FFFFFF;}
	.st5{fill-rule:evenodd;clip-rule:evenodd;fill:#001C53;}
</style>
<g>
	<circle class="st0" cx="668.3" cy="1464.9" r="75.6"></circle>
	<circle class="st1" cx="671.6" cy="1464.9" r="75.6"></circle>
</g>
<g>
	<g>
		<path class="st2" d="M665.6,1461.2c0-3.1,2.5-5.6,5.6-5.6c3.1,0,5.6,2.5,5.6,5.6c0,3.1-2.5,5.6-5.6,5.6    C668.1,1466.7,665.6,1464.2,665.6,1461.2"></path>
		<g>
			<path class="st2" d="M661.3,1473.9c0-0.1,0-0.2,0-0.3l-11.4-19.4c-0.9-1.4-0.5-3.2,0.9-3.9c1.4-0.8,3.2-0.3,4.1,1.1l10,17.2     c1.1,1.7,3.4,3,5.5,3.4l0.1,0l-16.8-27.1c-0.1-0.3-0.4-0.5-0.8-0.7c-0.4-0.2-0.7-0.3-1-0.3h-15.6c-0.6,0-1.1,0.2-1.5,0.6     c-0.4,0.4-0.6,0.9-0.6,1.4v48c0,0.5,0.2,1,0.6,1.4c0.4,0.4,0.9,0.6,1.5,0.6h13.3c0.6,0,1.1-0.2,1.5-0.6c0.4-0.4,0.6-0.9,0.6-1.4     V1468l9.5,17.7V1473.9z"></path>
			<path class="st2" d="M681,1473.9c0-0.1,0-0.2,0-0.3l11.4-19.4c0.9-1.4,0.5-3.2-0.9-3.9c-1.4-0.8-3.2-0.3-4.1,1.1l-10,17.2     c-1.1,1.7-3.4,3-5.5,3.4l-0.1,0l16.8-27.1c0.1-0.3,0.4-0.5,0.8-0.7c0.4-0.2,0.7-0.3,1-0.3h15.6c0.6,0,1.1,0.2,1.5,0.6     c0.4,0.4,0.6,0.9,0.6,1.4v48c0,0.5-0.2,1-0.6,1.4c-0.4,0.4-0.9,0.6-1.5,0.6h-13.3c-0.6,0-1.1-0.2-1.5-0.6     c-0.4-0.4-0.6-0.9-0.6-1.4V1468l-9.5,17.7V1473.9z"></path>
		</g>
	</g>
	<g>
		<path class="st3" d="M640.9,1500.4c-0.1,0-0.1,0-0.2,0.1c-0.1,0-0.1,0.1-0.2,0.2l-3.9,6.4l-4-6.4c0-0.1-0.1-0.1-0.2-0.2    c-0.1,0-0.2-0.1-0.2-0.1h-3.5c-0.1,0-0.2,0-0.3,0.1c-0.1,0.1-0.1,0.2-0.1,0.3v10.9c0,0.1,0,0.2,0.1,0.3c0.1,0.1,0.2,0.1,0.3,0.1h3    c0.1,0,0.2,0,0.3-0.1c0.1-0.1,0.1-0.2,0.1-0.3v-5.9l3.3,6.1c0,0.1,0.1,0.1,0.2,0.2c0.1,0.1,0.2,0.1,0.2,0.1h1.4    c0.1,0,0.1,0,0.2-0.1c0.1-0.1,0.1-0.1,0.2-0.2l3.3-6.1v5.9c0,0.1,0,0.2,0.1,0.3c0.1,0.1,0.2,0.1,0.3,0.1h3c0.1,0,0.2,0,0.3-0.1    c0.1-0.1,0.1-0.2,0.1-0.3v-10.9c0-0.1,0-0.2-0.1-0.3c-0.1-0.1-0.2-0.1-0.3-0.1H640.9z"></path>
		<path class="st2" d="M648.8,1512.2c0.1,0,0.2,0,0.3-0.1c0.1-0.1,0.1-0.2,0.1-0.3v-10.9c0-0.1,0-0.2-0.1-0.3    c-0.1-0.1-0.2-0.1-0.3-0.1H646c-0.1,0-0.2,0-0.3,0.1c-0.1,0.1-0.1,0.2-0.1,0.3v10.9c0,0.1,0,0.2,0.1,0.3c0.1,0.1,0.2,0.1,0.3,0.1    H648.8z"></path>
		<path class="st3" d="M654,1506.3c0-1.1,0.3-1.9,0.9-2.4c0.6-0.6,1.5-0.9,2.6-0.9c0.3,0,0.7,0,1,0.1c0.3,0.1,0.7,0.1,1,0.2    c0.7,0.2,1.3,0.4,1.7,0.5c0.2,0.1,0.3,0,0.4-0.1c0.1-0.1,0.2-0.2,0.2-0.4l-0.2-2.2c0-0.1,0-0.2-0.1-0.2c-0.1-0.1-0.1-0.1-0.2-0.1    c-0.5-0.2-1.2-0.3-2-0.5c-0.8-0.1-1.6-0.2-2.6-0.2c-1.1,0-2.1,0.1-3,0.4c-0.9,0.3-1.6,0.7-2.2,1.2c-0.6,0.5-1.1,1.2-1.4,2    c-0.3,0.8-0.5,1.7-0.5,2.7c0,1.9,0.7,3.4,2,4.4c1.3,1,3,1.5,5.2,1.5c1,0,1.8-0.1,2.7-0.2c0.8-0.1,1.6-0.3,2.3-0.6    c0.1,0,0.2-0.1,0.2-0.2c0.1-0.1,0.1-0.2,0.1-0.2l0-2.3c0-0.2-0.1-0.3-0.2-0.4c-0.1-0.1-0.3-0.1-0.4,0c-0.2,0.1-0.5,0.2-0.8,0.3    c-0.3,0.1-0.7,0.2-1,0.3h0c-0.7,0.2-1.5,0.3-2.2,0.3c-1.1,0-2-0.3-2.7-0.8c-0.3-0.3-0.5-0.6-0.7-0.9    C654.1,1507.2,654,1506.8,654,1506.3L654,1506.3z"></path>
		<path class="st3" d="M672.9,1506.2c0,0.9-0.2,1.5-0.7,1.9c-0.5,0.4-1.2,0.7-2.2,0.7c-0.9,0-1.7-0.2-2.2-0.7    c-0.5-0.4-0.7-1.1-0.7-1.9c0-0.9,0.2-1.5,0.7-1.9c0.5-0.4,1.2-0.7,2.2-0.7c0.9,0,1.7,0.2,2.2,0.7    C672.7,1504.7,672.9,1505.4,672.9,1506.2 M677.1,1506.2c0-2.1-0.6-3.6-1.8-4.6c-1.2-1-3-1.5-5.3-1.5c-2.3,0-4.1,0.5-5.3,1.5    c-1.2,1-1.8,2.5-1.8,4.6s0.6,3.6,1.8,4.6c1.2,1,3,1.5,5.3,1.5c2.3,0,4.1-0.5,5.3-1.5C676.5,1509.8,677.1,1508.3,677.1,1506.2"></path>
		<path class="st3" d="M687.8,1506.2c0,0.9-0.2,1.5-0.7,1.9c-0.5,0.4-1.2,0.7-2.2,0.7c-0.9,0-1.7-0.2-2.2-0.7    c-0.5-0.4-0.7-1.1-0.7-1.9c0-0.9,0.2-1.5,0.7-1.9c0.5-0.4,1.2-0.7,2.2-0.7c0.9,0,1.7,0.2,2.2,0.7    C687.5,1504.7,687.8,1505.4,687.8,1506.2 M692,1506.2c0-2.1-0.6-3.6-1.8-4.6c-1.2-1-3-1.5-5.3-1.5c-2.3,0-4.1,0.5-5.3,1.5    c-1.2,1-1.8,2.5-1.8,4.6s0.6,3.6,1.8,4.6c1.2,1,3,1.5,5.3,1.5c2.3,0,4.1-0.5,5.3-1.5C691.4,1509.8,692,1508.3,692,1506.2"></path>
		<path class="st3" d="M697.6,1503.1c0.5,0,1,0,1.3,0.2c0.3,0.2,0.5,0.5,0.5,0.9c0,0.8-0.6,1.1-1.8,1.1l-0.8,0v-2.1L697.6,1503.1z     M698.3,1508c1.7,0,2.9-0.3,3.7-0.9c0.8-0.6,1.3-1.6,1.3-2.9c0-0.7-0.1-1.2-0.4-1.7c-0.2-0.5-0.6-0.9-1.1-1.2    c-0.5-0.3-1.1-0.5-1.8-0.7c-0.7-0.1-1.6-0.2-2.5-0.2h-4.4c-0.1,0-0.2,0-0.3,0.1c-0.1,0.1-0.1,0.2-0.1,0.3v10.9    c0,0.1,0,0.2,0.1,0.3c0.1,0.1,0.2,0.1,0.3,0.1h3.2c0.1,0,0.2,0,0.3-0.1c0.1-0.1,0.1-0.2,0.1-0.3v-3.8L698.3,1508z"></path>
		<path class="st3" d="M713.6,1512.2c0.1,0,0.2,0,0.3-0.1c0.1-0.1,0.1-0.2,0.1-0.3v-2.2c0-0.1,0-0.2-0.1-0.3    c-0.1-0.1-0.2-0.1-0.3-0.1h-5.5v-1.3l4.3,0c0.1,0,0.2,0,0.3-0.1c0.1-0.1,0.1-0.2,0.1-0.3v-2.2c0-0.1,0-0.2-0.1-0.3    c-0.1-0.1-0.2-0.1-0.3-0.1h-4.3v-1.2h5.1c0.1,0,0.2,0,0.3-0.1c0.1-0.1,0.1-0.2,0.1-0.3v-2.2c0-0.1,0-0.2-0.1-0.3    c-0.1-0.1-0.2-0.1-0.3-0.1h-8.8c-0.1,0-0.2,0-0.3,0.1c-0.1,0.1-0.1,0.2-0.1,0.3v10.9c0,0.1,0,0.2,0.1,0.3c0.1,0.1,0.2,0.1,0.3,0.1    H713.6z"></path>
	</g>
	<rect x="628.1" y="1514.9" class="st2" width="86.2" height="1.1"></rect>
	<g>
		<path class="st2" d="M633.2,1437.1v1.4c-1,0.5-2,0.8-3.3,0.8c-1,0-1.9-0.2-2.6-0.6c-0.7-0.4-1.3-1-1.7-1.7    c-0.4-0.7-0.6-1.5-0.6-2.3c0-1.3,0.5-2.4,1.4-3.3c0.9-0.9,2.1-1.3,3.5-1.3c1,0,2,0.2,3.2,0.7v1.4c-1.1-0.6-2.1-0.9-3.1-0.9    c-1,0-1.9,0.3-2.6,1c-0.7,0.7-1,1.5-1,2.5c0,1,0.3,1.8,1,2.4c0.7,0.6,1.5,1,2.6,1C631,1438.1,632.1,1437.7,633.2,1437.1"></path>
		<path class="st2" d="M639.2,1431.2c-1,0-1.9,0.3-2.6,1c-0.7,0.6-1,1.5-1,2.5c0,1,0.3,1.8,1,2.4c0.7,0.6,1.5,1,2.5,1    c1,0,1.9-0.3,2.5-1c0.7-0.7,1-1.5,1-2.5c0-1-0.3-1.8-1-2.4C641.1,1431.5,640.2,1431.2,639.2,1431.2 M639.2,1430    c1.4,0,2.6,0.4,3.5,1.3c0.9,0.9,1.4,2,1.4,3.3c0,1.3-0.5,2.4-1.4,3.3c-0.9,0.9-2.1,1.3-3.6,1.3c-1.4,0-2.5-0.4-3.4-1.3    c-0.9-0.9-1.4-2-1.4-3.3c0-1.3,0.5-2.5,1.4-3.3C636.6,1430.4,637.8,1430,639.2,1430"></path>
		<path class="st2" d="M650.2,1431.2c-1,0-1.9,0.3-2.6,1c-0.7,0.6-1,1.5-1,2.5c0,1,0.3,1.8,1,2.4c0.7,0.6,1.5,1,2.5,1    c1,0,1.9-0.3,2.5-1c0.7-0.7,1-1.5,1-2.5c0-1-0.3-1.8-1-2.4C652,1431.5,651.2,1431.2,650.2,1431.2 M650.1,1430    c1.4,0,2.6,0.4,3.5,1.3c0.9,0.9,1.4,2,1.4,3.3c0,1.3-0.5,2.4-1.4,3.3c-0.9,0.9-2.1,1.3-3.6,1.3c-1.4,0-2.5-0.4-3.4-1.3    c-0.9-0.9-1.4-2-1.4-3.3c0-1.3,0.5-2.5,1.4-3.3C647.6,1430.4,648.7,1430,650.1,1430"></path>
		<path class="st2" d="M659.2,1431.3h-1.3v2.8h1.4c0.5,0,0.9-0.1,1.2-0.4c0.3-0.2,0.4-0.6,0.4-1.1    C660.9,1431.7,660.3,1431.3,659.2,1431.3 M656.5,1439.2v-9h2.9c0.9,0,1.6,0.2,2.1,0.7c0.5,0.5,0.8,1.1,0.8,1.9    c0,0.5-0.1,1-0.4,1.4c-0.3,0.4-0.6,0.7-1.1,0.9c-0.5,0.2-1.1,0.3-2,0.3h-1v3.9H656.5z"></path>
		<polygon class="st2" points="663.4,1430.1 668.5,1430.1 668.5,1431.3 664.7,1431.3 664.7,1434 668.4,1434 668.4,1435.2     664.7,1435.2 664.7,1438 668.6,1438 668.6,1439.1 663.4,1439.1   "></polygon>
		<path class="st2" d="M671.7,1431.2h-0.4v2.8h0.5c0.7,0,1.1-0.1,1.4-0.2c0.2-0.1,0.4-0.3,0.6-0.5c0.1-0.2,0.2-0.5,0.2-0.8    c0-0.3-0.1-0.5-0.2-0.8c-0.2-0.2-0.4-0.4-0.6-0.5C672.8,1431.3,672.4,1431.2,671.7,1431.2 M670,1439.2v-9h2.3    c0.9,0,1.6,0.2,2.2,0.7c0.5,0.5,0.8,1.1,0.8,1.8c0,0.5-0.1,1-0.4,1.4c-0.3,0.4-0.6,0.7-1.1,0.9c0.3,0.2,0.6,0.4,0.8,0.8    c0.3,0.3,0.7,0.9,1.2,1.7c0.3,0.5,0.6,0.9,0.8,1.2l0.5,0.6h-1.5l-0.4-0.6c0,0,0-0.1-0.1-0.1l-0.3-0.4l-0.4-0.7l-0.4-0.7    c-0.3-0.4-0.5-0.7-0.7-0.9c-0.2-0.2-0.4-0.4-0.6-0.5c-0.2-0.1-0.5-0.1-0.9-0.1h-0.3v3.9H670z"></path>
		<path class="st2" d="M681.4,1432.1l1.5,3.3H680L681.4,1432.1z M680.9,1430.1l-3.9,9.1h1.3l1.1-2.7h3.9l1.2,2.7h1.3l-4.1-9.1H680.9    z"></path>
		<polygon class="st2" points="684.8,1430.1 684.8,1431.3 687.9,1431.3 687.9,1439.2 689.2,1439.2 689.2,1431.3 692.3,1431.3     692.3,1430.1   "></polygon>
		<rect x="693.6" y="1430.1" class="st2" width="1.3" height="9"></rect>
		<polygon class="st2" points="702.6,1430.1 703.9,1430.1 700.1,1439.2 699.8,1439.2 695.9,1430.1 697.2,1430.1 699.9,1436.5   "></polygon>
		<path class="st2" d="M707.2,1432.1l1.5,3.3h-2.8L707.2,1432.1z M706.7,1430.1l-3.9,9.1h1.3l1.1-2.7h3.9l1.2,2.7h1.3l-4.1-9.1    H706.7z"></path>
		<path class="st2" d="M714.9,1435.4l-1-0.6c-0.6-0.4-1.1-0.7-1.3-1.1c-0.3-0.4-0.4-0.8-0.4-1.3c0-0.7,0.2-1.3,0.7-1.7    c0.5-0.4,1.1-0.7,1.9-0.7c0.8,0,1.4,0.2,2.1,0.6v1.5c-0.7-0.6-1.4-0.9-2.1-0.9c-0.4,0-0.8,0.1-1,0.3c-0.3,0.2-0.4,0.4-0.4,0.7    c0,0.3,0.1,0.5,0.3,0.8c0.2,0.2,0.5,0.5,1,0.7l1,0.6c1.1,0.7,1.7,1.5,1.7,2.5c0,0.7-0.2,1.3-0.7,1.8c-0.5,0.5-1.1,0.7-1.9,0.7    c-0.9,0-1.7-0.3-2.4-0.8v-1.6c0.7,0.9,1.5,1.3,2.4,1.3c0.4,0,0.7-0.1,1-0.3c0.3-0.2,0.4-0.5,0.4-0.8    C716.1,1436.4,715.7,1435.9,714.9,1435.4"></path>
	</g>
	<g>
		<path class="st2" d="M665.3,1411.7c1.3,0,2.4,0.4,3.2,1.2c0.8,0.8,1.2,1.8,1.2,3.1c0,1-0.3,2-0.9,3.2c-0.6,1.1-1.6,2.6-3.1,4.5    h4.9v2.5h-9.2v-0.3c1.1-1.3,2-2.5,2.8-3.6c0.8-1.1,1.4-1.9,1.8-2.6c0.4-0.7,0.7-1.3,0.9-1.8c0.2-0.5,0.3-1,0.3-1.5    c0-0.6-0.2-1.2-0.6-1.6c-0.4-0.4-0.9-0.7-1.5-0.7c-1.1,0-2.2,0.6-3.3,1.8v-2.8C662.8,1412.1,664,1411.7,665.3,1411.7z"></path>
		<path class="st2" d="M680.4,1411.9v2.4h-4.5v3.1l0.3,0h0.2c0.9,0,1.6,0.2,2.4,0.6c0.7,0.4,1.3,0.9,1.6,1.6    c0.4,0.7,0.6,1.4,0.6,2.3c0,1.3-0.4,2.4-1.3,3.2c-0.9,0.8-2.1,1.3-3.5,1.3c-1.3,0-2.4-0.3-3.4-0.8v-2.4c1.1,0.6,2.1,1,3,1    c0.8,0,1.4-0.2,1.9-0.6c0.5-0.4,0.8-1,0.8-1.6c0-0.7-0.3-1.3-0.9-1.7c-0.6-0.4-1.4-0.6-2.4-0.6c-0.5,0-1,0.1-1.6,0.2v-7.8H680.4z"></path>
	</g>
</g>
<g id="XMLID_140_">
	<circle id="XMLID_142_" class="st0" cx="101.1" cy="100.8" r="75.6"></circle>
	<circle id="XMLID_141_" class="st1" cx="104.4" cy="100.8" r="75.6"></circle>
</g>
<g id="XMLID_56_">
	<g id="XMLID_94_">
		<circle id="XMLID_139_" class="st2" cx="102.5" cy="82.3" r="13.5"></circle>
		<g id="XMLID_133_">
			<path id="XMLID_138_" class="st3" d="M91,75.8c-0.6,0.1-1.1,0.3-1.6,0.4c-0.1,0.2-0.2,0.5-0.4,0.8c0.4-0.1,0.9-0.2,1.6-0.4     C90.7,76.3,90.8,76.1,91,75.8z"></path>
			<path id="XMLID_137_" class="st3" d="M116.8,73.5c-3-3.8-7.6-6.3-12.9-6.3c-5.1,0-9.7,2.3-12.7,6c0.6-0.1,1.2-0.3,1.9-0.4     c2.4-2.4,5.7-3.9,9.4-3.9c3.4,0,6.6,1.3,8.9,3.4C113.5,72.8,115.4,73.2,116.8,73.5z"></path>
			<path id="XMLID_136_" class="st3" d="M89.4,82.2c0-1.2,0.2-2.3,0.4-3.4c-0.5-0.1-1-0.3-1.2-0.7c-0.6,1.7-1,3.6-1,5.5     c0,6.3,3.6,11.8,8.8,14.5l0-4.3C92.2,91.6,89.4,87.2,89.4,82.2z"></path>
			<path id="XMLID_135_" class="st3" d="M102.8,99.9c0.3,0,0.7,0,1,0v-4.6c-0.3,0-0.7,0.1-1,0.1L102.8,99.9z"></path>
			<path id="XMLID_134_" class="st3" d="M118.6,76.4c-0.9-0.2-2.6-0.6-4.7-1.1c0.1,0.2,0.3,0.4,0.4,0.7c2.3,0.5,4,0.8,4,0.8     s0,0-0.5,0.8c-0.4,0.6-1.4,0.9-2.5,0.9c0.3,1.1,0.5,2.3,0.5,3.6c0,4.3-2,8.1-5.2,10.5v5.9c5.7-2.6,9.6-8.3,9.6-14.9     C120.3,81.1,119.7,78.6,118.6,76.4z"></path>
		</g>
		<path id="XMLID_130_" class="st2" d="M105.7,64.8c-11.2-1.4-21.4,6.6-22.8,17.8c-1.4,11.2,6.6,21.4,17.8,22.8    c11.2,1.4,21.4-6.6,22.8-17.8C124.9,76.4,116.9,66.2,105.7,64.8z M120.9,85.8c-1.2,9.7-10,16.5-19.6,15.3    c-9.7-1.2-16.5-10-15.3-19.6c0.3-2.3,1-4.5,2.1-6.4l0.1-1.1c0,0,0.2-0.1,0.7-0.1c3.6-5.3,10-8.5,16.8-7.7    c5.3,0.6,9.7,3.6,12.4,7.6c0.6,0.1,0.9,0.2,0.9,0.2l0.2,1.7C120.7,78.7,121.3,82.2,120.9,85.8z"></path>
		<g id="XMLID_125_">
			<path id="XMLID_129_" class="st4" d="M103.8,73.9c2.1,0.4,14.6,2.9,14.6,2.9s0,0-0.5,0.8c-0.5,0.8-2,1-3.6,0.9     c-1.4-0.1-8.9-1.8-10.5-2.2V73.9z"></path>
			<path id="XMLID_126_" class="st2" d="M115.2,78.8c-0.3,0-0.6,0-0.9,0c-1.4-0.1-8.7-1.7-10.5-2.2l-0.1,0v-2.8l0.2,0     c2.1,0.4,14.6,2.9,14.6,2.9l0.1,0v0.1c0,0.1,0,0.1-0.5,0.9C117.5,78.6,116.2,78.8,115.2,78.8z M104,76.3c2,0.5,9,2,10.3,2.1     c0.3,0,0.6,0,0.8,0c0.9,0,2.1-0.1,2.6-0.8c0.2-0.3,0.3-0.5,0.4-0.6c-1.6-0.3-11.8-2.4-14.2-2.9V76.3z"></path>
		</g>
		<g id="XMLID_120_">
			<path id="XMLID_124_" class="st4" d="M103.8,79.2c1,0.2,4.4,0.9,6,1.2c1.9,0.4,3.5,0.3,4-0.4c0.5-0.7,0.1-0.6-0.3-0.7     c-0.3-0.1-8-1.7-9.6-2L103.8,79.2z"></path>
			<path id="XMLID_121_" class="st2" d="M111.8,80.8L111.8,80.8c-0.6,0-1.3-0.1-2-0.2c-0.5-0.1-1.2-0.3-2-0.4     c-1.5-0.3-3.3-0.7-4-0.8l-0.1,0l0-2.2l0.2,0c1.7,0.3,9.4,2,9.6,2c0.1,0,0.1,0,0.2,0c0.2,0,0.4,0,0.5,0.2c0.1,0.2,0,0.4-0.2,0.7     C113.6,80.6,112.9,80.8,111.8,80.8z M104,79.1c0.8,0.1,2.4,0.5,3.9,0.8c0.8,0.2,1.5,0.3,2,0.4c0.7,0.1,1.4,0.2,2,0.2l0,0     c1,0,1.6-0.2,1.9-0.6c0.2-0.3,0.2-0.4,0.2-0.4c0,0-0.1,0-0.2,0c-0.1,0-0.1,0-0.2,0c-0.3-0.1-7.5-1.6-9.4-2L104,79.1z"></path>
		</g>
		<g id="XMLID_115_">
			<path id="XMLID_119_" class="st4" d="M102.9,79.3c-1,0.2-4.5,0.9-6,1.3c-1.9,0.4-3.5,0.3-4-0.4c-0.5-0.7,0-0.6,0.3-0.7     c0.3-0.1,8.1-1.8,9.7-2.1V79.3z"></path>
			<path id="XMLID_116_" class="st2" d="M94.8,81c-1.1,0-1.8-0.2-2.1-0.7c-0.2-0.3-0.3-0.5-0.2-0.7c0.1-0.2,0.3-0.2,0.5-0.2     c0.1,0,0.1,0,0.2,0l0.5-0.1c5.2-1.1,8.3-1.8,9.3-2l0.2,0v2.3l-0.1,0c-0.7,0.1-2.5,0.5-4.1,0.8c-0.8,0.2-1.5,0.3-2,0.4     C96.2,80.9,95.4,81,94.8,81z M92.8,79.7c0,0,0,0.1,0.2,0.4c0.2,0.4,0.9,0.6,1.9,0.6c0.6,0,1.3-0.1,2-0.2c0.5-0.1,1.2-0.3,2-0.4     c1.5-0.3,3.2-0.7,4-0.8v-1.6c-1.1,0.2-4.2,0.9-9.1,2l-0.5,0.1c-0.1,0-0.1,0-0.2,0C92.9,79.7,92.8,79.7,92.8,79.7L92.8,79.7z"></path>
		</g>
		<g id="XMLID_110_">
			<path id="XMLID_114_" class="st4" d="M102.9,76.6c-1.6,0.4-9.4,2.2-10.8,2.3C90.5,79,89,78.8,88.5,78C88,77.2,88,77.2,88,77.2     s12.8-2.9,14.9-3.3V76.6z"></path>
			<path id="XMLID_111_" class="st2" d="M91.2,79.1c-1.5,0-2.4-0.3-2.8-1c-0.5-0.8-0.5-0.9-0.5-0.9v-0.1l0.1,0     c0.1,0,12.8-2.9,14.9-3.3l0.2,0v3l-0.5,0.1c-2.3,0.5-9.1,2.1-10.4,2.2C91.8,79.1,91.5,79.1,91.2,79.1z M88.2,77.3     c0.1,0.1,0.2,0.3,0.4,0.6c0.4,0.7,1.6,0.8,2.6,0.8c0.3,0,0.6,0,0.8,0c1.3-0.1,8.2-1.7,10.4-2.2l0.3-0.1v-2.4     C100.3,74.6,89.8,76.9,88.2,77.3z"></path>
		</g>
		<g id="XMLID_105_">
			<path id="XMLID_109_" class="st0" d="M102.9,80.2l-0.1,21.1c-0.5,0-1-0.1-1.5-0.1c-1.7-0.2-3.3-0.7-4.8-1.3l-0.1-18.4L102.9,80.2     z"></path>
			<path id="XMLID_106_" class="st2" d="M103,101.4l-0.2,0c-0.5,0-1-0.1-1.6-0.1c-1.7-0.2-3.3-0.7-4.9-1.3l-0.1,0l-0.1-18.7L103,80     v0.2L103,101.4z M96.6,99.7c1.5,0.6,3.1,1.1,4.7,1.3c0.5,0.1,0.9,0.1,1.4,0.1l0.1-20.7l-6.2,1.1L96.6,99.7z"></path>
		</g>
		<g id="XMLID_100_">
			<path id="XMLID_104_" class="st0" d="M103.8,80.2l6.8,1.5v18.1c-2.1,1-4.4,1.5-6.8,1.6V80.2z"></path>
			<path id="XMLID_101_" class="st2" d="M103.7,101.4V80l7.2,1.5v18.3l-0.1,0c-2.2,1-4.5,1.5-6.9,1.6L103.7,101.4z M104,80.4v20.8     c2.3-0.1,4.5-0.6,6.5-1.5V81.7L104,80.4z"></path>
		</g>
		<g id="XMLID_95_">
			<path id="XMLID_99_" class="st4" d="M103.4,70.6c0,0,15.6,3.4,15.6,3.4l0.3,2.6c0,0-15.8-3.6-15.9-3.6s-15.5,3.6-15.5,3.6     l0.3-2.6C88.1,74,103.3,70.6,103.4,70.6z"></path>
			<path id="XMLID_96_" class="st2" d="M87.6,76.8l0.3-2.9l0.1,0c15.2-3.4,15.3-3.4,15.3-3.4c0,0,0.1,0,15.6,3.4l0.1,0l0.3,2.9     l-0.2,0c-0.2,0-15.1-3.4-15.8-3.6c-0.7,0.2-15.3,3.5-15.5,3.6L87.6,76.8z M103.4,72.8c0,0,0.1,0,15.7,3.5l-0.3-2.2     c-1.4-0.3-14.7-3.3-15.4-3.4c-0.7,0.2-13.8,3.1-15.1,3.4L88,76.4C103.3,72.8,103.3,72.8,103.4,72.8z"></path>
		</g>
	</g>
	<g id="XMLID_57_">
		<g id="XMLID_82_">
			<path id="XMLID_93_" class="st2" d="M83.4,111.5c-0.2-0.1-0.3-0.2-0.5-0.3c-0.2-0.1-0.4-0.2-0.6-0.2c-0.2-0.1-0.4-0.1-0.6-0.2     c-0.2-0.1-0.3-0.1-0.5-0.2c-0.1-0.1-0.2-0.1-0.3-0.2c-0.1-0.1-0.1-0.2-0.1-0.3c0-0.1,0-0.1,0-0.2c0-0.1,0.1-0.1,0.1-0.2     c0.1-0.1,0.2-0.1,0.3-0.1c0.3-0.1,0.7-0.1,0.9,0c0.2,0,0.3,0.1,0.4,0.1c0.1,0,0.2,0.1,0.3,0.1c0.2,0.1,0.3,0.1,0.4,0     c0.1,0,0.1-0.1,0.1-0.2c0,0,0-0.1,0-0.1c0,0,0-0.1,0-0.2c0-0.1,0-0.1,0-0.1c0,0,0-0.1,0-0.1c0,0,0-0.1-0.1-0.1     c0,0-0.1-0.1-0.1-0.1c0,0-0.1-0.1-0.3-0.1c-0.1,0-0.2-0.1-0.4-0.1c-0.1,0-0.3-0.1-0.4-0.1c-0.5-0.1-0.9,0-1.3,0.1     c-0.3,0.1-0.5,0.2-0.7,0.3c-0.2,0.1-0.4,0.3-0.5,0.5c-0.1,0.2-0.2,0.4-0.2,0.7c0,0.2,0.1,0.5,0.2,0.7c0.1,0.2,0.2,0.3,0.4,0.5     c0.2,0.1,0.3,0.2,0.5,0.3c0.2,0.1,0.4,0.2,0.6,0.2l0.6,0.2c0.2,0.1,0.3,0.1,0.5,0.2c0.1,0.1,0.2,0.1,0.3,0.2     c0.1,0.1,0.1,0.2,0.1,0.3c0,0.1,0,0.2-0.1,0.3c0,0.1-0.1,0.2-0.2,0.2c-0.1,0.1-0.2,0.1-0.4,0.1c-0.1,0-0.3,0.1-0.5,0.1     c-0.2,0-0.5,0-0.6-0.1c-0.2,0-0.3-0.1-0.5-0.1c-0.1-0.1-0.2-0.1-0.3-0.1c-0.2-0.1-0.3-0.1-0.5-0.1c-0.1,0-0.1,0.1-0.1,0.1     c0,0,0,0.1-0.1,0.2c0,0,0,0.1,0,0.2c0,0.1,0,0.2,0,0.3c0,0.1,0.1,0.2,0.1,0.2c0.1,0,0.1,0.1,0.3,0.1c0.1,0.1,0.2,0.1,0.4,0.1     c0.2,0,0.3,0.1,0.5,0.1c0.2,0,0.4,0,0.7,0c0.3,0,0.7,0,0.9-0.1c0.3-0.1,0.6-0.2,0.8-0.3c0.2-0.2,0.4-0.3,0.5-0.6     c0.1-0.2,0.2-0.5,0.2-0.8c0-0.2-0.1-0.5-0.2-0.6C83.7,111.7,83.6,111.6,83.4,111.5z"></path>
			<path id="XMLID_92_" class="st2" d="M89.8,113.4c0,0-0.1-0.1-0.1-0.1c0,0-0.1,0-0.2,0h-2.5v-1.5h2.1c0.1,0,0.1,0,0.2,0     c0.1,0,0.1-0.1,0.1-0.1c0,0,0.1-0.1,0.1-0.2c0,0,0-0.1,0-0.2c0-0.1,0-0.1,0-0.2c0-0.1,0-0.1-0.1-0.2c0,0-0.1-0.1-0.1-0.1     c-0.1,0-0.1,0-0.2,0h-2.1v-1.3h2.4c0.1,0,0.1,0,0.2,0c0.1,0,0.1-0.1,0.1-0.1c0,0,0-0.1,0.1-0.1c0-0.1,0-0.1,0-0.2     c0-0.1,0-0.1,0-0.2c0-0.1,0-0.1-0.1-0.1c0-0.1-0.1-0.1-0.1-0.1c0,0-0.1,0-0.2,0h-3.2c-0.1,0-0.2,0-0.3,0.1     c-0.1,0-0.2,0.2-0.2,0.4v4.7c0,0.2,0.1,0.3,0.2,0.4c0.1,0.1,0.2,0.1,0.3,0.1h3.2c0.1,0,0.1,0,0.2,0c0.1,0,0.1-0.1,0.1-0.1     c0,0,0.1-0.1,0.1-0.2c0,0,0-0.1,0-0.2c0-0.1,0-0.1,0-0.2C89.9,113.5,89.9,113.5,89.8,113.4z"></path>
			<path id="XMLID_91_" class="st2" d="M93.4,110c0.2-0.2,0.4-0.3,0.7-0.4c0.3-0.1,0.6-0.1,0.9-0.1c0.3,0,0.6,0,0.8,0.1     c0.2,0,0.4,0.1,0.6,0.2c0.2,0.1,0.3,0.1,0.4,0.2c0.2,0.1,0.3,0.1,0.5,0.1c0.1,0,0.1-0.1,0.1-0.1c0,0,0-0.1,0.1-0.2     c0-0.1,0-0.1,0-0.2c0-0.1,0-0.2,0-0.3c0-0.1-0.1-0.2-0.2-0.2c-0.1,0-0.1-0.1-0.3-0.2c-0.1-0.1-0.3-0.1-0.5-0.2     c-0.2,0-0.4-0.1-0.6-0.1c-0.2,0-0.5-0.1-0.8-0.1c-0.5,0-1,0.1-1.4,0.2c-0.4,0.1-0.8,0.3-1.1,0.6c-0.3,0.3-0.6,0.6-0.7,0.9     c-0.2,0.4-0.3,0.8-0.3,1.2c0,0.4,0.1,0.8,0.2,1.2c0.2,0.4,0.4,0.7,0.7,0.9c0.3,0.3,0.7,0.4,1.1,0.6c0.4,0.1,0.9,0.2,1.5,0.2     c0.2,0,0.4,0,0.5,0c0.2,0,0.4,0,0.5-0.1c0.2,0,0.4-0.1,0.5-0.1c0.2,0,0.3-0.1,0.4-0.1c0.1-0.1,0.2-0.1,0.3-0.2     c0-0.1,0.1-0.2,0.1-0.3v-2c0-0.1,0-0.1,0-0.2c0-0.1-0.1-0.1-0.1-0.2c0,0-0.1-0.1-0.2-0.1c-0.1,0-0.1,0-0.2,0h-2.1     c-0.1,0-0.1,0-0.2,0c0,0-0.1,0.1-0.1,0.1c0,0-0.1,0.1-0.1,0.2c0,0,0,0.1,0,0.2c0,0.1,0,0.2,0.1,0.3c0.1,0.1,0.2,0.2,0.3,0.2h1.4     v1.2c-0.1,0-0.3,0.1-0.4,0.1c-0.5,0.1-1.1,0.1-1.5-0.1c-0.3-0.1-0.5-0.2-0.7-0.4c-0.2-0.2-0.3-0.4-0.4-0.6     c-0.1-0.2-0.2-0.5-0.2-0.8c0-0.3,0.1-0.5,0.1-0.8C93.1,110.4,93.2,110.2,93.4,110z"></path>
			<path id="XMLID_90_" class="st2" d="M104.8,108.6c0,0-0.1,0-0.2,0c-0.1,0-0.4,0-0.5,0c-0.1,0-0.1,0-0.2,0c-0.1,0-0.1,0.1-0.2,0.1     c0,0.1-0.1,0.1-0.1,0.2v3.2c0,0.2,0,0.4-0.1,0.5c-0.1,0.2-0.2,0.3-0.3,0.4c-0.1,0.1-0.3,0.2-0.4,0.2c-0.4,0.1-0.9,0.1-1.3,0     c-0.2-0.1-0.3-0.1-0.4-0.2c-0.1-0.1-0.2-0.2-0.3-0.4c-0.1-0.2-0.1-0.4-0.1-0.6v-3.2c0-0.1,0-0.1-0.1-0.2c0,0-0.1-0.1-0.2-0.1     c0,0-0.1,0-0.2,0c-0.1,0-0.4,0-0.5,0c-0.1,0-0.1,0-0.2,0c-0.1,0-0.1,0.1-0.2,0.1c0,0.1-0.1,0.1-0.1,0.2v3.3     c0,0.4,0.1,0.7,0.2,0.9c0.1,0.3,0.3,0.5,0.6,0.7c0.2,0.2,0.5,0.3,0.8,0.4c0.3,0.1,0.7,0.1,1.1,0.1c0.4,0,0.8,0,1.1-0.1     c0.3-0.1,0.6-0.2,0.9-0.4c0.2-0.2,0.4-0.4,0.6-0.7c0.1-0.3,0.2-0.6,0.2-0.9v-3.2c0-0.1,0-0.1-0.1-0.2     C104.9,108.6,104.8,108.6,104.8,108.6z"></path>
			<path id="XMLID_87_" class="st2" d="M112.1,113.6l-0.6-1.2c-0.1-0.1-0.1-0.3-0.2-0.4c-0.1-0.1-0.2-0.2-0.2-0.3     c-0.1-0.1-0.1-0.1-0.2-0.2c0,0,0.1,0,0.1-0.1c0.2-0.1,0.3-0.2,0.5-0.3c0.1-0.1,0.2-0.3,0.3-0.4c0.1-0.2,0.1-0.4,0.1-0.6     c0-0.2,0-0.4-0.1-0.6c-0.1-0.2-0.2-0.3-0.4-0.5c-0.2-0.1-0.3-0.2-0.6-0.3c-0.2-0.1-0.5-0.1-0.7-0.2c-0.1,0-0.2,0-0.3,0     c-0.1,0-0.3,0-0.4,0h-1.4c-0.1,0-0.2,0-0.3,0.1c-0.1,0-0.2,0.2-0.2,0.4v4.9c0,0.1,0,0.1,0.1,0.2c0,0,0.1,0.1,0.2,0.1     c0,0,0.1,0,0.2,0c0.1,0,0.4,0,0.5,0c0.1,0,0.1,0,0.2,0c0.1,0,0.1,0,0.2-0.1c0.1-0.1,0.1-0.1,0.1-0.2v-2.1h0.4     c0.2,0,0.3,0,0.5,0.1c0.1,0,0.2,0.1,0.3,0.2c0.1,0.1,0.2,0.2,0.2,0.3c0.1,0.1,0.1,0.2,0.2,0.4l0.6,1.2c0,0.1,0,0.1,0.1,0.1     c0,0,0.1,0.1,0.2,0.1c0.1,0,0.1,0,0.2,0c0.1,0,0.1,0,0.2,0c0.1,0,0.2,0,0.3,0c0.1,0,0.1,0,0.2,0c0.1,0,0.1-0.1,0.2-0.1     c0,0,0-0.1,0-0.2c0,0,0-0.1,0-0.2C112.2,113.7,112.1,113.7,112.1,113.6z M110.2,110.7c-0.1,0.1-0.2,0.1-0.4,0.2     c-0.2,0-0.3,0.1-0.6,0.1h-0.7v-1.4h0.6c0.2,0,0.3,0,0.4,0c0.1,0,0.2,0,0.3,0c0.2,0.1,0.4,0.1,0.5,0.2c0.1,0.1,0.1,0.2,0.1,0.4     c0,0.1,0,0.2-0.1,0.3C110.4,110.6,110.3,110.6,110.2,110.7z"></path>
			<path id="XMLID_84_" class="st2" d="M119.3,109.2c-0.3-0.2-0.6-0.4-1-0.6c-0.4-0.1-0.8-0.2-1.4-0.2c-0.5,0-1,0.1-1.4,0.2     c-0.4,0.1-0.8,0.3-1,0.6c-0.3,0.3-0.5,0.6-0.6,0.9c-0.1,0.4-0.2,0.8-0.2,1.2c0,0.5,0.1,0.9,0.2,1.2c0.1,0.4,0.3,0.7,0.6,0.9     c0.3,0.2,0.6,0.4,1,0.6c0.4,0.1,0.8,0.2,1.4,0.2c0.5,0,1-0.1,1.4-0.2c0.4-0.1,0.8-0.3,1-0.6c0.3-0.3,0.5-0.6,0.6-1     c0.1-0.4,0.2-0.8,0.2-1.2c0-0.5-0.1-0.9-0.2-1.2C119.7,109.8,119.5,109.4,119.3,109.2z M116.8,113.3c-0.4,0-0.7,0-0.9-0.1     c-0.2-0.1-0.4-0.2-0.5-0.4c-0.1-0.2-0.2-0.4-0.3-0.6c-0.1-0.2-0.1-0.5-0.1-0.8c0-0.3,0-0.5,0.1-0.8c0.1-0.2,0.2-0.4,0.3-0.6     c0.1-0.2,0.3-0.3,0.6-0.4c0.2-0.1,0.5-0.2,0.9-0.2c0.4,0,0.7,0,0.9,0.1c0.2,0.1,0.4,0.2,0.6,0.4c0.1,0.2,0.2,0.4,0.3,0.6     c0.1,0.2,0.1,0.5,0.1,0.8c0,0.3,0,0.5-0.1,0.8c-0.1,0.2-0.2,0.4-0.3,0.6c-0.1,0.2-0.3,0.3-0.6,0.4     C117.5,113.3,117.2,113.3,116.8,113.3z"></path>
			<path id="XMLID_83_" class="st2" d="M125.9,111.9c-0.1-0.2-0.2-0.3-0.4-0.5c-0.2-0.1-0.3-0.2-0.5-0.3c-0.2-0.1-0.4-0.2-0.6-0.2     c-0.2-0.1-0.4-0.1-0.6-0.2c-0.2-0.1-0.3-0.1-0.5-0.2c-0.1-0.1-0.2-0.1-0.3-0.2c-0.1-0.1-0.1-0.2-0.1-0.3c0-0.1,0-0.1,0-0.2     c0-0.1,0.1-0.1,0.1-0.2c0.1-0.1,0.2-0.1,0.3-0.1c0.3-0.1,0.7-0.1,0.9,0c0.2,0,0.3,0.1,0.4,0.1c0.1,0,0.2,0.1,0.3,0.1     c0.2,0.1,0.3,0.1,0.4,0c0.1,0,0.1-0.1,0.1-0.1c0,0,0-0.1,0-0.1c0,0,0-0.1,0-0.2c0-0.1,0-0.1,0-0.1c0,0,0-0.1,0-0.1     c0,0,0-0.1-0.1-0.1c0,0-0.1-0.1-0.1-0.1c0,0-0.1-0.1-0.3-0.1c-0.1,0-0.2-0.1-0.4-0.1c-0.1,0-0.3-0.1-0.4-0.1     c-0.5-0.1-0.9,0-1.3,0.1c-0.3,0.1-0.5,0.2-0.7,0.3c-0.2,0.1-0.4,0.3-0.5,0.5c-0.1,0.2-0.2,0.4-0.2,0.7c0,0.2,0.1,0.5,0.2,0.7     c0.1,0.2,0.2,0.3,0.4,0.5c0.2,0.1,0.3,0.2,0.5,0.3c0.2,0.1,0.4,0.2,0.6,0.2l0.6,0.2c0.2,0.1,0.3,0.1,0.5,0.2     c0.1,0.1,0.2,0.1,0.3,0.2c0.1,0.1,0.1,0.2,0.1,0.3c0,0.1,0,0.2-0.1,0.3c0,0.1-0.1,0.2-0.2,0.2c-0.1,0.1-0.2,0.1-0.4,0.1     c-0.1,0-0.3,0.1-0.5,0.1c-0.2,0-0.5,0-0.6-0.1c-0.2,0-0.3-0.1-0.5-0.1c-0.1-0.1-0.2-0.1-0.3-0.1c-0.2-0.1-0.3-0.1-0.5-0.1     c-0.1,0-0.1,0.1-0.1,0.1c0,0,0,0.1-0.1,0.2c0,0,0,0.1,0,0.2c0,0.1,0,0.2,0,0.3c0,0.1,0.1,0.2,0.1,0.2c0.1,0,0.1,0.1,0.3,0.1     c0.1,0.1,0.2,0.1,0.4,0.1c0.2,0,0.3,0.1,0.5,0.1c0.2,0,0.4,0,0.7,0c0.3,0,0.7,0,0.9-0.1c0.3-0.1,0.6-0.2,0.8-0.3     c0.2-0.2,0.4-0.3,0.5-0.6c0.1-0.2,0.2-0.5,0.2-0.8C126,112.3,126,112.1,125.9,111.9z"></path>
		</g>
		<g id="XMLID_58_">
			<g id="XMLID_80_">
				<circle id="XMLID_81_" class="st2" cx="117.1" cy="123.3" r="1.4"></circle>
			</g>
			<g id="XMLID_75_">
				<g id="XMLID_78_">
					<path id="XMLID_79_" class="st2" d="M114.6,126.6C114.6,126.5,114.6,126.5,114.6,126.6l-2.9-5c-0.2-0.4-0.1-0.8,0.2-1       c0.4-0.2,0.8-0.1,1,0.3l2.6,4.4c0.3,0.4,0.9,0.8,1.4,0.9l0,0l-4.3-7c0-0.1-0.1-0.1-0.2-0.2c-0.1-0.1-0.2-0.1-0.2-0.1h-4       c-0.1,0-0.3,0.1-0.4,0.2c-0.1,0.1-0.2,0.2-0.2,0.4v12.3c0,0.1,0.1,0.3,0.2,0.4c0.1,0.1,0.2,0.2,0.4,0.2h3.4       c0.1,0,0.3-0.1,0.4-0.2c0.1-0.1,0.2-0.2,0.2-0.4V125l2.4,4.5V126.6z"></path>
				</g>
				<g id="XMLID_76_">
					<path id="XMLID_77_" class="st2" d="M126.4,119c-0.1-0.1-0.2-0.2-0.4-0.2h-4c-0.1,0-0.2,0-0.3,0.1c-0.1,0.1-0.2,0.1-0.2,0.2       l-4.2,7c0.6-0.1,1.1-0.4,1.4-0.9l2.6-4.4c0.2-0.4,0.7-0.5,1-0.3c0.4,0.2,0.5,0.7,0.2,1l-2.9,5c0,0,0,0,0,0.1v3l2.4-4.5v6.7       c0,0.1,0.1,0.3,0.2,0.4c0.1,0.1,0.2,0.2,0.4,0.2h3.4c0.1,0,0.3-0.1,0.4-0.2c0.1-0.1,0.2-0.2,0.2-0.4v-12.3       C126.5,119.2,126.5,119.1,126.4,119z"></path>
				</g>
			</g>
			<g id="XMLID_73_">
				<path id="XMLID_74_" class="st5" d="M54.1,125.6c0-1.2,0.4-2.1,1.1-2.7c0.7-0.6,1.7-1,3-1c0.4,0,0.8,0,1.1,0.1      c0.4,0.1,0.8,0.1,1.2,0.2c0.8,0.2,1.4,0.4,1.9,0.6c0.2,0.1,0.3,0.1,0.5-0.1c0.1-0.1,0.2-0.3,0.2-0.5l-0.2-2.5      c0-0.1-0.1-0.2-0.1-0.3c-0.1-0.1-0.1-0.1-0.2-0.2c-0.6-0.2-1.3-0.4-2.2-0.5c-0.9-0.1-1.8-0.2-2.9-0.2c-1.3,0-2.4,0.2-3.4,0.5      c-1,0.3-1.8,0.8-2.5,1.4c-0.7,0.6-1.2,1.3-1.5,2.2c-0.4,0.9-0.5,1.9-0.5,3.1c0,2.1,0.7,3.8,2.2,5c1.4,1.1,3.4,1.7,5.9,1.7      c1.1,0,2.1-0.1,3-0.2c0.9-0.1,1.8-0.3,2.6-0.6c0.1,0,0.2-0.1,0.2-0.2c0.1-0.1,0.1-0.2,0.1-0.3l0.1-2.5c0-0.2-0.1-0.3-0.2-0.4      c-0.1-0.1-0.3-0.1-0.5-0.1c-0.3,0.1-0.6,0.2-0.9,0.3c-0.3,0.1-0.7,0.2-1.2,0.3h0c-0.8,0.2-1.7,0.3-2.5,0.3c-1.3,0-2.3-0.3-3-0.9      c-0.3-0.3-0.6-0.6-0.8-1.1C54.2,126.6,54.1,126.1,54.1,125.6L54.1,125.6z"></path>
			</g>
			<g id="XMLID_69_">
				<path id="XMLID_70_" class="st5" d="M80.1,125.5c0-2.3-0.7-4-2-5.2c-1.3-1.1-3.3-1.7-6-1.7c-2.6,0-4.6,0.6-6,1.7      c-1.3,1.1-2,2.9-2,5.2c0,2.3,0.7,4,2,5.2c1.3,1.1,3.3,1.7,6,1.7c2.6,0,4.6-0.6,6-1.7C79.4,129.5,80.1,127.8,80.1,125.5z       M75.4,125.5c0,1-0.3,1.7-0.8,2.2c-0.6,0.5-1.4,0.7-2.4,0.7c-1.1,0-1.9-0.2-2.4-0.7c-0.6-0.5-0.8-1.2-0.8-2.2      c0-1,0.3-1.7,0.8-2.2c0.6-0.5,1.4-0.7,2.4-0.7c1.1,0,1.9,0.2,2.4,0.7C75.1,123.8,75.4,124.5,75.4,125.5z"></path>
			</g>
			<g id="XMLID_67_">
				<path id="XMLID_68_" class="st5" d="M85.6,119.4c0-0.1-0.1-0.3-0.2-0.4c-0.1-0.1-0.2-0.2-0.4-0.2h-3.7c-0.1,0-0.3,0.1-0.4,0.2      c-0.1,0.1-0.1,0.2-0.1,0.4v12.3c0,0.1,0.1,0.3,0.2,0.4c0.1,0.1,0.2,0.2,0.4,0.2H92c0.1,0,0.3-0.1,0.4-0.2      c0.1-0.1,0.2-0.2,0.2-0.4v-2.9c0-0.1-0.1-0.3-0.2-0.4c-0.1-0.1-0.2-0.2-0.4-0.2h-6.4L85.6,119.4z"></path>
			</g>
			<g id="XMLID_65_">
				<path id="XMLID_66_" class="st5" d="M102.5,126.3c0,0.8-0.2,1.3-0.5,1.7c-0.4,0.3-0.9,0.5-1.8,0.5c-0.9,0-1.5-0.2-1.8-0.5      c-0.4-0.3-0.5-0.9-0.5-1.7v-7c0-0.1-0.1-0.3-0.2-0.4c-0.1-0.1-0.2-0.2-0.4-0.2h-3.5c-0.1,0-0.3,0.1-0.4,0.2      c-0.1,0.1-0.2,0.2-0.2,0.4v8.4c0,1.8,0.6,3,1.8,3.6c1.1,0.6,2.8,0.9,5,0.9c2.2,0,3.9-0.3,5-0.9c1.3-0.7,1.9-1.8,1.9-3.5v-8.6      c0-0.1-0.1-0.3-0.2-0.4c-0.1-0.1-0.2-0.2-0.4-0.2H103c-0.1,0-0.3,0.1-0.4,0.2c-0.1,0.1-0.2,0.2-0.2,0.4V126.3z"></path>
			</g>
			<g id="XMLID_63_">
				<path id="XMLID_64_" class="st5" d="M134.8,123c-0.5-0.6-1-1.3-1.4-1.9c-0.5-0.6-0.9-1.3-1.4-2c0-0.1-0.1-0.1-0.2-0.2      c-0.1,0-0.2-0.1-0.2-0.1h-3.8c-0.1,0-0.3,0.1-0.4,0.2c-0.1,0.1-0.2,0.2-0.2,0.4v12.3c0,0.1,0.1,0.3,0.2,0.4      c0.1,0.1,0.2,0.2,0.4,0.2h3.3c0.1,0,0.3-0.1,0.4-0.2c0.1-0.1,0.2-0.2,0.2-0.4v-6.1l4.8,6.4c0,0.1,0.1,0.1,0.2,0.2      c0.1,0,0.2,0.1,0.2,0.1h3.8c0.1,0,0.3-0.1,0.4-0.2c0.1-0.1,0.2-0.2,0.2-0.4v-12.3c0-0.1-0.1-0.3-0.2-0.4      c-0.1-0.1-0.2-0.2-0.4-0.2h-3.3c-0.1,0-0.3,0.1-0.4,0.2c-0.1,0.1-0.2,0.2-0.2,0.4v6.2c-0.3-0.5-0.7-0.9-1-1.3      C135.5,123.9,135.1,123.4,134.8,123z"></path>
			</g>
			<g id="XMLID_59_">
				<path id="XMLID_60_" class="st5" d="M158.9,132.2c0.2,0,0.4-0.1,0.5-0.2c0.1-0.2,0.1-0.3,0-0.5l-6.6-12.3c0-0.1-0.1-0.1-0.2-0.2      c-0.1-0.1-0.2-0.1-0.3-0.1h-3c-0.1,0-0.2,0-0.3,0.1c-0.1,0.1-0.2,0.1-0.2,0.2l-7,12.3c-0.1,0.2-0.1,0.4,0,0.5      c0.1,0.2,0.3,0.2,0.5,0.2h3.5c0.1,0,0.2,0,0.3-0.1c0.1-0.1,0.2-0.1,0.2-0.2l0.9-1.7h6.4l0.9,1.7c0,0.1,0.1,0.1,0.2,0.2      c0.1,0.1,0.2,0.1,0.3,0.1H158.9z M150.5,124.3l1.5,3h-3.2L150.5,124.3z"></path>
			</g>
		</g>
	</g>
</g>
</svg>