<svg xmlns="http://www.w3.org/2000/svg" xmlns:xlink="http://www.w3.org/1999/xlink" id="Capa_1" x="0px" y="0px" viewBox="0 0 200 200" style="enable-background:new 0 0 200 200;" xml:space="preserve">
<style type="text/css">
	.st0{fill:#FFFFFF;}
	.st1{fill:none;stroke:#2A8B2B;stroke-width:2.1586;stroke-miterlimit:10;}
	.st2{fill:#001C53;}
	.st3{fill:#2A8B2B;}
</style>
<g>
	<circle class="st0" cx="668.3" cy="1464.9" r="75.6"></circle>
	<circle class="st1" cx="671.6" cy="1464.9" r="75.6"></circle>
</g>
<g>
	<g>
		<path class="st2" d="M665.6,1461.2c0-3.1,2.5-5.6,5.6-5.6c3.1,0,5.6,2.5,5.6,5.6c0,3.1-2.5,5.6-5.6,5.6    C668.1,1466.7,665.6,1464.2,665.6,1461.2"></path>
		<g>
			<path class="st2" d="M661.3,1473.9c0-0.1,0-0.2,0-0.3l-11.4-19.4c-0.9-1.4-0.5-3.2,0.9-3.9c1.4-0.8,3.2-0.3,4.1,1.1l10,17.2     c1.1,1.7,3.4,3,5.5,3.4l0.1,0l-16.8-27.1c-0.1-0.3-0.4-0.5-0.8-0.7c-0.4-0.2-0.7-0.3-1-0.3h-15.6c-0.6,0-1.1,0.2-1.5,0.6     c-0.4,0.4-0.6,0.9-0.6,1.4v48c0,0.5,0.2,1,0.6,1.4c0.4,0.4,0.9,0.6,1.5,0.6h13.3c0.6,0,1.1-0.2,1.5-0.6c0.4-0.4,0.6-0.9,0.6-1.4     V1468l9.5,17.7V1473.9z"></path>
			<path class="st2" d="M681,1473.9c0-0.1,0-0.2,0-0.3l11.4-19.4c0.9-1.4,0.5-3.2-0.9-3.9c-1.4-0.8-3.2-0.3-4.1,1.1l-10,17.2     c-1.1,1.7-3.4,3-5.5,3.4l-0.1,0l16.8-27.1c0.1-0.3,0.4-0.5,0.8-0.7c0.4-0.2,0.7-0.3,1-0.3h15.6c0.6,0,1.1,0.2,1.5,0.6     c0.4,0.4,0.6,0.9,0.6,1.4v48c0,0.5-0.2,1-0.6,1.4c-0.4,0.4-0.9,0.6-1.5,0.6h-13.3c-0.6,0-1.1-0.2-1.5-0.6     c-0.4-0.4-0.6-0.9-0.6-1.4V1468l-9.5,17.7V1473.9z"></path>
		</g>
	</g>
	<g>
		<path class="st3" d="M640.9,1500.4c-0.1,0-0.1,0-0.2,0.1c-0.1,0-0.1,0.1-0.2,0.2l-3.9,6.4l-4-6.4c0-0.1-0.1-0.1-0.2-0.2    c-0.1,0-0.2-0.1-0.2-0.1h-3.5c-0.1,0-0.2,0-0.3,0.1c-0.1,0.1-0.1,0.2-0.1,0.3v10.9c0,0.1,0,0.2,0.1,0.3c0.1,0.1,0.2,0.1,0.3,0.1h3    c0.1,0,0.2,0,0.3-0.1c0.1-0.1,0.1-0.2,0.1-0.3v-5.9l3.3,6.1c0,0.1,0.1,0.1,0.2,0.2c0.1,0.1,0.2,0.1,0.2,0.1h1.4    c0.1,0,0.1,0,0.2-0.1c0.1-0.1,0.1-0.1,0.2-0.2l3.3-6.1v5.9c0,0.1,0,0.2,0.1,0.3c0.1,0.1,0.2,0.1,0.3,0.1h3c0.1,0,0.2,0,0.3-0.1    c0.1-0.1,0.1-0.2,0.1-0.3v-10.9c0-0.1,0-0.2-0.1-0.3c-0.1-0.1-0.2-0.1-0.3-0.1H640.9z"></path>
		<path class="st2" d="M648.8,1512.2c0.1,0,0.2,0,0.3-0.1c0.1-0.1,0.1-0.2,0.1-0.3v-10.9c0-0.1,0-0.2-0.1-0.3    c-0.1-0.1-0.2-0.1-0.3-0.1H646c-0.1,0-0.2,0-0.3,0.1c-0.1,0.1-0.1,0.2-0.1,0.3v10.9c0,0.1,0,0.2,0.1,0.3c0.1,0.1,0.2,0.1,0.3,0.1    H648.8z"></path>
		<path class="st3" d="M654,1506.3c0-1.1,0.3-1.9,0.9-2.4c0.6-0.6,1.5-0.9,2.6-0.9c0.3,0,0.7,0,1,0.1c0.3,0.1,0.7,0.1,1,0.2    c0.7,0.2,1.3,0.4,1.7,0.5c0.2,0.1,0.3,0,0.4-0.1c0.1-0.1,0.2-0.2,0.2-0.4l-0.2-2.2c0-0.1,0-0.2-0.1-0.2c-0.1-0.1-0.1-0.1-0.2-0.1    c-0.5-0.2-1.2-0.3-2-0.5c-0.8-0.1-1.6-0.2-2.6-0.2c-1.1,0-2.1,0.1-3,0.4c-0.9,0.3-1.6,0.7-2.2,1.2c-0.6,0.5-1.1,1.2-1.4,2    c-0.3,0.8-0.5,1.7-0.5,2.7c0,1.9,0.7,3.4,2,4.4c1.3,1,3,1.5,5.2,1.5c1,0,1.8-0.1,2.7-0.2c0.8-0.1,1.6-0.3,2.3-0.6    c0.1,0,0.2-0.1,0.2-0.2c0.1-0.1,0.1-0.2,0.1-0.2l0-2.3c0-0.2-0.1-0.3-0.2-0.4c-0.1-0.1-0.3-0.1-0.4,0c-0.2,0.1-0.5,0.2-0.8,0.3    c-0.3,0.1-0.7,0.2-1,0.3h0c-0.7,0.2-1.5,0.3-2.2,0.3c-1.1,0-2-0.3-2.7-0.8c-0.3-0.3-0.5-0.6-0.7-0.9    C654.1,1507.2,654,1506.8,654,1506.3L654,1506.3z"></path>
		<path class="st3" d="M672.9,1506.2c0,0.9-0.2,1.5-0.7,1.9c-0.5,0.4-1.2,0.7-2.2,0.7c-0.9,0-1.7-0.2-2.2-0.7    c-0.5-0.4-0.7-1.1-0.7-1.9c0-0.9,0.2-1.5,0.7-1.9c0.5-0.4,1.2-0.7,2.2-0.7c0.9,0,1.7,0.2,2.2,0.7    C672.7,1504.7,672.9,1505.4,672.9,1506.2 M677.1,1506.2c0-2.1-0.6-3.6-1.8-4.6c-1.2-1-3-1.5-5.3-1.5c-2.3,0-4.1,0.5-5.3,1.5    c-1.2,1-1.8,2.5-1.8,4.6s0.6,3.6,1.8,4.6c1.2,1,3,1.5,5.3,1.5c2.3,0,4.1-0.5,5.3-1.5C676.5,1509.8,677.1,1508.3,677.1,1506.2"></path>
		<path class="st3" d="M687.8,1506.2c0,0.9-0.2,1.5-0.7,1.9c-0.5,0.4-1.2,0.7-2.2,0.7c-0.9,0-1.7-0.2-2.2-0.7    c-0.5-0.4-0.7-1.1-0.7-1.9c0-0.9,0.2-1.5,0.7-1.9c0.5-0.4,1.2-0.7,2.2-0.7c0.9,0,1.7,0.2,2.2,0.7    C687.5,1504.7,687.8,1505.4,687.8,1506.2 M692,1506.2c0-2.1-0.6-3.6-1.8-4.6c-1.2-1-3-1.5-5.3-1.5c-2.3,0-4.1,0.5-5.3,1.5    c-1.2,1-1.8,2.5-1.8,4.6s0.6,3.6,1.8,4.6c1.2,1,3,1.5,5.3,1.5c2.3,0,4.1-0.5,5.3-1.5C691.4,1509.8,692,1508.3,692,1506.2"></path>
		<path class="st3" d="M697.6,1503.1c0.5,0,1,0,1.3,0.2c0.3,0.2,0.5,0.5,0.5,0.9c0,0.8-0.6,1.1-1.8,1.1l-0.8,0v-2.1L697.6,1503.1z     M698.3,1508c1.7,0,2.9-0.3,3.7-0.9c0.8-0.6,1.3-1.6,1.3-2.9c0-0.7-0.1-1.2-0.4-1.7c-0.2-0.5-0.6-0.9-1.1-1.2    c-0.5-0.3-1.1-0.5-1.8-0.7c-0.7-0.1-1.6-0.2-2.5-0.2h-4.4c-0.1,0-0.2,0-0.3,0.1c-0.1,0.1-0.1,0.2-0.1,0.3v10.9    c0,0.1,0,0.2,0.1,0.3c0.1,0.1,0.2,0.1,0.3,0.1h3.2c0.1,0,0.2,0,0.3-0.1c0.1-0.1,0.1-0.2,0.1-0.3v-3.8L698.3,1508z"></path>
		<path class="st3" d="M713.6,1512.2c0.1,0,0.2,0,0.3-0.1c0.1-0.1,0.1-0.2,0.1-0.3v-2.2c0-0.1,0-0.2-0.1-0.3    c-0.1-0.1-0.2-0.1-0.3-0.1h-5.5v-1.3l4.3,0c0.1,0,0.2,0,0.3-0.1c0.1-0.1,0.1-0.2,0.1-0.3v-2.2c0-0.1,0-0.2-0.1-0.3    c-0.1-0.1-0.2-0.1-0.3-0.1h-4.3v-1.2h5.1c0.1,0,0.2,0,0.3-0.1c0.1-0.1,0.1-0.2,0.1-0.3v-2.2c0-0.1,0-0.2-0.1-0.3    c-0.1-0.1-0.2-0.1-0.3-0.1h-8.8c-0.1,0-0.2,0-0.3,0.1c-0.1,0.1-0.1,0.2-0.1,0.3v10.9c0,0.1,0,0.2,0.1,0.3c0.1,0.1,0.2,0.1,0.3,0.1    H713.6z"></path>
	</g>
	<rect x="628.1" y="1514.9" class="st2" width="86.2" height="1.1"></rect>
	<g>
		<path class="st2" d="M633.2,1437.1v1.4c-1,0.5-2,0.8-3.3,0.8c-1,0-1.9-0.2-2.6-0.6c-0.7-0.4-1.3-1-1.7-1.7    c-0.4-0.7-0.6-1.5-0.6-2.3c0-1.3,0.5-2.4,1.4-3.3c0.9-0.9,2.1-1.3,3.5-1.3c1,0,2,0.2,3.2,0.7v1.4c-1.1-0.6-2.1-0.9-3.1-0.9    c-1,0-1.9,0.3-2.6,1c-0.7,0.7-1,1.5-1,2.5c0,1,0.3,1.8,1,2.4c0.7,0.6,1.5,1,2.6,1C631,1438.1,632.1,1437.7,633.2,1437.1"></path>
		<path class="st2" d="M639.2,1431.2c-1,0-1.9,0.3-2.6,1c-0.7,0.6-1,1.5-1,2.5c0,1,0.3,1.8,1,2.4c0.7,0.6,1.5,1,2.5,1    c1,0,1.9-0.3,2.5-1c0.7-0.7,1-1.5,1-2.5c0-1-0.3-1.8-1-2.4C641.1,1431.5,640.2,1431.2,639.2,1431.2 M639.2,1430    c1.4,0,2.6,0.4,3.5,1.3c0.9,0.9,1.4,2,1.4,3.3c0,1.3-0.5,2.4-1.4,3.3c-0.9,0.9-2.1,1.3-3.6,1.3c-1.4,0-2.5-0.4-3.4-1.3    c-0.9-0.9-1.4-2-1.4-3.3c0-1.3,0.5-2.5,1.4-3.3C636.6,1430.4,637.8,1430,639.2,1430"></path>
		<path class="st2" d="M650.2,1431.2c-1,0-1.9,0.3-2.6,1c-0.7,0.6-1,1.5-1,2.5c0,1,0.3,1.8,1,2.4c0.7,0.6,1.5,1,2.5,1    c1,0,1.9-0.3,2.5-1c0.7-0.7,1-1.5,1-2.5c0-1-0.3-1.8-1-2.4C652,1431.5,651.2,1431.2,650.2,1431.2 M650.1,1430    c1.4,0,2.6,0.4,3.5,1.3c0.9,0.9,1.4,2,1.4,3.3c0,1.3-0.5,2.4-1.4,3.3c-0.9,0.9-2.1,1.3-3.6,1.3c-1.4,0-2.5-0.4-3.4-1.3    c-0.9-0.9-1.4-2-1.4-3.3c0-1.3,0.5-2.5,1.4-3.3C647.6,1430.4,648.7,1430,650.1,1430"></path>
		<path class="st2" d="M659.2,1431.3h-1.3v2.8h1.4c0.5,0,0.9-0.1,1.2-0.4c0.3-0.2,0.4-0.6,0.4-1.1    C660.9,1431.7,660.3,1431.3,659.2,1431.3 M656.5,1439.2v-9h2.9c0.9,0,1.6,0.2,2.1,0.7c0.5,0.5,0.8,1.1,0.8,1.9    c0,0.5-0.1,1-0.4,1.4c-0.3,0.4-0.6,0.7-1.1,0.9c-0.5,0.2-1.1,0.3-2,0.3h-1v3.9H656.5z"></path>
		<polygon class="st2" points="663.4,1430.1 668.5,1430.1 668.5,1431.3 664.7,1431.3 664.7,1434 668.4,1434 668.4,1435.2     664.7,1435.2 664.7,1438 668.6,1438 668.6,1439.1 663.4,1439.1   "></polygon>
		<path class="st2" d="M671.7,1431.2h-0.4v2.8h0.5c0.7,0,1.1-0.1,1.4-0.2c0.2-0.1,0.4-0.3,0.6-0.5c0.1-0.2,0.2-0.5,0.2-0.8    c0-0.3-0.1-0.5-0.2-0.8c-0.2-0.2-0.4-0.4-0.6-0.5C672.8,1431.3,672.4,1431.2,671.7,1431.2 M670,1439.2v-9h2.3    c0.9,0,1.6,0.2,2.2,0.7c0.5,0.5,0.8,1.1,0.8,1.8c0,0.5-0.1,1-0.4,1.4c-0.3,0.4-0.6,0.7-1.1,0.9c0.3,0.2,0.6,0.4,0.8,0.8    c0.3,0.3,0.7,0.9,1.2,1.7c0.3,0.5,0.6,0.9,0.8,1.2l0.5,0.6h-1.5l-0.4-0.6c0,0,0-0.1-0.1-0.1l-0.3-0.4l-0.4-0.7l-0.4-0.7    c-0.3-0.4-0.5-0.7-0.7-0.9c-0.2-0.2-0.4-0.4-0.6-0.5c-0.2-0.1-0.5-0.1-0.9-0.1h-0.3v3.9H670z"></path>
		<path class="st2" d="M681.4,1432.1l1.5,3.3H680L681.4,1432.1z M680.9,1430.1l-3.9,9.1h1.3l1.1-2.7h3.9l1.2,2.7h1.3l-4.1-9.1H680.9    z"></path>
		<polygon class="st2" points="684.8,1430.1 684.8,1431.3 687.9,1431.3 687.9,1439.2 689.2,1439.2 689.2,1431.3 692.3,1431.3     692.3,1430.1   "></polygon>
		<rect x="693.6" y="1430.1" class="st2" width="1.3" height="9"></rect>
		<polygon class="st2" points="702.6,1430.1 703.9,1430.1 700.1,1439.2 699.8,1439.2 695.9,1430.1 697.2,1430.1 699.9,1436.5   "></polygon>
		<path class="st2" d="M707.2,1432.1l1.5,3.3h-2.8L707.2,1432.1z M706.7,1430.1l-3.9,9.1h1.3l1.1-2.7h3.9l1.2,2.7h1.3l-4.1-9.1    H706.7z"></path>
		<path class="st2" d="M714.9,1435.4l-1-0.6c-0.6-0.4-1.1-0.7-1.3-1.1c-0.3-0.4-0.4-0.8-0.4-1.3c0-0.7,0.2-1.3,0.7-1.7    c0.5-0.4,1.1-0.7,1.9-0.7c0.8,0,1.4,0.2,2.1,0.6v1.5c-0.7-0.6-1.4-0.9-2.1-0.9c-0.4,0-0.8,0.1-1,0.3c-0.3,0.2-0.4,0.4-0.4,0.7    c0,0.3,0.1,0.5,0.3,0.8c0.2,0.2,0.5,0.5,1,0.7l1,0.6c1.1,0.7,1.7,1.5,1.7,2.5c0,0.7-0.2,1.3-0.7,1.8c-0.5,0.5-1.1,0.7-1.9,0.7    c-0.9,0-1.7-0.3-2.4-0.8v-1.6c0.7,0.9,1.5,1.3,2.4,1.3c0.4,0,0.7-0.1,1-0.3c0.3-0.2,0.4-0.5,0.4-0.8    C716.1,1436.4,715.7,1435.9,714.9,1435.4"></path>
	</g>
	<g>
		<path class="st2" d="M665.3,1411.7c1.3,0,2.4,0.4,3.2,1.2c0.8,0.8,1.2,1.8,1.2,3.1c0,1-0.3,2-0.9,3.2c-0.6,1.1-1.6,2.6-3.1,4.5    h4.9v2.5h-9.2v-0.3c1.1-1.3,2-2.5,2.8-3.6c0.8-1.1,1.4-1.9,1.8-2.6c0.4-0.7,0.7-1.3,0.9-1.8c0.2-0.5,0.3-1,0.3-1.5    c0-0.6-0.2-1.2-0.6-1.6c-0.4-0.4-0.9-0.7-1.5-0.7c-1.1,0-2.2,0.6-3.3,1.8v-2.8C662.8,1412.1,664,1411.7,665.3,1411.7z"></path>
		<path class="st2" d="M680.4,1411.9v2.4h-4.5v3.1l0.3,0h0.2c0.9,0,1.6,0.2,2.4,0.6c0.7,0.4,1.3,0.9,1.6,1.6    c0.4,0.7,0.6,1.4,0.6,2.3c0,1.3-0.4,2.4-1.3,3.2c-0.9,0.8-2.1,1.3-3.5,1.3c-1.3,0-2.4-0.3-3.4-0.8v-2.4c1.1,0.6,2.1,1,3,1    c0.8,0,1.4-0.2,1.9-0.6c0.5-0.4,0.8-1,0.8-1.6c0-0.7-0.3-1.3-0.9-1.7c-0.6-0.4-1.4-0.6-2.4-0.6c-0.5,0-1,0.1-1.6,0.2v-7.8H680.4z"></path>
	</g>
</g>
<g id="XMLID_110_">
	<circle id="XMLID_112_" class="st0" cx="97.9" cy="103" r="75.6"></circle>
	<circle id="XMLID_111_" class="st1" cx="101.1" cy="103" r="75.6"></circle>
</g>
<g id="XMLID_2_">
	<g id="XMLID_67_">
		<path id="XMLID_107_" class="st2" d="M86.7,115.9H88c0.3,0,0.5,0.1,0.7,0.2c0.2,0.1,0.3,0.3,0.3,0.5c0,0.3-0.2,0.4-0.5,0.6    c0.1,0.1,0.3,0.2,0.4,0.4c0.1,0.2,0.3,0.4,0.4,0.7h-0.8c0-0.1-0.1-0.2-0.2-0.4c-0.1-0.2-0.2-0.3-0.3-0.4c-0.1-0.1-0.2-0.1-0.3-0.1    h-0.2v0.9h-0.7V115.9z M87.4,116.4v0.5h0.4c0.1,0,0.2,0,0.3-0.1c0.1,0,0.1-0.1,0.1-0.2c0-0.2-0.1-0.3-0.4-0.3H87.4z"></path>
		<path id="XMLID_105_" class="st2" d="M93.3,117.8v0.4h-2.1v-2.3h2.1v0.4h-1.4v0.5h1.3v0.4h-1.3v0.6H93.3z"></path>
		<path id="XMLID_103_" class="st2" d="M97.4,116.1v0.4c-0.4-0.1-0.7-0.2-0.9-0.2c-0.1,0-0.2,0-0.3,0.1c-0.1,0-0.1,0.1-0.1,0.1    c0,0,0,0.1,0.1,0.1c0.1,0,0.2,0.1,0.4,0.2c0.2,0.1,0.4,0.1,0.5,0.2c0.1,0.1,0.2,0.1,0.3,0.2c0.1,0.1,0.1,0.2,0.1,0.4    c0,0.2-0.1,0.4-0.3,0.5c-0.2,0.1-0.5,0.2-0.8,0.2c-0.4,0-0.7-0.1-1-0.2v-0.5c0.2,0.1,0.4,0.2,0.5,0.2c0.1,0,0.3,0.1,0.5,0.1    c0.3,0,0.4-0.1,0.4-0.2c0,0,0-0.1-0.1-0.1c-0.1,0-0.2-0.1-0.4-0.2c-0.2-0.1-0.4-0.1-0.5-0.2c-0.1-0.1-0.2-0.1-0.3-0.2    c-0.1-0.1-0.1-0.2-0.1-0.4c0-0.2,0.1-0.4,0.3-0.5c0.2-0.1,0.5-0.2,0.8-0.2C96.7,115.9,97.1,116,97.4,116.1z"></path>
		<path id="XMLID_100_" class="st2" d="M99.7,115.9h1.3c0.3,0,0.5,0.1,0.7,0.2c0.2,0.1,0.3,0.3,0.3,0.5c0,0.2-0.1,0.4-0.2,0.5    c-0.2,0.1-0.4,0.2-0.7,0.2h-0.6v0.9h-0.7V115.9z M100.4,116.4v0.5h0.3c0.3,0,0.4-0.1,0.4-0.3c0-0.1,0-0.2-0.1-0.2    c-0.1,0-0.2-0.1-0.4-0.1H100.4z"></path>
		<path id="XMLID_97_" class="st2" d="M105.2,115.9l1.3,2.3h-0.8l-0.2-0.5h-1.3l-0.2,0.5h-0.7l1.1-2.3H105.2z M105.3,117.4l-0.5-0.9    l-0.4,0.9H105.3z"></path>
		<path id="XMLID_95_" class="st2" d="M110.6,117.8v0.4h-2.2v-2.3h0.7v1.9H110.6z"></path>
		<path id="XMLID_92_" class="st2" d="M112.6,115.9h1.2c0.5,0,0.9,0.1,1.1,0.3c0.3,0.2,0.4,0.5,0.4,0.8c0,0.4-0.1,0.6-0.4,0.8    c-0.3,0.2-0.7,0.3-1.2,0.3h-1.2V115.9z M113.3,116.4v1.5h0.5c0.3,0,0.5-0.1,0.7-0.2c0.2-0.1,0.2-0.3,0.2-0.5    c0-0.2-0.1-0.4-0.2-0.5c-0.2-0.1-0.4-0.2-0.7-0.2H113.3z"></path>
		<path id="XMLID_89_" class="st2" d="M119,115.9l1.3,2.3h-0.8l-0.2-0.5H118l-0.2,0.5h-0.7l1.1-2.3H119z M119.1,117.4l-0.5-0.9    l-0.4,0.9H119.1z"></path>
		<path id="XMLID_87_" class="st3" d="M126.6,116.8l0.9-0.9h0.6v2.3h-0.7v-1.4l-0.8,0.7h-0.1l-0.8-0.7v1.4h-0.7v-2.3h0.6    L126.6,116.8z"></path>
		<path id="XMLID_85_" class="st2" d="M131.1,115.9v2.3h-0.7v-2.3H131.1z"></path>
		<path id="XMLID_82_" class="st3" d="M135.1,115.9l1.3,2.3h-0.8l-0.2-0.5h-1.3l-0.2,0.5h-0.7l1.1-2.3H135.1z M135.1,117.4l-0.5-0.9    l-0.4,0.9H135.1z"></path>
		<path id="XMLID_80_" class="st3" d="M141.1,115.9v2.3h-0.7v-0.9H139v0.9h-0.7v-2.3h0.7v0.9h1.4v-0.9H141.1z"></path>
		<path id="XMLID_77_" class="st3" d="M144.9,115.9c0.5,0,0.9,0.1,1.2,0.4c0.3,0.2,0.4,0.5,0.4,0.8c0,0.3-0.2,0.6-0.5,0.8    c-0.3,0.2-0.7,0.4-1.2,0.4c-0.5,0-0.9-0.1-1.2-0.3c-0.3-0.2-0.5-0.5-0.5-0.8c0-0.3,0.1-0.6,0.4-0.8    C144,116,144.4,115.9,144.9,115.9z M144.9,117.8c0.3,0,0.5-0.1,0.6-0.2c0.2-0.1,0.2-0.3,0.2-0.5c0-0.2-0.1-0.4-0.2-0.5    c-0.2-0.1-0.4-0.2-0.6-0.2c-0.3,0-0.5,0.1-0.6,0.2s-0.2,0.3-0.2,0.5c0,0.2,0.1,0.4,0.2,0.5C144.4,117.7,144.7,117.8,144.9,117.8z"></path>
		<path id="XMLID_74_" class="st3" d="M148.7,115.9h1.3c0.3,0,0.5,0.1,0.7,0.2c0.2,0.1,0.3,0.3,0.3,0.5c0,0.3-0.2,0.4-0.5,0.6    c0.1,0.1,0.3,0.2,0.4,0.4c0.1,0.2,0.3,0.4,0.4,0.7h-0.8c0-0.1-0.1-0.2-0.2-0.4c-0.1-0.2-0.2-0.3-0.3-0.4c-0.1-0.1-0.2-0.1-0.3-0.1    h-0.2v0.9h-0.7V115.9z M149.4,116.4v0.5h0.4c0.1,0,0.2,0,0.3-0.1c0.1,0,0.1-0.1,0.1-0.2c0-0.2-0.1-0.3-0.4-0.3H149.4z"></path>
		<path id="XMLID_71_" class="st3" d="M153.2,115.9h1.3c0.3,0,0.5,0.1,0.7,0.2c0.2,0.1,0.3,0.3,0.3,0.5c0,0.3-0.2,0.4-0.5,0.6    c0.1,0.1,0.3,0.2,0.4,0.4c0.1,0.2,0.3,0.4,0.4,0.7h-0.8c0-0.1-0.1-0.2-0.2-0.4c-0.1-0.2-0.2-0.3-0.3-0.4c-0.1-0.1-0.2-0.1-0.3-0.1    h-0.2v0.9h-0.7V115.9z M153.9,116.4v0.5h0.4c0.1,0,0.2,0,0.3-0.1c0.1,0,0.1-0.1,0.1-0.2c0-0.2-0.1-0.3-0.4-0.3H153.9z"></path>
		<path id="XMLID_68_" class="st3" d="M159.1,115.9c0.5,0,0.9,0.1,1.2,0.4c0.3,0.2,0.4,0.5,0.4,0.8c0,0.3-0.2,0.6-0.5,0.8    c-0.3,0.2-0.7,0.4-1.2,0.4c-0.5,0-0.9-0.1-1.2-0.3c-0.3-0.2-0.5-0.5-0.5-0.8c0-0.3,0.1-0.6,0.4-0.8    C158.2,116,158.6,115.9,159.1,115.9z M159.1,117.8c0.3,0,0.5-0.1,0.6-0.2c0.2-0.1,0.2-0.3,0.2-0.5c0-0.2-0.1-0.4-0.2-0.5    c-0.2-0.1-0.4-0.2-0.6-0.2c-0.3,0-0.5,0.1-0.6,0.2c-0.2,0.1-0.2,0.3-0.2,0.5c0,0.2,0.1,0.4,0.2,0.5    C158.6,117.7,158.8,117.8,159.1,117.8z"></path>
	</g>
	<g id="XMLID_22_">
		<path id="XMLID_64_" class="st2" d="M89.2,108.5v4h-0.9v-0.2c-0.2,0.2-0.5,0.3-0.8,0.3c-0.4,0-0.7-0.1-0.9-0.4    c-0.2-0.3-0.4-0.6-0.4-1c0-0.4,0.1-0.8,0.4-1c0.2-0.3,0.6-0.4,0.9-0.4c0.2,0,0.5,0.1,0.7,0.2v-1.4H89.2z M88.3,111.8v-1.3    c-0.2-0.1-0.3-0.2-0.5-0.2c-0.2,0-0.4,0.1-0.5,0.2c-0.1,0.1-0.2,0.4-0.2,0.6c0,0.2,0.1,0.4,0.2,0.6c0.1,0.1,0.3,0.2,0.5,0.2    C88,112,88.2,111.9,88.3,111.8z"></path>
		<path id="XMLID_61_" class="st2" d="M92.5,111.7v0.5c-0.3,0.2-0.7,0.4-1.2,0.4c-0.5,0-0.9-0.1-1.1-0.4c-0.3-0.3-0.4-0.6-0.4-1    c0-0.4,0.1-0.8,0.4-1c0.3-0.3,0.6-0.4,1-0.4c0.4,0,0.8,0.1,1,0.4c0.3,0.3,0.4,0.7,0.4,1.1h-1.9c0,0.2,0.1,0.4,0.3,0.6    c0.2,0.1,0.4,0.2,0.6,0.2C91.8,112.1,92.2,112,92.5,111.7z M90.6,110.9h1.2c0-0.4-0.2-0.6-0.6-0.6    C90.9,110.3,90.7,110.5,90.6,110.9z"></path>
		<path id="XMLID_59_" class="st2" d="M98.7,108.8v0.9c-0.5-0.2-1-0.4-1.5-0.4c-0.5,0-0.8,0.1-1.1,0.4c-0.3,0.2-0.4,0.5-0.4,0.9    c0,0.4,0.1,0.6,0.4,0.9c0.3,0.2,0.6,0.3,1,0.3c0.2,0,0.4,0,0.7-0.1v-0.5h-0.6v-0.7h1.6v1.6c-0.2,0.2-0.4,0.3-0.7,0.4    c-0.3,0.1-0.6,0.2-1,0.2c-0.7,0-1.3-0.2-1.7-0.6c-0.4-0.4-0.7-0.9-0.7-1.5c0-0.6,0.2-1.1,0.7-1.5c0.4-0.4,1-0.6,1.7-0.6    C97.7,108.5,98.2,108.6,98.7,108.8z"></path>
		<path id="XMLID_56_" class="st2" d="M102,108.5l1.8,4h-1.1l-0.3-0.8h-1.8l-0.3,0.8h-1.1l1.6-4H102z M102.1,111l-0.7-1.6l-0.6,1.6    H102.1z"></path>
		<path id="XMLID_53_" class="st2" d="M104.2,108.5h1.8c0.4,0,0.7,0.1,0.9,0.3c0.2,0.2,0.4,0.5,0.4,0.8c0,0.4-0.2,0.8-0.7,1    c0.2,0.1,0.4,0.3,0.6,0.7c0.2,0.4,0.4,0.8,0.5,1.1h-1.1c-0.1-0.1-0.2-0.4-0.3-0.8c-0.2-0.4-0.3-0.6-0.4-0.7    c-0.1-0.1-0.2-0.2-0.4-0.2h-0.3v1.6h-1V108.5z M105.2,109.3v0.9h0.5c0.2,0,0.3,0,0.4-0.1c0.1-0.1,0.1-0.2,0.1-0.3    c0-0.3-0.2-0.5-0.6-0.5H105.2z"></path>
		<path id="XMLID_50_" class="st2" d="M110.6,108.5l1.8,4h-1.1l-0.3-0.8h-1.8l-0.3,0.8h-1.1l1.6-4H110.6z M110.6,111l-0.6-1.6    l-0.6,1.6H110.6z"></path>
		<path id="XMLID_48_" class="st2" d="M116.9,108.5v4H116l-2.2-2.6v2.6h-1v-4h0.9l2.1,2.5v-2.5H116.9z"></path>
		<path id="XMLID_46_" class="st2" d="M121.4,108.5v0.7h-1.5v3.3h-1v-3.3h-1.5v-0.7H121.4z"></path>
		<path id="XMLID_43_" class="st2" d="M123,108.5v4h-1v-4H123z M123.5,107.3l-1,0.9h-0.4l0.4-0.9H123.5z"></path>
		<path id="XMLID_40_" class="st2" d="M126.3,108.5l1.8,4H127l-0.3-0.8h-1.8l-0.3,0.8h-1.1l1.6-4H126.3z M126.4,111l-0.7-1.6    l-0.6,1.6H126.4z"></path>
		<path id="XMLID_38_" class="st3" d="M132.3,110l1.3-1.5h0.9v4h-1V110l-1.1,1.3h-0.2l-1.1-1.3v2.5h-1v-4h0.9L132.3,110z"></path>
		<path id="XMLID_36_" class="st2" d="M136.4,108.5v4h-1v-4H136.4z"></path>
		<path id="XMLID_34_" class="st3" d="M141.1,111.3v0.9c-0.5,0.3-1,0.4-1.6,0.4c-0.7,0-1.3-0.2-1.7-0.6c-0.4-0.4-0.6-0.9-0.6-1.5    c0-0.6,0.2-1.1,0.7-1.5c0.4-0.4,1-0.6,1.7-0.6c0.6,0,1.1,0.1,1.5,0.4v0.9c-0.5-0.3-0.9-0.4-1.4-0.4c-0.4,0-0.8,0.1-1,0.3    c-0.3,0.2-0.4,0.5-0.4,0.9c0,0.4,0.1,0.7,0.4,0.9c0.3,0.2,0.6,0.3,1,0.3c0.2,0,0.4,0,0.6-0.1C140.4,111.6,140.7,111.5,141.1,111.3    z"></path>
		<path id="XMLID_31_" class="st3" d="M144,108.5c0.7,0,1.2,0.2,1.7,0.6c0.4,0.4,0.6,0.9,0.6,1.4c0,0.6-0.2,1-0.6,1.4    c-0.4,0.4-1,0.6-1.7,0.6c-0.7,0-1.2-0.2-1.7-0.6c-0.4-0.4-0.6-0.9-0.6-1.4c0-0.5,0.2-1,0.6-1.4C142.8,108.7,143.3,108.5,144,108.5    z M144,111.8c0.4,0,0.7-0.1,0.9-0.3c0.2-0.2,0.3-0.5,0.3-0.9c0-0.4-0.1-0.7-0.3-0.9c-0.2-0.2-0.5-0.3-0.9-0.3    c-0.4,0-0.7,0.1-0.9,0.3c-0.2,0.2-0.3,0.5-0.3,0.9c0,0.4,0.1,0.7,0.3,0.9C143.3,111.6,143.6,111.8,144,111.8z"></path>
		<path id="XMLID_28_" class="st3" d="M149.2,108.5c0.7,0,1.2,0.2,1.7,0.6c0.4,0.4,0.6,0.9,0.6,1.4c0,0.6-0.2,1-0.6,1.4    c-0.4,0.4-1,0.6-1.7,0.6c-0.7,0-1.2-0.2-1.7-0.6c-0.4-0.4-0.6-0.9-0.6-1.4c0-0.5,0.2-1,0.6-1.4    C147.9,108.7,148.5,108.5,149.2,108.5z M149.2,111.8c0.4,0,0.7-0.1,0.9-0.3c0.2-0.2,0.3-0.5,0.3-0.9c0-0.4-0.1-0.7-0.3-0.9    c-0.2-0.2-0.5-0.3-0.9-0.3c-0.4,0-0.7,0.1-0.9,0.3c-0.2,0.2-0.3,0.5-0.3,0.9c0,0.4,0.1,0.7,0.3,0.9    C148.5,111.6,148.8,111.8,149.2,111.8z"></path>
		<path id="XMLID_25_" class="st3" d="M152.2,108.5h1.8c0.4,0,0.7,0.1,1,0.4c0.2,0.2,0.4,0.5,0.4,0.8c0,0.3-0.1,0.6-0.4,0.9    c-0.2,0.2-0.6,0.4-1,0.4h-0.8v1.6h-1V108.5z M153.2,109.3v0.9h0.5c0.4,0,0.6-0.2,0.6-0.5c0-0.2-0.1-0.3-0.2-0.4    c-0.1-0.1-0.3-0.1-0.6-0.1H153.2z"></path>
		<path id="XMLID_23_" class="st3" d="M159,111.8v0.7h-3v-4h2.9v0.7H157v0.8h1.8v0.7H157v1H159z"></path>
	</g>
	<g id="XMLID_7_">
		<g id="XMLID_10_">
			<path id="XMLID_19_" class="st2" d="M107.1,98.5c2,0,3.7,0.4,4.9,1.3c1.3,0.9,1.9,1.9,1.9,3c0,1.2-0.6,2.2-1.9,3     c-1.3,0.8-2.9,1.3-4.9,1.3c-2,0-3.7-0.4-4.9-1.3c-1.3-0.8-1.9-1.8-1.9-3c0-1.1,0.6-2.1,1.9-3C103.5,98.9,105.1,98.5,107.1,98.5z      M107.1,105.3c1.1,0,2-0.2,2.7-0.7c0.7-0.5,1-1.1,1-1.8c0-0.8-0.3-1.4-1-1.8c-0.7-0.5-1.6-0.7-2.7-0.7c-1.1,0-2,0.2-2.7,0.7     c-0.7,0.5-1,1.1-1,1.8c0,0.8,0.3,1.4,1,1.8C105.1,105.1,106,105.3,107.1,105.3z"></path>
			<path id="XMLID_17_" class="st2" d="M128.2,98.6v8.4h-2.5l-6.6-5.4v5.4h-3v-8.4h2.7l6.4,5.1v-5.1H128.2z"></path>
			<path id="XMLID_14_" class="st2" d="M130.9,98.6h5.3c2,0,3.6,0.4,4.8,1.2c1.2,0.8,1.8,1.8,1.8,3c0,1.3-0.6,2.3-1.8,3.1     c-1.2,0.7-2.9,1.1-5.1,1.1h-4.9V98.6z M133.8,100.1v5.3h1.9c1.3,0,2.2-0.2,2.9-0.7c0.7-0.5,1-1.1,1-1.9c0-0.8-0.3-1.5-1-1.9     c-0.7-0.5-1.6-0.7-2.9-0.7H133.8z"></path>
			<path id="XMLID_11_" class="st2" d="M151.2,98.5c2,0,3.7,0.4,4.9,1.3c1.3,0.9,1.9,1.9,1.9,3c0,1.2-0.6,2.2-1.9,3     c-1.3,0.8-2.9,1.3-4.9,1.3c-2,0-3.7-0.4-4.9-1.3c-1.3-0.8-1.9-1.8-1.9-3c0-1.1,0.6-2.1,1.9-3C147.5,98.9,149.2,98.5,151.2,98.5z      M151.2,105.3c1.1,0,2-0.2,2.7-0.7c0.7-0.5,1-1.1,1-1.8c0-0.8-0.3-1.4-1-1.8c-0.7-0.5-1.6-0.7-2.7-0.7c-1.1,0-2,0.2-2.7,0.7     c-0.7,0.5-1,1.1-1,1.8c0,0.8,0.3,1.4,1,1.8C149.2,105.1,150.1,105.3,151.2,105.3z"></path>
		</g>
		<path id="XMLID_8_" class="st2" d="M72.5,119.9c-0.4,0-0.7-0.1-1-0.4c-0.3-0.3-0.4-0.6-0.4-1V85.6c0-0.4,0.1-0.7,0.4-1    c0.3-0.3,0.6-0.4,1-0.4h27.9c0.4,0,0.7,0.1,1,0.4c0.3,0.3,0.4,0.6,0.4,1v6.6c0,0.4-0.1,0.7-0.4,1c-0.3,0.3-0.6,0.4-1,0.4H83.7V98    H96c0.4,0,0.7,0.1,1,0.4c0.3,0.3,0.4,0.6,0.4,1l0,6.6c0,0.4-0.1,0.7-0.4,1c-0.3,0.3-0.6,0.4-1,0.4H83.7v11.2c0,0.4-0.1,0.7-0.4,1    c-0.3,0.3-0.6,0.4-1,0.4H72.5z"></path>
	</g>
	<g id="XMLID_3_">
		<path id="XMLID_6_" class="st3" d="M71.1,109.1c-7.7-3.6-11.1-10.3-7.6-16.2c1.5-2.5,3.9-4.5,7-6c-4.6,1.6-8.3,4.2-10.3,7.7    c-4.1,7.1,0.7,15.2,10.9,18.8V109.1z"></path>
		<path id="XMLID_5_" class="st3" d="M71.1,118.5v-3.3c-5.6-1.7-10.4-4.7-13.2-8.6C52,98,57.7,88.3,70.6,84.7    c0.5-0.1,0.9-0.2,1.4-0.4c0.1,0,0.2-0.1,0.3-0.1c4.1-0.9,8.4-1.1,12.4-0.7c-6.2-1.2-13-1.1-19.3,0.6c-14.2,3.9-20.4,14.7-14,24.1    c3.8,5.5,11.3,9.3,19.6,10.7C71.1,118.8,71.1,118.7,71.1,118.5z"></path>
		<path id="XMLID_4_" class="st3" d="M65.3,119.3c-15.7-4.1-23.7-15.6-17.8-25.7c5.9-10.1,23.4-15,39.1-10.9    c1.6,0.4,3.2,0.9,4.7,1.5h2.7c-3.1-2-6.9-3.6-11.1-4.7c-17.3-4.5-36.5,0.8-43,12c-6.5,11.1,2.3,23.8,19.6,28.3    c7.3,1.9,14.9,2,21.8,0.8C76.1,121.1,70.6,120.7,65.3,119.3z"></path>
	</g>
</g>
</svg>